<svg xmlns="http://www.w3.org/2000/svg" width="385.546" height="180.529" viewBox="0 0 385.546 180.529" fill="none">
  <path d="M 34.011 44.599 C 35.112 52.194 35.332 60.008 35.772 67.713 C 35.882 69.804 32.58 69.804 32.47 67.713 C 32.03 60.559 31.81 53.294 30.929 46.25 C 30.269 40.857 28.838 35.023 25.316 30.73 C 22.344 27.208 17.831 24.567 13.098 24.457 C 8.475 24.457 4.073 27.428 3.412 32.161 C 3.082 34.363 3.852 36.674 5.724 37.995 C 7.375 39.206 9.686 39.756 11.557 38.655 C 13.428 37.665 15.079 40.526 13.208 41.517 C 7.264 44.709 0 39.646 0 33.152 C 0 27.098 4.953 22.035 10.897 21.155 C 16.51 20.384 22.344 22.916 26.306 26.768 C 31.039 31.501 33.13 38.215 34.011 44.599 Z M 53.493 91.047 C 53.493 91.047 53.383 91.047 53.493 91.047 C 53.383 91.047 53.383 91.047 53.493 91.047 C 53.383 90.937 53.383 90.937 53.383 90.937 C 53.383 91.047 53.383 91.047 53.493 91.047 Z M 53.053 92.478 C 53.053 92.368 53.053 92.368 53.053 92.478 L 53.053 92.478 Z M 56.795 91.378 C 56.685 93.469 55.364 95.01 53.713 96.221 C 53.383 96.441 53.053 96.661 52.722 96.881 C 52.282 97.211 51.732 97.321 51.181 97.211 C 50.961 97.101 50.741 96.991 50.521 96.881 C 49.751 96.331 49.2 95.56 48.87 94.57 C 48.43 93.249 48.65 91.488 49.641 90.387 C 49.531 90.057 49.531 89.727 49.641 89.396 C 49.971 88.406 50.741 87.635 51.732 87.305 C 52.612 87.085 53.493 87.195 54.263 87.525 C 55.694 88.296 56.905 89.727 56.795 91.378 Z M 51.952 93.799 C 51.952 93.799 51.952 93.689 51.952 93.799 C 51.952 93.689 51.952 93.689 51.952 93.799 Z M 52.062 92.478 C 52.282 92.258 52.172 92.368 52.062 92.478 L 52.062 92.478 Z M 52.722 90.277 C 52.722 90.387 52.722 90.387 52.722 90.277 C 52.612 90.387 52.612 90.387 52.722 90.277 C 52.722 90.387 52.722 90.387 52.722 90.277 Z M 53.273 92.148 C 53.273 92.038 53.383 91.928 53.383 91.928 C 53.383 91.818 53.493 91.708 53.493 91.488 C 53.493 91.378 53.493 91.268 53.493 91.158 L 53.383 91.047 L 53.383 91.158 C 53.273 91.047 53.273 91.047 53.163 90.937 C 53.163 90.937 53.163 90.937 53.053 90.937 C 52.943 90.937 52.832 90.827 52.832 90.827 L 52.722 90.827 C 52.722 90.827 52.722 90.827 52.612 90.827 C 52.612 91.047 52.722 91.157 52.722 91.378 C 52.722 91.708 52.502 92.258 52.282 92.588 C 52.172 92.698 52.062 92.809 51.952 92.809 L 51.842 92.919 L 51.842 93.029 C 51.842 93.139 51.842 93.139 51.842 93.249 C 51.842 93.359 51.842 93.579 51.842 93.689 C 51.842 93.689 51.842 93.689 51.842 93.799 C 51.952 93.689 52.282 93.469 51.842 93.799 C 51.952 93.689 51.952 93.689 52.062 93.579 C 52.282 93.469 52.392 93.249 52.612 93.139 C 52.722 93.029 52.722 93.029 52.832 92.919 L 52.943 92.809 C 52.943 92.809 52.943 92.919 52.832 92.919 C 53.053 92.478 53.163 92.258 53.273 92.148 Z M 376.321 142.229 C 374.23 141.679 373.35 144.87 375.441 145.421 C 380.944 146.852 383.256 153.236 381.715 158.299 C 379.954 164.132 374.34 168.315 368.727 170.076 C 362.673 171.947 355.959 171.397 350.345 168.315 C 345.062 165.453 339.999 160.94 333.615 160.72 C 328.222 160.5 322.058 163.692 321.728 169.636 C 321.618 171.727 324.92 171.727 325.03 169.636 C 325.36 164.352 332.514 163.362 336.477 164.573 C 339.779 165.563 342.641 167.654 345.502 169.416 C 348.474 171.177 351.446 172.828 354.858 173.708 C 361.242 175.359 368.176 174.589 374.01 171.507 C 379.403 168.755 384.246 163.692 385.347 157.418 C 386.448 151.034 382.925 143.88 376.321 142.229 Z M 304.777 177.01 C 304.777 177.01 304.777 176.9 304.777 177.01 L 304.777 177.01 Z M 307.749 174.919 C 308.3 176.13 308.409 177.561 307.639 178.771 C 307.089 179.652 306.208 180.202 305.108 180.422 C 304.117 180.642 303.016 180.532 302.136 179.982 L 302.026 179.872 C 300.595 180.422 298.724 179.982 297.843 178.551 C 297.733 178.331 297.513 178.001 297.513 177.781 C 297.403 177.34 297.513 176.9 297.733 176.46 C 297.953 175.91 298.173 175.359 298.614 174.919 C 299.384 173.818 300.375 173.048 301.695 172.498 C 303.787 171.507 306.649 172.608 307.749 174.919 Z M 303.016 175.359 C 302.906 175.359 302.796 175.469 302.686 175.469 L 302.576 175.469 L 302.466 175.469 C 302.576 175.469 302.686 175.579 302.906 175.579 C 303.567 175.689 304.007 176.35 304.117 177.01 L 304.227 177.01 L 304.337 177.01 L 304.447 177.01 L 304.557 177.01 C 304.557 177.01 304.667 177.01 304.777 176.9 C 304.777 176.9 304.777 176.9 304.777 176.79 L 304.777 176.68 C 304.777 176.68 304.777 176.68 304.777 176.57 L 304.777 176.46 L 304.777 176.57 L 304.777 176.46 C 304.777 176.46 304.777 176.46 304.777 176.35 L 304.777 176.24 C 304.667 176.13 304.667 176.02 304.557 175.91 C 304.557 175.91 304.557 175.91 304.447 175.8 C 304.337 175.689 304.227 175.579 304.117 175.579 C 304.117 175.579 304.117 175.579 304.007 175.579 C 303.897 175.579 303.787 175.469 303.677 175.359 C 303.787 175.359 303.897 175.359 303.677 175.359 L 303.567 175.359 L 303.457 175.359 C 303.346 175.359 302.906 175.249 303.236 175.249 C 303.456 175.359 303.346 175.249 303.236 175.249 C 303.126 175.249 303.126 175.249 303.016 175.249 C 303.126 175.359 303.126 175.359 303.016 175.359 C 302.906 175.359 303.016 175.359 303.016 175.359 C 303.016 175.359 302.906 175.359 303.016 175.359 Z M 304.887 176.79 L 304.887 176.68 C 304.777 176.68 304.777 176.79 304.887 176.79 Z M 304.777 176.57 C 304.777 176.57 304.777 176.46 304.777 176.57 L 304.777 176.46 L 304.777 176.57 Z M 303.126 175.359 L 303.016 175.359 C 303.126 175.469 303.126 175.359 303.126 175.359 Z M 354.748 16.862 C 354.308 12.679 352.767 8.497 349.795 5.415 C 347.153 2.773 343.631 1.012 339.999 0.352 C 336.036 -0.419 331.634 0.021 328.112 2.223 C 325.03 4.094 320.187 9.928 324.589 12.899 C 326.351 14.11 328.002 11.248 326.24 10.038 C 325.36 9.487 327.671 6.736 328.222 6.185 C 329.322 5.195 330.643 4.424 332.074 3.874 C 335.156 2.883 338.458 2.993 341.43 3.984 C 344.512 4.974 347.263 6.846 349.025 9.597 C 351.226 13.12 351.886 17.412 351.336 21.375 C 350.125 30.4 343.961 37.555 336.477 42.067 C 328.002 47.241 318.426 49.112 309.18 52.414 C 304.227 54.175 299.274 56.706 296.082 60.999 C 293.11 64.961 291.459 70.024 293 74.867 C 293.661 76.849 296.853 75.968 296.192 73.987 C 294.651 69.254 296.962 64.411 300.375 61.109 C 304.227 57.367 309.62 55.606 314.573 54.175 C 324.59 51.093 334.826 48.121 343.081 41.407 C 350.345 35.793 355.629 26.438 354.748 16.862 Z M 290.579 92.478 C 289.918 92.478 289.258 92.478 288.597 92.478 C 288.377 92.478 288.157 92.478 287.937 92.588 C 287.717 92.698 287.607 92.808 287.387 92.919 C 287.277 93.029 287.167 93.249 287.056 93.469 C 286.946 93.689 286.946 93.909 286.946 94.129 C 286.946 94.57 287.056 95.01 287.387 95.34 C 287.717 95.67 288.157 95.78 288.597 95.78 C 289.258 95.78 289.918 95.78 290.579 95.78 C 290.799 95.78 291.019 95.78 291.239 95.67 C 291.459 95.56 291.569 95.45 291.789 95.34 C 291.899 95.23 292.009 95.01 292.12 94.79 C 292.23 94.57 292.23 94.349 292.23 94.129 C 292.23 93.689 292.12 93.249 291.789 92.919 C 291.459 92.588 291.019 92.478 290.579 92.478 Z" fill="currentColor" fill-rule="nonzero"></path>
</svg>