<svg xmlns="http://www.w3.org/2000/svg" viewBox="0 0 2000 2000"><g transform="matrix(1,0,0,-1,0,2000)"><path d="M773.63 417.35C754.15 386.21 718.49 373.38 693.97 388.71C669.45 404.04 665.36 441.72 684.83 472.86C704.31 504.01 739.97 516.83 764.49 501.5C789.01 486.17 793.1 448.5 773.63 417.35" fill="#83331c" fill-rule="nonzero"></path><path d="M830.32 394.71C810.85 363.57 775.19 350.74 750.67 366.07C726.15 381.4 722.06 419.08 741.53 450.22C761 481.37 796.66 494.19 821.18 478.86C845.7 463.53 849.79 425.86 830.32 394.71" fill="#9d3f22" fill-rule="nonzero"></path><path d="M887.02 374.9C867.54 343.75 831.88 330.93 807.36 346.26C782.84 361.59 778.75 399.26 798.22 430.41C817.7 461.56 853.36 474.38 877.88 459.05C902.4 443.72 906.49 406.05 887.02 374.9" fill="#ac4a25" fill-rule="nonzero"></path><path d="M1219.77 415.94C1239.24 384.79 1274.9 371.97 1299.42 387.3C1323.94 402.63 1328.03 440.3 1308.56 471.45C1289.09 502.59 1253.43 515.42 1228.91 500.09C1204.39 484.76 1200.3 447.08 1219.77 415.94" fill="#83331c" fill-rule="nonzero"></path><path d="M1163.07 393.3C1182.55 362.15 1218.21 349.33 1242.73 364.66C1267.25 379.98 1271.34 417.66 1251.87 448.81C1232.4 479.95 1196.73 492.78 1172.21 477.45C1147.69 462.12 1143.6 424.44 1163.07 393.3" fill="#9d3f22" fill-rule="nonzero"></path><path d="M1106.38 373.49C1125.85 342.34 1161.51 329.52 1186.03 344.85C1210.55 360.17 1214.64 397.85 1195.17 429C1175.7 460.14 1140.04 472.96 1115.52 457.64C1091 442.31 1086.91 404.63 1106.38 373.49" fill="#ac4a25" fill-rule="nonzero"></path><path d="M573.67 739.59Q558.66 835.78 584.69 882.98S507.73 832.32 513.56 727.1S512.84 699.39 546.17 727.1" fill="#501d1f" fill-rule="nonzero"></path><path d="M584.69 882.98S477.82 701.75 620.04 515.77S682.29 537.6 680.33 569.74L657.6 816.25S598.21 851.62 584.69 882.98" fill="#663a33" fill-rule="nonzero"></path><path d="M1420.11 739.59Q1435.12 835.78 1409.09 882.98S1486.06 832.32 1480.22 727.1S1480.95 699.39 1447.61 727.1" fill="#501d1f" fill-rule="nonzero"></path><path d="M1409 882.98S1515.86 701.75 1373.65 515.77S1311.39 537.6 1313.36 569.74L1336.09 816.25S1395.48 851.62 1409 882.98" fill="#663a33" fill-rule="nonzero"></path><path d="M939.9 900.62C958.4 893.19 978.12 868.8 987.29 850.83C991 843.65 993.08 835.27 996.45 828.1C1004.06 844.08 1004.15 852.82 1018.4 870.97C1027.92 882.89 1037.95 893.01 1053.17 900.8C1047.28 914.37 1010.79 945.39 996.72 954.73C990.74 952.23 971.55 935.28 966.02 930.52C963.25 928.2 962.21 926.56 959.62 923.79C956.94 920.85 955.55 919.99 952.19 916.78C949.15 914.01 941.98 905.29 939.9 900.62" fill="#fda331" fill-rule="evenodd"></path><path d="M976.29 1684.84C957.58 1678.88 962.67 1654.93 962.67 1634.48L962.67 1506.07C962.67 1496.51 961.09 1484.77 965.8 1477.25C969.33 1471.62 977.55 1465.98 987.87 1469.19C1006.05 1474.91 1001.34 1498.8 1001.34 1519.14L1001.34 1647.55C1001.34 1656.79 1002.91 1669.02 998.59 1676.62C994.85 1683.27 986.07 1687.96 976.29 1684.84" fill="#ffcb43" fill-rule="evenodd"></path><path d="M1092.1 1668.32C1081.84 1665.81 1072.98 1656.57 1077.93 1642.7C1080.74 1634.64 1129.61 1588.2 1137.43 1580.38C1151.3 1566.51 1164.37 1553.44 1178.22 1539.59C1185.19 1532.61 1191.39 1526.42 1198.34 1519.46C1203.59 1514.21 1212.05 1502.87 1225.68 1506.78C1234.76 1509.36 1243.3 1519.46 1238.43 1532.29C1236.17 1538.33 1184.49 1588.44 1178.62 1594.23C1164.53 1608.1 1151.6 1621.17 1137.67 1635.02C1130.69 1642.08 1124.52 1648.19 1117.54 1655.15C1112.21 1660.48 1104.93 1671.36 1092.1 1668.32" fill="#ffcb43" fill-rule="evenodd"></path><path d="M864.47 1668.46C853.51 1665.87 830.18 1639.11 821.42 1630.25C807.55 1616.4 794.48 1603.31 780.61 1589.46C766.76 1575.61 753.69 1562.44 739.82 1548.67C734.26 1543.1 723.62 1535.98 724.48 1523.45C725.26 1512.25 736.07 1503.65 748.19 1506.46C756.41 1508.34 765.65 1519.55 770.52 1524.4L872.31 1626.18C877.62 1631.6 888.51 1639.17 887.19 1651.86C886.08 1662.2 875.98 1671.13 864.47 1668.46" fill="#ffcb43" fill-rule="evenodd"></path><path d="M739.17 1360.27C742.53 1357.77 745.65 1357.26 749.64 1355.69C826.57 1325.17 858.13 1310.65 924.52 1255.41C929.97 1250.92 933.86 1245.65 938.86 1240.89C952.27 1228.35 967.15 1209.6 977.26 1192.82C991.18 1169.83 987.46 1172.51 995.08 1156.51L996.96 1153.23C1024.55 1232.33 1103.03 1290.25 1172.13 1325.17C1184.74 1331.59 1198.31 1337.9 1211.63 1343.43C1218.36 1346.11 1225.38 1348.96 1232.28 1351.64C1235.82 1353.01 1239.12 1354.14 1242.75 1355.53C1246.56 1356.91 1251.14 1357.95 1253.99 1360.21C1233.5 1360.89 1177.22 1354.14 1149.82 1352.41C1136.16 1351.46 1087.83 1389.6 997.91 1389.42C906.28 1389.33 856.22 1353.28 846.62 1352.33C839.2 1351.64 819.13 1354.32 810.5 1355C788.1 1356.73 761.21 1360.21 739.17 1360.27" fill="#551e22" fill-rule="evenodd"></path><path d="M926.34 738.09C876.63 734.72 875.41 737.76 849.23 773.45C849.47 744.75 874.13 723.48 902.3 727.62C907.24 728.33 911.04 729.52 915.45 731.27L923.57 735.14C926.16 737.22 924.7 735.76 926.34 738.09" fill="#75473f" fill-rule="evenodd"></path><path d="M1068.29 738.09C1069.84 736.01 1068.38 737.49 1070.37 735.76C1071.58 734.72 1072.09 734.37 1073.4 733.68C1075.13 732.73 1077.54 731.87 1079.18 731.27C1115.67 717.26 1145.48 742.58 1145.39 773.45C1119.12 736.96 1116.53 734.9 1068.29 738.09" fill="#75473f" fill-rule="evenodd"></path><path d="M1015.22 782.79C1038.54 750.37 1090.86 759.27 1099.76 797.67C1091.81 792.73 1083.93 779.41 1064.48 774.58C1043.48 769.29 1031.28 778.63 1015.22 782.79" fill="#75473f" fill-rule="evenodd"></path><path d="M978.9 693.4C962.57 689.84 952.19 680.43 931.09 685.26C912.15 689.69 904.98 701.44 894.95 708.61C899.98 685.02 929.01 664.61 959.11 677.91C967.15 681.54 976.13 687.87 978.9 693.4" fill="#75473f" fill-rule="evenodd"></path><path d="M1015.81 693.4C1021.61 681.9 1045.56 670.48 1064.66 674.55C1080.9 678 1096.55 693.14 1099.76 708.61C1090 701.62 1083.07 690.19 1064.48 685.53C1043.21 680.08 1032.5 689.6 1015.81 693.4" fill="#75473f" fill-rule="evenodd"></path><path d="M978.72 782.35C959.45 777.59 939.22 763.08 910.87 783.9C904.56 788.57 899.98 794.55 894.95 797.67C898.67 782.02 913.1 767.57 929.1 763.85C949.07 759.09 973.19 771.2 978.72 782.35" fill="#75473f" fill-rule="evenodd"></path><path d="M955.31 732.82C959.98 721.22 979.94 707.15 999.13 707.83C1018.67 708.43 1035.44 723.13 1039.94 736.63C1019.8 724.34 1006.56 711.11 976.04 722.97C968.69 725.8 961.79 730.83 955.31 732.82" fill="#75473f" fill-rule="evenodd"></path><path d="M922.47 639.13C872.76 635.77 871.55 638.8 845.36 674.5C845.61 645.79 870.26 624.53 898.44 628.67C903.37 629.37 907.18 630.57 911.58 632.32L919.7 636.19C922.29 638.27 920.83 636.81 922.47 639.13" fill="#75473f" fill-rule="evenodd"></path><path d="M1064.42 639.13C1065.97 637.05 1064.51 638.54 1066.5 636.81C1067.72 635.77 1068.23 635.42 1069.54 634.73C1071.26 633.78 1073.67 632.91 1075.31 632.32C1111.81 618.31 1141.62 643.63 1141.53 674.5C1115.26 638 1112.67 635.95 1064.42 639.13" fill="#75473f" fill-rule="evenodd"></path><path d="M951.44 633.87C956.11 622.27 976.07 608.19 995.26 608.88C1014.8 609.48 1031.58 624.17 1036.07 637.67C1015.93 625.39 1002.7 612.16 972.18 624.02C964.83 626.85 957.93 631.87 951.44 633.87" fill="#75473f" fill-rule="evenodd"></path><path d="M1193.25 1926.46C1265.77 1927.26 1338.74 1926.54 1411.32 1926.54C1485.48 1926.54 1538.88 1924.11 1604.33 1901.64C1660.16 1882.46 1707.22 1854.73 1745.35 1824.91C1756.31 1816.29 1765.09 1808.23 1774.71 1799.85C1787.08 1789.13 1817.31 1755.37 1826.63 1742.92C1868.52 1687.18 1896.46 1634.24 1914.4 1558.53C1930.06 1492.68 1926.39 1422.45 1926.39 1352.61L1926.39 589.72C1926.39 553.7 1926.93 520.11 1922.24 484.73C1911.12 401.4 1874.94 315.99 1825.14 255.21C1802.05 227.11 1784.89 208.47 1757.87 185.46C1676.99 116.48 1571.6 76.23 1461.35 73.73C1389.55 72.08 1315.81 73.57 1243.76 73.57L589.8 73.57C517.14 73.57 460.99 75.67 396.63 98.3C345.89 116.16 295.46 142 255.45 174.73C215.52 207.47 215.52 209.49 186.16 241.52C140.19 291.72 102.45 371.57 85.85 440.57C69.96 506.58 73.64 576.49 73.64 646.33L73.64 1409.22C73.64 1445.24 73.1 1478.89 77.63 1514.29C89.22 1603.71 123.84 1678.48 174.81 1744.89C221.15 1805.27 289.21 1856.86 358.82 1887.23C411.66 1910.26 472.5 1925.21 537.56 1926.4C610.08 1927.8 684.31 1926.86 756.97 1926.54L752.26 1920.28C750.32 1918.02 750 1917.86 747.49 1915.35C743.88 1911.82 741.86 1908.38 738.25 1904.93L680.38 1843.15C674.75 1836.89 667.01 1829.46 661.2 1823.1C650.48 1811.28 607.88 1769.16 604.05 1760L1358.86 1759.92C1357.3 1762.67 1342.18 1776.52 1338.44 1780.35C1337.49 1781.29 1337.25 1781.53 1336.31 1782.47L1328.09 1790.61C1324.32 1794.38 1321.44 1797.27 1317.75 1800.95C1279.08 1839.62 1237.49 1882.46 1198.66 1920.2L1194.83 1924.11C1193.03 1926.46 1195.29 1922.55 1193.25 1926.46M534.84 1978.15C462.17 1975.48 394.12 1959.97 335.47 1933.43C293.12 1914.33 256.23 1892.1 221.56 1864.54C112.25 1777.46 40.45 1652.42 24.94 1509.36C19.7 1460.89 21.89 1325.51 21.89 1268.82L21.89 657.13C21.89 616.5 20.87 574.61 22.05 534.14C29.87 264.4 236.51 52.2 490.9 24.94C539.15 19.77 674.67 21.89 731.22 21.89L1220.89 21.89C1302.01 21.89 1384.86 20.25 1465.74 22.05C1597.38 24.94 1718.57 77.8 1811.83 164.09C1828.89 179.91 1855.29 209.89 1869.62 228.21C1925.75 300.09 1964.6 393.74 1975 490.68C1980.25 539.53 1978.15 674.21 1978.15 731.14L1978.15 1342.81C1978.15 1470.29 1984.96 1544.44 1933.35 1664.71C1916.29 1704.4 1890.29 1746.13 1864.37 1778.56C1858.74 1785.6 1841.2 1806.99 1835.63 1811.84C1820.29 1825.61 1810.81 1838.38 1788.66 1856.24C1708.7 1920.74 1619.14 1963.74 1509.36 1975.16C1459.17 1980.42 1326.77 1978.29 1268.74 1978.29L657.21 1978.29C617.04 1978.29 574.61 1979.55 534.84 1978.07Z" fill="#551e22" fill-rule="evenodd"></path><path d="M1063.29 1041.62C1058.09 1135.95 1131.74 1211.5 1220.18 1216.35C1315.63 1221.62 1390.83 1147.19 1395.33 1058.31C1400.17 964.43 1326.34 888.78 1238.26 884.29C1143.25 879.44 1068.11 952.41 1063.29 1041.62M1176.18 707.66C1182.31 707.66 1355.64 773.96 1389.73 786.84C1399.49 790.56 1410.73 793.95 1420.07 798.44C1423.17 827.92 1414.18 857.04 1409.09 883.43C1403.29 880.9 1406.66 880.9 1398.18 874.42C1393.95 871.23 1391.27 869.5 1386.78 866.65C1379.61 862.07 1369.06 857.4 1360.58 854.37C1346.15 849.28 1329.97 845.12 1314.59 842.7L1301.89 841.04C1300.85 841.13 1304.3 837.86 1297.48 842.53C1324.28 849.34 1382.98 886.79 1403.2 909.1C1430.43 939.09 1450.23 974.78 1454.31 1031C1458.95 1096.69 1438.13 1150.82 1400.44 1193.09C1392.23 1202.25 1387.38 1206.39 1378.73 1214.69C1358.5 1233.81 1345.97 1237.26 1327.65 1249.97C1347.19 1259.73 1351.42 1257.76 1373.28 1274.27C1420.22 1309.79 1434.41 1372.73 1415.82 1430.83C1409.78 1425.03 1408.56 1413.45 1377.27 1389.24C1362.39 1377.73 1346.41 1368.33 1327.56 1358.46C1232.28 1308.33 1082.98 1269.69 1032.32 1168.28C1013.14 1129.97 1005.97 1079.75 1014.44 1031.77C1022.03 988.7 1031.46 977.13 1051.6 947.56C1086.01 896.99 1128.73 828.69 1161.57 775.18C1171.51 758.94 1174.96 729.52 1176.18 707.66" fill="#a37a71" fill-rule="evenodd"></path><path d="M1186.74 1010.68C1159.76 1048.53 1213.62 1072.83 1229.1 1041.02C1235.58 1027.61 1229.43 1018.63 1223.98 1010.75C1250.01 1014.31 1277.32 1047.75 1272.58 1084.49C1262.8 1159.72 1151.88 1163.17 1138.75 1087.1C1132.27 1049.66 1158.54 1016.46 1186.74 1010.68" fill="#1c1117" fill-rule="evenodd"></path><path d="M804.52 1010.75C833.14 1015.95 858.21 1050.52 852.95 1085.11C841.17 1162.48 729.05 1161.35 718.76 1084.07C714.09 1049.06 738.99 1016.22 767.28 1010.68C762.76 1019.05 755.32 1026.24 762.25 1040.67C772.28 1061.43 801.25 1060.3 809.97 1039.98C816.45 1025.11 808.06 1016.72 804.52 1010.75" fill="#1c1117" fill-rule="evenodd"></path><path d="M804.52 1010.75C808.06 1016.72 816.45 1025.11 809.97 1039.98C801.25 1060.3 772.28 1061.43 762.25 1040.67C755.32 1026.24 762.76 1019.05 767.28 1010.68C738.99 1016.22 714.09 1049.06 718.76 1084.07C729.05 1161.35 841.17 1162.48 852.95 1085.11C858.21 1050.52 833.14 1015.95 804.52 1010.75M598.35 1033.23C606.98 948.16 683.15 875.28 779.98 884.8C866.07 893.36 938.71 969.69 929.1 1066.87C920.63 1152.63 844.12 1225.51 746.78 1215.73C661.2 1207.16 588.48 1130.41 598.35 1033.23" fill="#ffffff" fill-rule="evenodd"></path><path d="M1186.74 1010.68C1158.54 1016.46 1132.27 1049.66 1138.75 1087.1C1151.88 1163.17 1262.8 1159.72 1272.58 1084.49C1277.32 1047.75 1250.01 1014.31 1223.98 1010.75C1229.43 1018.63 1235.58 1027.61 1229.1 1041.02C1213.62 1072.83 1159.76 1048.53 1186.74 1010.68M1063.29 1041.62C1068.11 952.41 1143.25 879.44 1238.26 884.29C1326.34 888.78 1400.17 964.43 1395.33 1058.31C1390.83 1147.19 1315.63 1221.62 1220.18 1216.35C1131.74 1211.5 1058.08 1135.95 1063.29 1041.62" fill="#ffffff" fill-rule="evenodd"></path><path d="M1420.07 798.44S1423.28 756.81 1420.07 747.33L1262.97 747.33L1376.75 804.94L1403.73 810.78Z" fill="#a37a71" fill-rule="evenodd"></path><path d="M1176.41 706.97S1191.82 476.02 993.45 378.3S1366.61 423.76 1421.49 750.37L1340.1 796.92L1254.05 762.93Z" fill="#a37a71" fill-rule="nonzero"></path><path d="M1409.09 883.43S1441.85 789.39 1409.09 697.07" fill="#a37a71" fill-rule="nonzero"></path><path d="M598.35 1033.23C588.48 1130.41 661.2 1207.16 746.78 1215.73C844.12 1225.51 920.63 1152.63 929.1 1066.87C938.71 969.69 866.07 893.36 779.98 884.8C683.15 875.28 606.98 948.16 598.35 1033.23M993.45 378.3Q795.07 476.02 816.81 706.97C819.75 766.7 830.82 775.36 861.58 823.52C883.71 858.17 918.21 915.05 940.61 946.35C946.21 954.14 952.27 962.61 957.21 970.65C991.42 1026.39 987.71 1112.6 961.17 1167.15C927.8 1235.96 846.37 1277.37 777.63 1306.84C718.43 1332.28 654.96 1358.21 605.94 1397.03C591 1408.78 586.24 1420.03 577.41 1430.14C570.86 1419.32 568.96 1383.02 569.97 1368.42C576.46 1273.74 658.5 1255.68 664.83 1249.55L638.12 1233.37C629.02 1227.42 621.67 1220.75 613.73 1214.45C609.66 1211.33 606.29 1207.34 602.75 1203.8C599.63 1200.77 594.81 1196.45 591.95 1192.91C554.86 1147.1 533.77 1101.36 538.61 1031.51C541.11 995.46 550.96 961.99 570.15 933.46C596.78 893.78 637.41 868.38 680.3 848.92C686.25 846.24 692.14 844.34 695.77 840.71C668.02 841.84 629.9 852.64 606.47 866.47C592.19 874.86 590.56 879.26 584.69 882.98C583.5 881.23 582.36 878.45 581.3 874.92C573.83 855.3 557.92 801.56 574.97 733.09L574.98 733.13Q639.62 422.16 993.45 378.3" fill="#a37a71" fill-rule="nonzero"></path><path d="M1034.64 424.12L952.26 424.12C879.93 424.12 821.3 482.75 821.3 555.08L821.3 685.64L1165.59 685.64L1165.59 555.08C1165.59 482.75 1106.96 424.12 1034.64 424.12" fill="#f5d9b9" fill-rule="nonzero"></path><path d="M821.3 679.34L1165.59 679.34L831.53 508.91S821.3 531.96 821.3 562.41Z" fill="#e2caae" fill-rule="nonzero"></path><path d="M1069.73 630.43S918.69 568.89 967.92 457.31S988.76 428.13 1021 424.12L965.89 424.12S876.73 415.01 831.53 508.91" fill="#e2caae" fill-rule="nonzero"></path><path d="M1165.59 685.64C1165.59 652.5 1088.52 625.62 993.45 625.62C898.37 625.62 821.3 652.5 821.3 685.64C821.3 718.79 898.37 745.66 993.45 745.66C1088.52 745.66 1165.59 718.79 1165.59 685.64" fill="#f5d9b9" fill-rule="nonzero"></path><path d="M1151.99 695.02C1151.99 667.05 1081.01 644.37 993.45 644.37C905.89 644.37 834.91 667.05 834.91 695.02C834.91 722.99 905.89 745.66 993.45 745.66C1081.01 745.66 1151.99 722.99 1151.99 695.02" fill="#dba67b" fill-rule="nonzero"></path><path d="M1134.17 679.34C1134.17 660.03 1070.92 644.37 992.89 644.37C914.86 644.37 851.6 660.03 851.6 679.34C851.6 698.65 914.86 714.3 992.89 714.3C1070.92 714.3 1134.17 698.65 1134.17 679.34" fill="#211a12" fill-rule="nonzero"></path><path d="M567.47 784.58S581.09 635.64 755.28 645.01S813.6 653.97 830.03 638.53S840.89 627.25 827.81 612.08S852.31 595.63 831.45 570.62S860.59 543.36 801.57 516.43S669.04 452.29 595.17 618.45S576.33 656.76 567.47 784.58" fill="#73463c" fill-rule="nonzero"></path><path d="M827.81 612.08S756.97 577.78 659.24 612.08C665.78 605.95 761.26 553.83 827.81 612.08" fill="#86564e" fill-rule="nonzero"></path><path d="M832.55 571.97S768.11 528.04 703.66 564.14C710.2 558.01 766 513.71 832.55 571.97" fill="#86564e" fill-rule="nonzero"></path><path d="M1429.13 784.58S1415.51 635.64 1241.33 645.01S1183 653.97 1166.57 638.53S1155.72 627.25 1168.79 612.08S1144.3 595.63 1165.15 570.62S1136.01 543.36 1195.03 516.43S1327.57 452.29 1401.43 618.45S1420.27 656.76 1429.13 784.58" fill="#73463c" fill-rule="nonzero"></path><path d="M1168.79 602.56S1239.64 568.26 1337.36 602.56C1330.83 596.43 1235.34 544.3 1168.79 602.56" fill="#86564e" fill-rule="nonzero"></path><path d="M1164.05 562.45S1228.49 518.52 1292.94 554.62C1286.4 548.49 1230.6 504.19 1164.05 562.45" fill="#86564e" fill-rule="nonzero"></path></g></svg>