<svg xmlns="http://www.w3.org/2000/svg" viewBox="0 0 2000 2000"><g transform="matrix(1,0,0,-1,0,2000)"><path d="M945.28 950.61C962.03 943.88 979.89 921.79 988.19 905.51C991.56 899.02 993.44 891.42 996.49 884.92C1003.39 899.4 1003.47 907.31 1016.37 923.75C1024.99 934.56 1034.07 943.72 1047.86 950.77C1042.53 963.06 1009.48 991.16 996.73 999.62C991.32 997.36 973.94 982 968.93 977.69C966.42 975.59 965.48 974.1 963.14 971.6C960.71 968.93 959.45 968.15 956.4 965.24C953.65 962.74 947.16 954.84 945.28 950.61" fill="#fda331" fill-rule="evenodd"></path><path d="M976.29 1684.84C957.58 1678.88 962.67 1654.93 962.67 1634.48L962.67 1506.07C962.67 1496.51 961.09 1484.77 965.8 1477.25C969.33 1471.62 977.55 1465.98 987.87 1469.19C1006.05 1474.91 1001.34 1498.8 1001.34 1519.14L1001.34 1647.55C1001.34 1656.79 1002.91 1669.02 998.59 1676.62C994.85 1683.27 986.07 1687.96 976.29 1684.84" fill="#ffcb43" fill-rule="evenodd"></path><path d="M1092.1 1668.32C1081.84 1665.81 1072.98 1656.57 1077.93 1642.7C1080.74 1634.64 1129.61 1588.2 1137.43 1580.38C1151.3 1566.51 1164.37 1553.44 1178.22 1539.59C1185.19 1532.61 1191.39 1526.42 1198.34 1519.46C1203.59 1514.21 1212.05 1502.87 1225.68 1506.78C1234.76 1509.36 1243.3 1519.46 1238.43 1532.29C1236.17 1538.33 1184.49 1588.44 1178.62 1594.23C1164.53 1608.1 1151.6 1621.17 1137.67 1635.02C1130.69 1642.08 1124.52 1648.19 1117.54 1655.15C1112.21 1660.48 1104.93 1671.36 1092.1 1668.32" fill="#ffcb43" fill-rule="evenodd"></path><path d="M864.47 1668.46C853.51 1665.87 830.18 1639.11 821.42 1630.25C807.55 1616.4 794.48 1603.31 780.61 1589.46C766.76 1575.61 753.69 1562.44 739.82 1548.67C734.26 1543.1 723.62 1535.98 724.48 1523.45C725.26 1512.25 736.07 1503.65 748.19 1506.46C756.41 1508.34 765.65 1519.55 770.52 1524.4L872.31 1626.18C877.62 1631.6 888.51 1639.17 887.19 1651.86C886.08 1662.2 875.98 1671.13 864.47 1668.46" fill="#ffcb43" fill-rule="evenodd"></path><path d="M763.47 1366.92C766.52 1364.66 769.34 1364.2 772.95 1362.77C842.63 1335.13 871.21 1321.98 931.34 1271.95C936.28 1267.88 939.8 1263.11 944.33 1258.8C956.48 1247.44 969.95 1230.46 979.11 1215.26C991.72 1194.44 988.35 1196.86 995.25 1182.37L996.95 1179.4C1021.95 1251.04 1093.03 1303.5 1155.61 1335.13C1167.03 1340.95 1179.32 1346.66 1191.39 1351.67C1197.48 1354.1 1203.83 1356.68 1210.09 1359.11C1213.3 1360.35 1216.28 1361.37 1219.57 1362.63C1223.02 1363.88 1227.17 1364.82 1229.75 1366.86C1211.19 1367.48 1160.22 1361.37 1135.4 1359.81C1123.03 1358.95 1079.26 1393.48 997.81 1393.32C914.83 1393.24 869.49 1360.59 860.79 1359.73C854.07 1359.11 835.89 1361.53 828.07 1362.15C807.79 1363.72 783.43 1366.86 763.47 1366.92" fill="#a6b2b1" fill-rule="evenodd"></path><path d="M932.99 803.4C887.97 800.36 886.87 803.1 863.15 835.43C863.37 809.43 885.7 790.17 911.22 793.92C915.69 794.56 919.14 795.64 923.13 797.23L930.48 800.74C932.83 802.62 931.51 801.3 932.99 803.4" fill="#a6b2b1" fill-rule="evenodd"></path><path d="M1061.56 803.4C1062.96 801.52 1061.64 802.86 1063.44 801.3C1064.54 800.36 1065 800.03 1066.19 799.41C1067.75 798.55 1069.93 797.77 1071.42 797.23C1104.47 784.54 1131.47 807.47 1131.39 835.43C1107.6 802.38 1105.25 800.52 1061.56 803.4" fill="#a6b2b1" fill-rule="evenodd"></path><path d="M1013.49 843.89C1034.62 814.53 1082 822.59 1090.06 857.36C1082.86 852.89 1075.73 840.83 1058.11 836.46C1039.09 831.67 1028.04 840.12 1013.49 843.89" fill="#a6b2b1" fill-rule="evenodd"></path><path d="M980.59 762.93C965.8 759.7 956.4 751.18 937.3 755.55C920.14 759.56 913.64 770.21 904.56 776.7C909.11 755.33 935.41 736.85 962.67 748.9C969.95 752.19 978.09 757.92 980.59 762.93" fill="#8bb4de" fill-rule="evenodd"></path><path d="M1014.03 762.93C1019.28 752.51 1040.97 742.16 1058.27 745.85C1072.98 748.98 1087.15 762.69 1090.06 776.7C1081.22 770.37 1074.95 760.02 1058.11 755.8C1038.85 750.86 1029.14 759.48 1014.03 762.93" fill="#8bb4de" fill-rule="evenodd"></path><path d="M980.43 843.49C962.98 839.18 944.65 826.03 918.98 844.89C913.26 849.12 909.11 854.54 904.56 857.36C907.93 843.19 921 830.1 935.49 826.73C953.57 822.42 975.42 833.39 980.43 843.49" fill="#a6b2b1" fill-rule="evenodd"></path><path d="M959.23 798.63C963.46 788.13 981.54 775.38 998.92 776C1016.62 776.54 1031.81 789.85 1035.88 802.08C1017.64 790.95 1005.65 778.97 978.01 789.71C971.35 792.28 965.1 796.83 959.23 798.63" fill="#8bb4de" fill-rule="evenodd"></path><path d="M1193.25 1926.46C1265.77 1927.26 1338.74 1926.54 1411.32 1926.54C1485.48 1926.54 1538.88 1924.11 1604.33 1901.64C1660.16 1882.46 1707.22 1854.73 1745.35 1824.91C1756.31 1816.29 1765.09 1808.23 1774.71 1799.85C1787.08 1789.13 1817.31 1755.37 1826.63 1742.92C1868.52 1687.18 1896.46 1634.24 1914.4 1558.53C1930.06 1492.68 1926.39 1422.45 1926.39 1352.61L1926.39 589.72C1926.39 553.7 1926.93 520.11 1922.24 484.73C1911.12 401.4 1874.94 315.99 1825.14 255.21C1802.05 227.11 1784.89 208.47 1757.87 185.46C1676.99 116.48 1571.6 76.23 1461.35 73.73C1389.55 72.08 1315.81 73.57 1243.76 73.57L589.8 73.57C517.14 73.57 460.99 75.67 396.63 98.3C345.89 116.16 295.46 142 255.45 174.73C215.52 207.47 215.52 209.49 186.16 241.52C140.19 291.72 102.45 371.57 85.85 440.57C69.96 506.58 73.64 576.49 73.64 646.33L73.64 1409.22C73.64 1445.24 73.1 1478.89 77.63 1514.29C89.22 1603.71 123.84 1678.48 174.81 1744.89C221.15 1805.27 289.21 1856.86 358.82 1887.23C411.66 1910.26 472.5 1925.21 537.56 1926.4C610.08 1927.8 684.31 1926.86 756.97 1926.54L752.26 1920.28C750.32 1918.02 750 1917.86 747.49 1915.35C743.88 1911.82 741.86 1908.38 738.25 1904.93L680.38 1843.15C674.75 1836.89 667.01 1829.46 661.2 1823.1C650.48 1811.28 607.88 1769.16 604.05 1760L1358.86 1759.92C1357.3 1762.67 1342.18 1776.52 1338.44 1780.35C1337.49 1781.29 1337.25 1781.53 1336.31 1782.47L1328.09 1790.61C1324.32 1794.38 1321.44 1797.27 1317.75 1800.95C1279.08 1839.62 1237.49 1882.46 1198.66 1920.2L1194.83 1924.11C1193.03 1926.46 1195.29 1922.55 1193.25 1926.46M534.84 1978.15C462.17 1975.48 394.12 1959.97 335.47 1933.43C293.12 1914.33 256.23 1892.1 221.56 1864.54C112.25 1777.46 40.45 1652.42 24.94 1509.36C19.7 1460.89 21.89 1325.51 21.89 1268.82L21.89 657.13C21.89 616.5 20.87 574.61 22.05 534.14C29.87 264.4 236.51 52.2 490.9 24.94C539.15 19.77 674.67 21.89 731.22 21.89L1220.89 21.89C1302.01 21.89 1384.86 20.25 1465.74 22.05C1597.38 24.94 1718.57 77.8 1811.83 164.09C1828.89 179.91 1855.29 209.89 1869.62 228.21C1925.75 300.09 1964.6 393.74 1975 490.68C1980.25 539.53 1978.15 674.21 1978.15 731.14L1978.15 1342.81C1978.15 1470.29 1984.96 1544.44 1933.35 1664.71C1916.29 1704.4 1890.29 1746.13 1864.37 1778.56C1858.74 1785.6 1841.2 1806.99 1835.63 1811.84C1820.29 1825.61 1810.81 1838.38 1788.66 1856.24C1708.7 1920.74 1619.14 1963.74 1509.36 1975.16C1459.17 1980.42 1326.77 1978.29 1268.74 1978.29L657.21 1978.29C617.04 1978.29 574.61 1979.55 534.84 1978.07Z" fill="#020407" fill-rule="evenodd"></path><path d="M1168.84 1050.29C1144.4 1084.57 1193.19 1106.58 1207.2 1077.78C1213.08 1065.63 1207.5 1057.49 1202.57 1050.35C1226.14 1053.58 1250.88 1083.87 1246.59 1117.14C1237.73 1185.28 1137.27 1188.4 1125.38 1119.51C1119.51 1085.59 1143.3 1055.53 1168.84 1050.29" fill="#0f0d1c" fill-rule="evenodd"></path><path d="M822.66 1050.35C848.58 1055.07 871.29 1086.38 866.52 1117.71C855.86 1187.78 754.31 1186.76 744.99 1116.76C740.76 1085.05 763.31 1055.31 788.93 1050.3C784.84 1057.87 778.1 1064.39 784.38 1077.46C793.46 1096.26 819.7 1095.24 827.59 1076.83C833.47 1063.36 825.87 1055.77 822.66 1050.35" fill="#0f0d1c" fill-rule="evenodd"></path><path d="M822.66 1050.35C825.87 1055.77 833.47 1063.36 827.59 1076.83C819.7 1095.24 793.46 1096.26 784.38 1077.46C778.1 1064.39 784.84 1057.87 788.93 1050.3C763.31 1055.31 740.76 1085.05 744.99 1116.76C754.31 1186.76 855.86 1187.78 866.52 1117.71C871.29 1086.38 848.58 1055.07 822.66 1050.35M635.92 1070.72C643.74 993.67 712.74 927.66 800.43 936.28C878.41 944.04 944.19 1013.17 935.49 1101.19C927.82 1178.86 858.52 1244.87 770.36 1236.01C692.85 1228.25 626.98 1158.74 635.92 1070.72" fill="#ffffff" fill-rule="evenodd"></path><path d="M1168.84 1050.29C1143.3 1055.53 1119.51 1085.59 1125.38 1119.51C1137.27 1188.4 1237.73 1185.28 1246.59 1117.14C1250.88 1083.87 1226.14 1053.58 1202.57 1050.35C1207.5 1057.49 1213.08 1065.63 1207.2 1077.78C1193.19 1106.58 1144.4 1084.57 1168.84 1050.29M1057.03 1078.32C1061.4 997.52 1129.45 931.43 1215.5 935.82C1295.28 939.89 1362.15 1008.4 1357.76 1093.43C1353.69 1173.93 1285.58 1241.34 1199.12 1236.57C1119.02 1232.18 1052.31 1163.75 1057.03 1078.32" fill="#ffffff" fill-rule="evenodd"></path><path d="M800.43 936.28C712.73 927.66 643.74 993.67 635.92 1070.72C626.98 1158.74 692.85 1228.25 770.36 1236.01C858.52 1244.87 927.82 1178.86 935.49 1101.19C944.19 1013.17 878.41 944.04 800.43 936.28M964.54 1192.01C934.31 1254.33 860.57 1291.84 798.31 1318.53C744.69 1341.57 687.2 1365.06 642.8 1400.22C629.27 1410.86 624.96 1421.04 616.96 1430.2C611.03 1420.4 609.3 1387.53 610.23 1374.3C616.1 1288.55 690.41 1272.19 696.14 1266.64L671.94 1251.99C663.71 1246.59 657.05 1240.56 649.85 1234.85C646.17 1232.02 643.12 1228.41 639.91 1225.21C637.09 1222.46 632.72 1218.55 630.13 1215.34C596.53 1173.85 577.43 1132.42 581.82 1069.16C584.09 1036.5 593.01 1006.2 610.39 980.36C634.5 944.42 671.3 921.41 710.15 903.79C715.54 901.36 720.87 899.64 724.16 896.35C699.02 897.37 664.51 907.15 643.28 919.68C630.35 927.28 628.87 931.27 623.56 934.64C616.34 924.07 611.57 872 612.73 856.5C612.73 856.5 612.27 834.12 611.81 814.52L724.83 814.52C742.31 808.11 759.37 801.57 776.62 795.02C788.99 790.33 822.28 777.32 833.79 775.22C836.45 829.32 846.47 837.16 874.34 880.78C894.38 912.17 925.63 963.68 945.92 992.03C950.99 999.08 956.48 1006.76 960.95 1014.03C991.94 1064.53 988.57 1142.6 964.54 1192.01" fill="#020407" fill-rule="nonzero"></path><path d="M1057.03 1078.32C1052.32 1163.75 1119.02 1232.18 1199.12 1236.57C1285.58 1241.34 1353.69 1173.93 1357.76 1093.43C1362.15 1008.4 1295.28 939.89 1215.5 935.82C1129.45 931.43 1061.4 997.52 1057.03 1078.32M1269.14 897.99C1293.41 904.17 1346.57 938.08 1364.89 958.29C1389.55 985.45 1407.49 1017.78 1411.18 1068.7C1415.39 1128.19 1396.53 1177.22 1362.39 1215.5C1354.95 1223.8 1350.56 1227.55 1342.73 1235.07C1324.4 1252.39 1313.06 1255.51 1296.46 1267.02C1314.16 1275.86 1317.99 1274.08 1337.79 1289.03C1380.31 1321.2 1393.16 1378.21 1376.32 1430.83C1370.85 1425.58 1369.75 1415.09 1341.4 1393.16C1327.93 1382.74 1313.46 1374.22 1296.38 1365.28C1210.09 1319.88 1074.87 1284.88 1028.98 1193.03C1011.6 1158.34 1005.11 1112.85 1012.79 1069.4C1019.66 1030.39 1028.2 1019.91 1046.44 993.13C1077.61 947.32 1116.3 885.47 1146.05 837C1155.05 822.28 1158.17 795.64 1159.27 775.84C1162.3 775.84 1210.26 793.66 1258.29 811.77L1380.17 811.77Q1383.08 820.36 1380.17 858.06C1382.98 884.76 1374.84 911.14 1370.23 935.04C1364.98 932.75 1368.02 932.75 1360.34 926.88C1356.52 923.99 1354.09 922.43 1350.02 919.84C1343.53 915.69 1333.97 911.46 1326.29 908.72C1313.22 904.11 1298.57 900.34 1284.64 898.15L1273.13 896.65C1272.19 896.73 1275.31 893.76 1269.14 897.99" fill="#020407" fill-rule="evenodd"></path><path d="M1000.15 435.58C950.3 435.3 907.23 478.11 907 528.17C906.77 578.08 949.49 621.07 999.55 621.3C1049.5 621.53 1092.47 578.83 1092.69 528.75C1092.9 478.73 1050.32 435.86 1000.15 435.58M1469.27 814.52C1436.17 814.52 1403.08 814.52 1369.99 814.52C1117.26 814.52 864.54 814.52 611.81 814.52C605.75 814.52 599.69 814.52 593.63 814.52C571.39 814.52 549.14 814.56 526.9 814.51C500.19 814.46 499.6 814.21 502.55 786.97C505.36 760.89 509.31 734.93 512.59 708.9C524.03 618.13 535.36 527.35 546.81 436.58C552.19 394 557.76 351.45 563.33 308.17L1435.48 308.17C1437.26 317.37 1439.07 324.57 1440 331.89C1459.03 482.05 1477.97 632.23 1496.89 782.41C1500.88 814.11 1500.48 814.52 1469.27 814.52" fill="#657273" fill-rule="nonzero"></path><path d="M1565.56 271C1188.72 270.57 811.87 270.67 435.02 270.66C431.68 270.66 428.33 270.91 425.01 270.5C408.66 268.5 399.26 252.42 399.13 225.83C399.04 205.72 399.48 185.55 399.46 165.44C437.25 148.66 507.48 130.75 635.11 130.75L1440.01 130.75S1522.42 134.83 1601.37 163.93L1601.37 242.94C1593.27 265.13 1581.03 271.02 1565.56 271" fill="#657273" fill-rule="nonzero"></path></g></svg>