<svg xmlns="http://www.w3.org/2000/svg" width="417.966" height="192.038" viewBox="0 0 417.966 192.038" fill="none">
  <path d="M 42.369 81.3 C 41.073 79.414 44.137 77.646 45.433 79.532 C 55.686 94.381 67.471 107.934 80.789 120.073 C 82.439 121.605 79.964 124.08 78.314 122.548 C 64.761 110.292 52.74 96.385 42.369 81.3 Z M 412.191 59.733 C 398.756 79.296 386.146 99.331 374.243 119.838 C 370.825 125.73 367.525 131.623 364.225 137.516 C 363.164 139.519 366.229 141.287 367.289 139.283 C 378.721 118.541 390.978 98.153 403.942 78.353 C 407.595 72.697 411.366 67.04 415.256 61.5 C 416.552 59.615 413.488 57.847 412.191 59.733 Z M 295.635 0.806 C 290.331 8.702 294.574 20.487 303.413 23.67 C 305.417 24.377 306.242 21.548 304.827 20.488 C 297.874 15.42 287.149 19.073 284.203 26.969 C 283.378 29.091 286.796 30.034 287.621 27.912 C 290.803 19.78 285.382 9.645 276.896 7.642 C 276.778 8.82 276.543 9.999 276.425 11.059 C 283.496 11.884 290.567 9.527 295.87 4.813 C 297.52 3.281 295.046 0.806 293.396 2.338 C 288.799 6.463 282.553 8.231 276.425 7.524 C 274.421 7.288 274.068 10.588 275.953 10.941 C 282.671 12.591 286.678 20.37 284.203 26.851 C 285.382 27.205 286.442 27.441 287.621 27.794 C 289.86 21.902 298.11 19.78 303.06 23.434 C 303.531 22.373 304.002 21.313 304.474 20.252 C 297.638 17.895 294.81 8.584 298.817 2.574 C 299.995 0.688 296.931 -1.079 295.635 0.806 Z M 0.177 163.561 C 1.238 165.682 3.242 166.861 5.245 167.922 C 7.131 168.982 8.663 170.161 9.488 172.164 C 11.02 175.7 10.313 180.178 7.366 182.771 C 8.427 183.242 9.37 183.596 10.431 184.068 C 10.784 180.296 15.027 177.939 18.445 177.821 C 23.395 177.586 27.873 180.414 31.88 182.889 C 32.351 181.828 32.823 180.768 33.294 179.707 C 28.933 177.939 25.869 173.461 25.869 168.747 C 25.869 163.915 28.934 159.672 33.176 157.786 C 34.944 156.961 33.883 154.604 32.233 154.486 C 29.169 154.251 26.694 156.136 24.691 158.14 C 22.57 160.143 20.684 161.911 17.973 162.736 C 12.788 164.268 7.013 162.618 3.713 158.376 C 2.299 156.608 -0.176 159.083 1.238 160.851 C 5.009 165.447 11.256 167.45 17.148 166.507 C 19.977 166.036 22.687 164.857 24.809 162.972 C 27.048 161.086 29.169 157.786 32.469 158.022 C 32.116 156.961 31.88 155.783 31.526 154.722 C 25.987 157.197 22.216 163.09 22.452 169.218 C 22.687 175.464 26.812 180.885 32.469 183.125 C 34.355 183.832 35.533 180.885 33.883 179.943 C 28.816 176.878 23.159 173.579 17.031 174.639 C 12.081 175.464 7.602 179 7.131 184.185 C 7.013 185.835 9.134 186.307 10.195 185.482 C 13.848 182.3 14.909 176.878 13.495 172.4 C 12.788 170.161 11.491 168.157 9.606 166.625 C 7.602 165.093 4.656 164.386 3.477 162.029 C 2.299 159.672 -0.765 161.44 0.177 163.561 Z M 200.881 20.37 C 200.292 40.169 201.824 59.968 205.477 79.414 C 205.949 81.653 209.248 80.71 208.895 78.471 C 205.359 59.261 203.827 39.815 204.417 20.37 C 204.535 18.13 200.999 18.13 200.881 20.37 Z M 410.541 191.021 C 412.309 192.671 415.138 192.199 416.67 190.431 C 417.495 189.371 417.966 188.192 417.966 186.778 C 417.966 185.482 417.613 184.185 417.259 183.007 C 417.023 182.182 416.316 181.71 415.609 181.71 C 413.606 181.593 411.602 181.593 409.717 181.475 C 408.774 181.475 407.949 182.3 407.949 183.243 C 407.949 184.185 408.774 185.01 409.717 185.01 C 411.72 185.128 413.724 185.128 415.609 185.246 C 415.02 184.775 414.43 184.421 413.959 183.95 C 414.077 184.421 414.195 184.892 414.313 185.364 C 414.313 185.599 414.431 185.835 414.431 186.071 L 414.431 186.189 C 414.431 185.953 414.431 185.835 414.431 185.953 C 414.431 186.071 414.431 186.189 414.431 186.307 C 414.431 186.542 414.431 186.778 414.431 187.014 L 414.431 187.132 C 414.431 187.367 414.431 187.25 414.431 187.014 C 414.431 187.014 414.431 187.25 414.313 187.367 C 414.313 187.485 414.313 187.603 414.195 187.721 L 414.195 187.839 C 414.077 188.074 414.195 187.956 414.313 187.721 C 414.195 187.839 414.195 187.957 414.077 188.074 C 414.313 187.721 414.313 187.839 414.195 187.957 C 414.195 188.075 414.077 188.074 414.077 188.074 C 414.077 188.074 413.959 188.192 413.841 188.192 C 414.195 187.839 414.077 187.957 413.959 188.074 C 413.841 188.192 413.723 188.192 413.488 188.31 C 413.252 188.428 413.841 188.192 413.606 188.31 C 413.488 188.31 413.488 188.31 413.37 188.428 C 413.252 188.428 413.252 188.428 413.134 188.428 C 412.781 188.546 413.606 188.428 413.252 188.428 C 413.134 188.428 413.134 188.428 413.016 188.428 C 412.663 188.428 413.134 188.428 413.252 188.428 C 413.252 188.428 413.016 188.428 413.016 188.31 C 412.663 188.192 413.252 188.428 413.134 188.428 C 413.134 188.428 413.016 188.31 412.898 188.31 C 412.781 188.31 413.252 188.664 413.016 188.31 C 412.309 187.603 411.131 187.603 410.541 188.31 C 409.952 189.253 409.834 190.431 410.541 191.021 Z M 177.9 63.268 C 180.375 71.4 182.849 79.65 185.324 87.782 C 186.031 89.903 189.449 89.078 188.742 86.839 C 186.267 78.707 183.792 70.457 181.317 62.325 C 180.728 60.204 177.311 61.147 177.9 63.268 Z M 75.721 99.92 C 79.021 103.22 82.203 106.402 85.503 109.702 C 86.21 110.409 87.389 110.409 87.978 109.702 C 88.567 108.995 88.685 107.935 87.978 107.227 C 84.678 103.928 81.496 100.745 78.196 97.446 C 77.489 96.738 76.31 96.738 75.721 97.446 C 75.132 98.035 75.014 99.213 75.721 99.92 Z M 368.822 92.849 C 364.932 98.742 361.161 104.634 357.272 110.527 C 355.976 112.413 359.04 114.181 360.336 112.295 C 364.225 106.402 367.996 100.51 371.886 94.617 C 373.182 92.731 370.118 90.846 368.822 92.849 Z" fill="currentColor" fill-rule="nonzero"></path>
</svg>