<svg xmlns="http://www.w3.org/2000/svg" width="21.500" height="21.453" viewBox="0 0 21.500 21.453" fill="none">
  <path d="M 10.72 21.452 C 10.272 21.454 9.829 21.369 9.413 21.203 L 1.222 17.921 C 0.861 17.776 0.552 17.527 0.334 17.205 C 0.116 16.883 0 16.503 0 16.115 C 0 15.726 0.116 15.346 0.334 15.024 C 0.552 14.703 0.861 14.453 1.222 14.309 C 1.314 14.268 1.414 14.247 1.516 14.247 C 1.617 14.246 1.717 14.266 1.81 14.305 C 1.903 14.344 1.988 14.402 2.058 14.474 C 2.128 14.547 2.183 14.633 2.219 14.728 C 2.258 14.824 2.277 14.927 2.274 15.03 C 2.27 15.134 2.245 15.235 2.2 15.328 C 2.155 15.421 2.091 15.504 2.011 15.571 C 1.932 15.637 1.84 15.687 1.741 15.716 C 1.657 15.749 1.586 15.808 1.537 15.882 C 1.487 15.957 1.46 16.045 1.461 16.135 C 1.459 16.225 1.485 16.313 1.535 16.388 C 1.585 16.463 1.657 16.521 1.741 16.554 L 9.942 19.826 C 10.422 20.02 10.958 20.02 11.438 19.826 L 19.7 16.534 C 19.784 16.501 19.855 16.443 19.905 16.368 C 19.955 16.293 19.981 16.205 19.979 16.115 C 19.976 16.028 19.948 15.945 19.898 15.874 C 19.849 15.803 19.78 15.748 19.7 15.716 C 19.604 15.681 19.517 15.626 19.444 15.556 C 19.37 15.486 19.312 15.402 19.273 15.308 C 19.233 15.214 19.214 15.114 19.215 15.012 C 19.216 14.911 19.239 14.81 19.281 14.718 C 19.317 14.623 19.372 14.537 19.442 14.464 C 19.512 14.392 19.597 14.334 19.69 14.295 C 19.783 14.256 19.883 14.236 19.984 14.237 C 20.086 14.237 20.186 14.258 20.278 14.299 C 20.639 14.443 20.948 14.693 21.166 15.014 C 21.384 15.336 21.5 15.716 21.5 16.105 C 21.5 16.493 21.384 16.873 21.166 17.195 C 20.948 17.517 20.639 17.766 20.278 17.911 L 12.027 21.203 C 11.611 21.369 11.168 21.454 10.72 21.452 L 10.72 21.452 Z M 10.72 16.065 C 10.272 16.062 9.828 15.974 9.413 15.805 L 1.222 12.533 C 0.861 12.388 0.552 12.139 0.334 11.817 C 0.116 11.495 0 11.115 0 10.727 C 0 10.338 0.116 9.959 0.334 9.637 C 0.552 9.315 0.861 9.066 1.222 8.921 L 2.219 8.532 C 2.312 8.491 2.411 8.47 2.512 8.468 C 2.612 8.467 2.712 8.486 2.805 8.524 C 2.898 8.562 2.983 8.619 3.054 8.691 C 3.124 8.762 3.18 8.847 3.217 8.941 C 3.256 9.034 3.276 9.134 3.276 9.234 C 3.276 9.335 3.256 9.435 3.217 9.528 C 3.178 9.621 3.121 9.705 3.049 9.775 C 2.977 9.846 2.892 9.901 2.798 9.939 L 1.8 10.328 C 1.716 10.361 1.645 10.418 1.595 10.493 C 1.545 10.568 1.519 10.657 1.521 10.747 C 1.52 10.837 1.547 10.925 1.596 10.999 C 1.646 11.074 1.717 11.132 1.8 11.166 L 10.002 14.438 C 10.482 14.633 11.018 14.633 11.498 14.438 L 19.7 11.146 C 19.783 11.112 19.854 11.054 19.904 10.979 C 19.953 10.905 19.98 10.817 19.979 10.727 C 19.981 10.637 19.955 10.548 19.905 10.473 C 19.855 10.398 19.784 10.341 19.7 10.308 L 18.702 9.919 C 18.61 9.883 18.526 9.829 18.456 9.761 C 18.385 9.692 18.328 9.61 18.288 9.52 C 18.249 9.43 18.228 9.333 18.226 9.234 C 18.224 9.136 18.242 9.038 18.278 8.946 C 18.314 8.854 18.368 8.771 18.436 8.7 C 18.504 8.629 18.586 8.572 18.676 8.532 C 18.767 8.493 18.864 8.472 18.962 8.47 C 19.061 8.468 19.159 8.486 19.251 8.522 L 20.248 8.921 C 20.609 9.066 20.918 9.315 21.136 9.637 C 21.354 9.959 21.47 10.338 21.47 10.727 C 21.47 11.115 21.354 11.495 21.136 11.817 C 20.918 12.139 20.609 12.388 20.248 12.533 L 12.057 15.805 C 11.633 15.978 11.178 16.066 10.72 16.065 L 10.72 16.065 Z M 10.72 10.727 C 10.272 10.725 9.828 10.637 9.413 10.467 L 1.222 7.145 C 0.861 7 0.552 6.751 0.334 6.429 C 0.116 6.107 0 5.728 0 5.339 C 0 4.951 0.116 4.571 0.334 4.249 C 0.552 3.927 0.861 3.678 1.222 3.533 L 9.413 0.251 C 10.252 -0.084 11.188 -0.084 12.027 0.251 L 20.218 3.533 C 20.579 3.678 20.888 3.927 21.106 4.249 C 21.324 4.571 21.44 4.951 21.44 5.339 C 21.44 5.728 21.324 6.107 21.106 6.429 C 20.888 6.751 20.579 7 20.218 7.145 L 12.027 10.418 C 11.615 10.604 11.172 10.709 10.72 10.727 L 10.72 10.727 Z M 9.972 9.081 C 10.452 9.275 10.988 9.275 11.468 9.081 L 19.7 5.738 C 19.783 5.704 19.854 5.646 19.904 5.572 C 19.953 5.497 19.98 5.409 19.979 5.319 C 19.977 5.233 19.949 5.148 19.9 5.077 C 19.85 5.006 19.78 4.952 19.7 4.92 L 11.468 1.638 C 10.988 1.443 10.452 1.443 9.972 1.638 L 1.741 4.92 C 1.657 4.953 1.585 5.011 1.535 5.086 C 1.485 5.161 1.459 5.249 1.461 5.339 C 1.464 5.426 1.492 5.509 1.542 5.58 C 1.592 5.651 1.66 5.706 1.741 5.738 L 9.972 9.081 Z" fill="currentColor" fill-rule="nonzero"></path>
</svg>