<svg xmlns="http://www.w3.org/2000/svg" width="22" height="22" viewBox="0 0 22 22" fill="none">
  <path d="M 11 1.433 C 12.892 1.433 14.742 1.994 16.315 3.045 C 17.889 4.096 19.115 5.59 19.839 7.339 C 20.563 9.087 20.753 11.011 20.384 12.867 C 20.014 14.722 19.103 16.427 17.765 17.765 C 16.427 19.103 14.722 20.014 12.867 20.384 C 11.011 20.753 9.087 20.563 7.339 19.839 C 5.59 19.115 4.096 17.889 3.045 16.315 C 1.994 14.742 1.433 12.892 1.433 11 C 1.433 8.463 2.441 6.029 4.235 4.235 C 6.029 2.441 8.463 1.433 11 1.433 M 11 9.619 L 8.299 6.907 C 8.109 6.731 7.861 6.634 7.603 6.634 C 7.345 6.634 7.096 6.731 6.907 6.907 C 6.731 7.096 6.634 7.345 6.634 7.603 C 6.634 7.861 6.731 8.109 6.907 8.299 L 9.649 11 L 6.907 13.701 C 6.731 13.891 6.634 14.139 6.634 14.397 C 6.634 14.655 6.731 14.904 6.907 15.093 C 7.094 15.26 7.337 15.352 7.587 15.352 C 7.838 15.352 8.081 15.26 8.268 15.093 L 11 12.351 L 13.701 15.093 C 13.891 15.269 14.139 15.366 14.397 15.366 C 14.655 15.366 14.904 15.269 15.093 15.093 C 15.26 14.906 15.352 14.663 15.352 14.413 C 15.352 14.162 15.26 13.919 15.093 13.732 L 12.351 11 L 15.093 8.299 C 15.269 8.109 15.366 7.861 15.366 7.603 C 15.366 7.345 15.269 7.096 15.093 6.907 C 14.906 6.74 14.663 6.648 14.413 6.648 C 14.162 6.648 13.919 6.74 13.732 6.907 L 11 9.649 M 11 0 C 8.824 0 6.698 0.645 4.889 1.854 C 3.08 3.063 1.67 4.78 0.837 6.79 C 0.005 8.8 -0.213 11.012 0.211 13.146 C 0.636 15.28 1.683 17.24 3.222 18.778 C 4.76 20.317 6.72 21.364 8.854 21.789 C 10.988 22.213 13.2 21.995 15.21 21.163 C 17.22 20.33 18.937 18.92 20.146 17.111 C 21.355 15.302 22 13.176 22 11 C 21.997 8.083 20.837 5.287 18.775 3.225 C 16.713 1.163 13.917 0.003 11 0 L 11 0 Z" fill="currentColor" fill-rule="nonzero"></path>
</svg>