<svg xmlns="http://www.w3.org/2000/svg" width="21.500" height="21.500" viewBox="0 0 21.500 21.500" fill="none">
  <path d="M 21.5 6.56 L 21.5 14.94 C 21.5 16.68 20.809 18.348 19.579 19.579 C 18.348 20.809 16.68 21.5 14.94 21.5 L 6.56 21.5 C 4.82 21.5 3.152 20.809 1.921 19.579 C 0.691 18.348 0 16.68 0 14.94 L 0 6.56 C 0 4.82 0.691 3.152 1.921 1.921 C 3.152 0.691 4.82 0 6.56 0 L 14.94 0 C 16.68 0 18.348 0.691 19.579 1.921 C 20.809 3.152 21.5 4.82 21.5 6.56 L 21.5 6.56 Z M 1.5 14.94 C 1.503 16.281 2.037 17.567 2.985 18.515 C 3.933 19.463 5.219 19.997 6.56 20 L 14.94 20 C 16.281 19.997 17.567 19.463 18.515 18.515 C 19.463 17.567 19.997 16.281 20 14.94 L 20 6.56 C 19.997 5.219 19.463 3.933 18.515 2.985 C 17.567 2.037 16.281 1.503 14.94 1.5 L 6.56 1.5 C 5.219 1.503 3.933 2.037 2.985 2.985 C 2.037 3.933 1.503 5.219 1.5 6.56 L 1.5 14.94 Z M 15.04 9.04 C 14.853 8.854 14.599 8.749 14.335 8.749 C 14.071 8.749 13.817 8.854 13.63 9.04 L 10.75 11.81 L 7.95 8.89 C 7.862 8.784 7.754 8.697 7.631 8.635 C 7.509 8.572 7.374 8.536 7.237 8.528 C 7.1 8.52 6.962 8.541 6.833 8.588 C 6.704 8.636 6.586 8.709 6.487 8.804 C 6.387 8.9 6.309 9.014 6.256 9.141 C 6.203 9.268 6.177 9.405 6.179 9.542 C 6.181 9.68 6.212 9.815 6.269 9.941 C 6.326 10.066 6.408 10.178 6.51 10.27 L 10 13.92 C 10.091 14.015 10.199 14.091 10.319 14.145 C 10.439 14.198 10.569 14.227 10.7 14.23 C 10.964 14.234 11.22 14.134 11.41 13.95 L 15.06 10.46 C 15.159 10.366 15.237 10.253 15.29 10.127 C 15.344 10.002 15.371 9.866 15.37 9.73 C 15.356 9.465 15.237 9.217 15.04 9.04 L 15.04 9.04 Z" fill="currentColor" fill-rule="nonzero"></path>
</svg>