<svg xmlns="http://www.w3.org/2000/svg" width="21.500" height="21.401" viewBox="0 0 21.500 21.401" fill="none">
  <path d="M 7.571 9.975 L 2.603 9.975 C 1.948 9.962 1.324 9.693 0.865 9.224 C 0.406 8.756 0.149 8.127 0.149 7.471 L 0.149 2.504 C 0.159 1.847 0.428 1.22 0.896 0.759 C 1.365 0.298 1.996 0.04 2.653 0.04 L 7.62 0.04 C 8.284 0.04 8.921 0.304 9.391 0.773 C 9.86 1.243 10.124 1.879 10.124 2.543 L 10.124 7.511 C 10.119 7.841 10.049 8.166 9.917 8.469 C 9.786 8.771 9.596 9.045 9.359 9.273 C 9.122 9.502 8.842 9.682 8.535 9.803 C 8.228 9.923 7.9 9.982 7.571 9.975 Z M 18.957 9.975 L 13.989 9.975 C 13.325 9.975 12.688 9.711 12.219 9.242 C 11.749 8.772 11.485 8.135 11.485 7.471 L 11.485 2.504 C 11.485 1.84 11.749 1.203 12.219 0.733 C 12.688 0.264 13.325 0 13.989 0 L 18.957 0 C 19.621 0 20.257 0.264 20.727 0.733 C 21.196 1.203 21.46 1.84 21.46 2.504 L 21.46 7.471 C 21.46 8.127 21.203 8.756 20.745 9.224 C 20.286 9.693 19.662 9.962 19.006 9.975 L 18.957 9.975 Z M 18.897 21.401 L 14.078 21.401 C 13.414 21.401 12.777 21.137 12.308 20.667 C 11.838 20.198 11.575 19.561 11.575 18.897 L 11.575 13.929 C 11.575 13.265 11.838 12.628 12.308 12.159 C 12.777 11.689 13.414 11.426 14.078 11.426 L 18.996 11.426 C 19.66 11.426 20.297 11.689 20.767 12.159 C 21.236 12.628 21.5 13.265 21.5 13.929 L 21.5 18.897 C 21.5 19.561 21.236 20.198 20.767 20.667 C 20.297 21.137 19.66 21.401 18.996 21.401 L 18.897 21.401 Z M 7.471 21.401 L 2.504 21.401 C 1.84 21.401 1.203 21.137 0.733 20.667 C 0.264 20.198 0 19.561 0 18.897 L 0 13.929 C 0 13.265 0.264 12.628 0.733 12.159 C 1.203 11.689 1.84 11.426 2.504 11.426 L 7.471 11.426 C 8.135 11.426 8.772 11.689 9.242 12.159 C 9.711 12.628 9.975 13.265 9.975 13.929 L 9.975 18.897 C 9.976 19.544 9.725 20.166 9.277 20.633 C 8.829 21.1 8.217 21.375 7.571 21.401 L 7.471 21.401 Z" fill="currentColor" fill-rule="nonzero"></path>
</svg>