<svg xmlns="http://www.w3.org/2000/svg" width="18.587" height="21.500" viewBox="0 0 18.587 21.500" fill="none">
  <path d="M 15.696 0 L 2.992 0 C 2.198 0 1.437 0.315 0.876 0.876 C 0.315 1.437 0 2.198 0 2.992 L 0 5.435 C 0.006 6.211 0.313 6.955 0.858 7.509 L 4.607 11.308 C 5.179 11.887 5.498 12.668 5.494 13.482 L 5.494 18.717 C 5.493 19.228 5.633 19.729 5.899 20.166 C 6.165 20.602 6.546 20.957 7 21.19 C 7.455 21.424 7.964 21.529 8.474 21.493 C 8.984 21.458 9.474 21.284 9.892 20.991 L 11.248 19.993 C 11.596 19.748 11.88 19.422 12.076 19.044 C 12.272 18.665 12.375 18.246 12.375 17.82 L 12.375 13.631 C 12.371 13.198 12.457 12.768 12.629 12.369 C 12.801 11.971 13.054 11.613 13.372 11.318 L 17.59 7.559 C 17.902 7.28 18.152 6.939 18.324 6.557 C 18.495 6.176 18.585 5.763 18.587 5.345 L 18.587 2.952 C 18.578 2.182 18.272 1.446 17.733 0.896 C 17.194 0.347 16.465 0.026 15.696 0 Z" fill="currentColor" fill-rule="nonzero"></path>
</svg>