<svg xmlns="http://www.w3.org/2000/svg" width="21.500" height="21.468" viewBox="0 0 21.500 21.468" fill="none">
  <path d="M 18.093 6.815 C 17.418 6.815 16.759 6.615 16.198 6.24 C 15.638 5.865 15.201 5.332 14.944 4.709 C 14.686 4.086 14.619 3.4 14.751 2.739 C 14.884 2.078 15.209 1.471 15.687 0.994 C 16.164 0.518 16.772 0.195 17.434 0.064 C 18.096 -0.066 18.781 0.003 19.404 0.262 C 20.026 0.522 20.557 0.96 20.931 1.522 C 21.304 2.083 21.502 2.743 21.5 3.417 C 21.497 4.319 21.137 5.184 20.498 5.82 C 19.86 6.457 18.995 6.815 18.093 6.815 Z M 18.093 1.518 C 17.717 1.518 17.35 1.629 17.037 1.838 C 16.725 2.047 16.481 2.343 16.337 2.69 C 16.194 3.038 16.156 3.42 16.229 3.788 C 16.303 4.157 16.484 4.495 16.749 4.761 C 17.015 5.026 17.353 5.207 17.722 5.281 C 18.09 5.354 18.472 5.316 18.82 5.173 C 19.167 5.029 19.463 4.785 19.672 4.473 C 19.881 4.161 19.992 3.793 19.992 3.417 C 19.996 3.165 19.95 2.915 19.856 2.681 C 19.763 2.447 19.623 2.234 19.447 2.055 C 19.27 1.875 19.059 1.732 18.827 1.635 C 18.594 1.538 18.345 1.488 18.093 1.488 L 18.093 1.518 Z M 12.263 20.525 L 13.338 18.997 C 13.392 18.922 13.463 18.862 13.545 18.82 C 13.628 18.778 13.718 18.756 13.811 18.756 L 15.338 18.756 C 16.78 18.745 18.158 18.164 19.172 17.139 C 20.185 16.114 20.751 14.729 20.746 13.288 L 20.746 8.101 C 20.746 7.902 20.667 7.71 20.525 7.568 C 20.384 7.427 20.192 7.348 19.992 7.348 C 19.792 7.348 19.601 7.427 19.459 7.568 C 19.318 7.71 19.238 7.902 19.238 8.101 L 19.238 13.288 C 19.236 14.329 18.821 15.328 18.084 16.064 C 17.348 16.801 16.35 17.215 15.308 17.218 L 13.811 17.218 C 13.476 17.213 13.146 17.291 12.849 17.445 C 12.553 17.6 12.299 17.826 12.112 18.103 L 11.036 19.63 C 10.959 19.729 10.861 19.808 10.749 19.863 C 10.636 19.917 10.513 19.946 10.388 19.946 C 10.263 19.946 10.14 19.917 10.028 19.863 C 9.915 19.808 9.817 19.729 9.74 19.63 L 8.684 18.103 C 8.493 17.829 8.239 17.606 7.943 17.452 C 7.648 17.298 7.319 17.218 6.986 17.218 L 5.438 17.218 C 4.396 17.215 3.398 16.801 2.662 16.064 C 1.925 15.328 1.51 14.329 1.508 13.288 L 1.508 6.141 C 1.508 5.099 1.922 4.099 2.659 3.362 C 3.396 2.625 4.395 2.211 5.438 2.211 L 13.399 2.211 C 13.598 2.211 13.79 2.132 13.932 1.991 C 14.073 1.849 14.152 1.657 14.152 1.457 C 14.152 1.258 14.073 1.066 13.932 0.924 C 13.79 0.783 13.598 0.704 13.399 0.704 L 5.438 0.704 C 3.996 0.706 2.615 1.28 1.596 2.299 C 0.576 3.318 0.003 4.7 0 6.141 L 0 13.288 C 0.003 14.729 0.576 16.111 1.596 17.13 C 2.615 18.149 3.996 18.723 5.438 18.726 L 6.966 18.726 C 7.058 18.726 7.149 18.748 7.231 18.79 C 7.313 18.832 7.384 18.892 7.438 18.967 L 8.514 20.495 C 8.725 20.796 9.006 21.041 9.332 21.21 C 9.658 21.38 10.021 21.468 10.388 21.468 C 10.756 21.468 11.118 21.38 11.444 21.21 C 11.771 21.041 12.051 20.796 12.263 20.495 L 12.263 20.525 Z M 6.533 9.167 C 6.335 9.167 6.14 9.226 5.975 9.336 C 5.81 9.447 5.681 9.604 5.605 9.787 C 5.529 9.971 5.509 10.173 5.548 10.368 C 5.586 10.563 5.682 10.742 5.823 10.883 C 5.963 11.023 6.142 11.119 6.337 11.158 C 6.532 11.197 6.734 11.177 6.918 11.101 C 7.102 11.025 7.259 10.896 7.369 10.73 C 7.48 10.565 7.539 10.371 7.539 10.172 C 7.539 9.905 7.433 9.65 7.244 9.461 C 7.056 9.273 6.8 9.167 6.533 9.167 Z M 10.383 9.167 C 10.184 9.167 9.99 9.226 9.825 9.336 C 9.659 9.447 9.531 9.604 9.454 9.787 C 9.378 9.971 9.359 10.173 9.397 10.368 C 9.436 10.563 9.532 10.742 9.672 10.883 C 9.813 11.023 9.992 11.119 10.187 11.158 C 10.382 11.197 10.584 11.177 10.768 11.101 C 10.951 11.025 11.108 10.896 11.219 10.73 C 11.329 10.565 11.388 10.371 11.388 10.172 C 11.388 10.04 11.362 9.909 11.312 9.787 C 11.261 9.665 11.187 9.555 11.094 9.461 C 11.001 9.368 10.89 9.294 10.768 9.243 C 10.646 9.193 10.515 9.167 10.383 9.167 Z M 10.383 9.167 C 10.184 9.167 9.99 9.226 9.825 9.336 C 9.659 9.447 9.531 9.604 9.454 9.787 C 9.378 9.971 9.359 10.173 9.397 10.368 C 9.436 10.563 9.532 10.742 9.672 10.883 C 9.813 11.023 9.992 11.119 10.187 11.158 C 10.382 11.197 10.584 11.177 10.768 11.101 C 10.951 11.025 11.108 10.896 11.219 10.73 C 11.329 10.565 11.388 10.371 11.388 10.172 C 11.388 10.04 11.362 9.909 11.312 9.787 C 11.261 9.665 11.187 9.555 11.094 9.461 C 11.001 9.368 10.89 9.294 10.768 9.243 C 10.646 9.193 10.515 9.167 10.383 9.167 Z M 14.243 9.167 C 14.044 9.167 13.85 9.226 13.684 9.336 C 13.519 9.447 13.39 9.604 13.314 9.787 C 13.238 9.971 13.218 10.173 13.257 10.368 C 13.296 10.563 13.392 10.742 13.532 10.883 C 13.673 11.023 13.852 11.119 14.047 11.158 C 14.242 11.197 14.444 11.177 14.628 11.101 C 14.811 11.025 14.968 10.896 15.079 10.73 C 15.189 10.565 15.248 10.371 15.248 10.172 C 15.248 10.04 15.222 9.909 15.171 9.787 C 15.121 9.665 15.047 9.555 14.954 9.461 C 14.86 9.368 14.749 9.294 14.628 9.243 C 14.506 9.193 14.375 9.167 14.243 9.167 Z" fill="currentColor" fill-rule="nonzero"></path>
</svg>