<svg xmlns="http://www.w3.org/2000/svg" width="21.857" height="22" viewBox="0 0 21.857 22" fill="none">
  <path d="M 16.383 15.576 L 16.383 8.835 C 16.38 7.982 16.04 7.166 15.437 6.563 C 14.834 5.96 14.018 5.62 13.165 5.617 L 3.973 5.617 L 3.973 4.749 C 3.973 3.495 4.469 2.292 5.353 1.402 C 6.237 0.512 7.437 0.008 8.692 0 L 17.108 0 C 18.367 0 19.575 0.5 20.466 1.391 C 21.357 2.282 21.857 3.49 21.857 4.749 L 21.857 10.877 C 21.854 12.126 21.36 13.324 20.48 14.211 C 19.601 15.098 18.408 15.603 17.159 15.617 L 16.383 15.576 Z M 13.165 4.085 C 14.425 4.085 15.633 4.586 16.524 5.476 C 17.414 6.367 17.915 7.575 17.915 8.835 L 17.915 13.941 C 18.596 13.765 19.201 13.37 19.637 12.816 C 20.072 12.263 20.314 11.582 20.325 10.877 L 20.325 4.749 C 20.322 3.897 19.982 3.08 19.38 2.477 C 18.777 1.875 17.96 1.535 17.108 1.532 L 8.692 1.532 C 7.952 1.531 7.235 1.786 6.662 2.253 C 6.089 2.72 5.694 3.371 5.546 4.096 L 13.165 4.085 Z M 8.957 22 C 8.624 22.002 8.295 21.921 7.999 21.767 C 7.703 21.612 7.45 21.387 7.262 21.111 L 6.343 19.814 C 6.311 19.765 6.267 19.725 6.215 19.698 C 6.163 19.672 6.105 19.659 6.046 19.661 L 4.8 19.661 C 4.172 19.668 3.549 19.55 2.967 19.314 C 2.385 19.079 1.855 18.73 1.409 18.288 C 0.963 17.847 0.608 17.321 0.366 16.741 C 0.124 16.162 0 15.54 0 14.912 L 0 8.835 C 0 8.207 0.124 7.585 0.366 7.005 C 0.608 6.426 0.963 5.9 1.409 5.458 C 1.855 5.017 2.385 4.668 2.967 4.432 C 3.549 4.197 4.172 4.079 4.8 4.085 L 13.216 4.085 C 14.476 4.085 15.684 4.586 16.575 5.476 C 17.465 6.367 17.966 7.575 17.966 8.835 L 17.966 14.912 C 17.966 16.171 17.465 17.379 16.575 18.27 C 15.684 19.161 14.476 19.661 13.216 19.661 L 11.868 19.661 C 11.81 19.66 11.752 19.673 11.7 19.7 C 11.649 19.727 11.604 19.766 11.572 19.814 L 10.653 21.111 C 10.464 21.387 10.211 21.612 9.916 21.767 C 9.62 21.921 9.291 22.002 8.957 22 Z M 4.8 5.617 C 4.374 5.612 3.951 5.691 3.555 5.85 C 3.159 6.009 2.799 6.245 2.495 6.545 C 2.191 6.844 1.95 7.2 1.785 7.593 C 1.619 7.986 1.533 8.408 1.532 8.835 L 1.532 14.912 C 1.529 15.34 1.612 15.765 1.776 16.161 C 1.939 16.557 2.181 16.917 2.485 17.218 C 2.789 17.52 3.151 17.758 3.549 17.918 C 3.946 18.077 4.372 18.156 4.8 18.149 L 6.046 18.149 C 6.351 18.148 6.652 18.221 6.922 18.361 C 7.193 18.502 7.425 18.706 7.599 18.956 L 8.508 20.192 C 8.559 20.264 8.626 20.323 8.704 20.364 C 8.782 20.405 8.869 20.427 8.957 20.427 C 9.046 20.427 9.132 20.405 9.211 20.364 C 9.289 20.323 9.356 20.264 9.407 20.192 L 10.316 18.895 C 10.496 18.656 10.731 18.464 11.001 18.334 C 11.272 18.204 11.569 18.141 11.868 18.149 L 13.165 18.149 C 14.019 18.149 14.837 17.811 15.44 17.207 C 16.044 16.604 16.383 15.785 16.383 14.932 L 16.383 8.835 C 16.38 7.982 16.04 7.166 15.437 6.563 C 14.834 5.96 14.018 5.62 13.165 5.617 L 4.8 5.617 Z M 5.393 11 C 5.203 11 5.017 11.056 4.859 11.162 C 4.701 11.267 4.578 11.417 4.506 11.593 C 4.433 11.768 4.414 11.961 4.451 12.147 C 4.488 12.334 4.58 12.505 4.714 12.639 C 4.848 12.773 5.019 12.865 5.205 12.902 C 5.392 12.939 5.585 12.92 5.76 12.847 C 5.936 12.774 6.086 12.651 6.191 12.493 C 6.297 12.336 6.353 12.15 6.353 11.96 C 6.35 11.706 6.248 11.464 6.069 11.284 C 5.889 11.105 5.647 11.003 5.393 11 Z M 8.967 11 C 8.779 10.996 8.595 11.048 8.436 11.149 C 8.277 11.249 8.151 11.394 8.074 11.566 C 7.996 11.737 7.971 11.927 8.001 12.113 C 8.031 12.299 8.115 12.472 8.242 12.61 C 8.37 12.748 8.535 12.846 8.717 12.892 C 8.9 12.937 9.092 12.928 9.269 12.865 C 9.446 12.802 9.601 12.689 9.715 12.539 C 9.828 12.389 9.895 12.209 9.907 12.021 C 9.914 11.892 9.895 11.763 9.851 11.641 C 9.807 11.52 9.74 11.408 9.652 11.313 C 9.565 11.218 9.459 11.141 9.341 11.087 C 9.224 11.034 9.097 11.004 8.967 11 Z M 12.532 11 C 12.342 11 12.157 11.056 11.999 11.162 C 11.841 11.267 11.718 11.417 11.645 11.593 C 11.572 11.768 11.553 11.961 11.59 12.147 C 11.627 12.334 11.719 12.505 11.853 12.639 C 11.987 12.773 12.158 12.865 12.345 12.902 C 12.531 12.939 12.724 12.92 12.899 12.847 C 13.075 12.774 13.225 12.651 13.33 12.493 C 13.436 12.336 13.492 12.15 13.492 11.96 C 13.489 11.706 13.387 11.464 13.208 11.284 C 13.028 11.105 12.786 11.003 12.532 11 Z" fill="currentColor" fill-rule="nonzero"></path>
</svg>