<svg xmlns="http://www.w3.org/2000/svg" width="21.540" height="21.530" viewBox="0 0 21.540 21.530" fill="none">
  <path d="M 12.774 21.289 L 21.355 12.284 L 21.322 12.284 C 21.466 12.13 21.544 11.927 21.54 11.717 L 21.54 6.752 C 21.544 5.085 20.931 3.477 19.819 2.236 C 18.707 0.995 17.175 0.21 15.518 0.033 L 13.884 0 L 7.568 0 L 5.935 0.033 C 4.299 0.241 2.794 1.038 1.702 2.275 C 0.61 3.511 0.005 5.102 0 6.752 L 0 14.777 C 0.003 16.567 0.715 18.283 1.981 19.548 C 3.246 20.814 4.962 21.526 6.752 21.529 L 12.197 21.529 C 12.305 21.535 12.413 21.517 12.512 21.475 C 12.612 21.434 12.702 21.37 12.774 21.289 Z" fill="currentColor" fill-rule="nonzero"></path>
</svg>