<svg xmlns="http://www.w3.org/2000/svg" width="21.500" height="21.500" viewBox="0 0 21.500 21.500" fill="none">
  <path d="M 14.856 21.5 L 6.644 21.5 C 4.898 21.513 3.219 20.834 1.974 19.612 C 0.728 18.39 0.018 16.723 0 14.979 L 0 7.33 C 0.005 6.463 0.181 5.607 0.518 4.808 C 0.855 4.01 1.346 3.286 1.963 2.677 C 2.58 2.069 3.311 1.588 4.114 1.262 C 4.918 0.937 5.777 0.772 6.644 0.779 L 10.181 0.779 C 10.279 0.779 10.376 0.798 10.467 0.836 C 10.558 0.874 10.641 0.929 10.71 0.998 C 10.78 1.068 10.835 1.15 10.873 1.241 C 10.91 1.332 10.93 1.43 10.93 1.528 C 10.93 1.626 10.91 1.724 10.873 1.814 C 10.835 1.905 10.78 1.988 10.71 2.057 C 10.641 2.127 10.558 2.182 10.467 2.22 C 10.376 2.257 10.279 2.277 10.181 2.277 L 6.644 2.277 C 5.305 2.269 4.018 2.788 3.06 3.723 C 2.103 4.658 1.552 5.932 1.529 7.27 L 1.529 14.919 C 1.552 16.257 2.103 17.531 3.06 18.466 C 4.018 19.4 5.305 19.92 6.644 19.912 L 14.856 19.912 C 16.195 19.92 17.482 19.4 18.44 18.466 C 19.397 17.531 19.948 16.257 19.971 14.919 L 19.971 9.906 C 19.993 9.719 20.083 9.545 20.224 9.42 C 20.365 9.294 20.547 9.225 20.736 9.225 C 20.925 9.225 21.107 9.294 21.248 9.42 C 21.389 9.545 21.479 9.719 21.5 9.906 L 21.5 14.979 C 21.482 16.723 20.772 18.39 19.526 19.612 C 18.281 20.834 16.602 21.513 14.856 21.5 L 14.856 21.5 Z M 16.425 1.528 C 16.279 1.525 16.135 1.557 16.005 1.621 C 15.875 1.686 15.762 1.78 15.675 1.897 L 15.086 2.656 C 15.285 3.463 15.767 4.172 16.445 4.653 C 17.072 5.128 17.836 5.387 18.623 5.392 L 18.743 5.392 L 19.332 4.633 C 19.406 4.538 19.459 4.429 19.49 4.312 C 19.521 4.195 19.528 4.074 19.512 3.954 C 19.497 3.835 19.458 3.72 19.396 3.617 C 19.334 3.513 19.251 3.424 19.152 3.355 L 16.984 1.718 C 16.824 1.594 16.627 1.527 16.425 1.528 M 16.425 0.03 C 16.957 0.03 17.476 0.202 17.903 0.519 L 20.091 2.137 C 20.349 2.325 20.566 2.563 20.729 2.836 C 20.893 3.11 21.001 3.413 21.046 3.729 C 21.09 4.044 21.071 4.365 20.99 4.673 C 20.908 4.981 20.766 5.27 20.571 5.522 L 19.911 6.381 C 19.815 6.509 19.693 6.617 19.554 6.697 C 19.415 6.778 19.262 6.83 19.102 6.85 L 18.623 6.85 C 17.507 6.856 16.419 6.506 15.516 5.852 C 14.483 5.109 13.769 4.003 13.517 2.756 C 13.494 2.598 13.503 2.436 13.544 2.282 C 13.585 2.127 13.658 1.983 13.757 1.857 L 14.417 0.999 C 14.649 0.689 14.951 0.437 15.298 0.264 C 15.645 0.09 16.027 0 16.415 0 L 16.425 0.03 Z M 11.869 6.82 L 9.631 9.766 C 9.533 9.889 9.477 10.039 9.471 10.196 L 9.471 13.351 C 9.466 13.39 9.471 13.429 9.485 13.466 C 9.499 13.503 9.522 13.535 9.551 13.561 C 9.612 13.622 9.694 13.658 9.781 13.661 L 9.871 13.661 L 12.928 12.762 C 13.079 12.712 13.211 12.618 13.308 12.492 L 15.546 9.597 C 14.835 9.31 14.163 8.935 13.547 8.478 C 12.929 8.018 12.375 7.477 11.899 6.87 M 11.949 4.713 C 12.062 4.711 12.174 4.74 12.271 4.799 C 12.369 4.857 12.447 4.942 12.498 5.043 C 13 5.921 13.681 6.683 14.497 7.28 C 15.308 7.886 16.243 8.308 17.234 8.518 C 17.341 8.535 17.442 8.58 17.526 8.648 C 17.611 8.717 17.675 8.807 17.713 8.909 C 17.75 9.011 17.76 9.121 17.741 9.227 C 17.722 9.334 17.674 9.434 17.604 9.517 L 14.606 13.431 C 14.313 13.814 13.903 14.091 13.437 14.22 L 10.35 15.119 C 10.182 15.17 10.007 15.196 9.831 15.199 C 9.589 15.203 9.349 15.158 9.125 15.068 C 8.901 14.978 8.697 14.843 8.526 14.673 C 8.354 14.503 8.219 14.3 8.127 14.076 C 8.036 13.852 7.99 13.613 7.993 13.371 L 7.993 10.216 C 8 9.737 8.165 9.274 8.462 8.898 L 11.459 4.983 C 11.52 4.909 11.596 4.849 11.682 4.807 C 11.769 4.766 11.863 4.744 11.959 4.743 L 11.949 4.713 Z" fill="currentColor" fill-rule="nonzero"></path>
</svg>