<svg xmlns="http://www.w3.org/2000/svg" width="20.654" height="22" viewBox="0 0 20.654 22" fill="none">
  <path d="M 10.511 14.558 C 9.755 14.558 9.015 14.334 8.387 13.914 C 7.758 13.494 7.268 12.896 6.979 12.198 C 6.689 11.499 6.614 10.731 6.761 9.989 C 6.909 9.247 7.273 8.566 7.807 8.032 C 8.342 7.497 9.023 7.133 9.765 6.985 C 10.506 6.838 11.275 6.914 11.974 7.203 C 12.672 7.492 13.269 7.982 13.689 8.611 C 14.11 9.24 14.334 9.979 14.334 10.735 C 14.334 11.237 14.235 11.734 14.043 12.198 C 13.851 12.662 13.569 13.083 13.214 13.438 C 12.859 13.793 12.438 14.075 11.974 14.267 C 11.51 14.459 11.013 14.558 10.511 14.558 Z M 10.511 8.309 C 10.031 8.309 9.562 8.451 9.163 8.717 C 8.764 8.984 8.453 9.363 8.269 9.806 C 8.085 10.25 8.037 10.738 8.131 11.208 C 8.225 11.679 8.456 12.111 8.795 12.451 C 9.134 12.79 9.567 13.021 10.037 13.115 C 10.508 13.208 10.996 13.16 11.439 12.977 C 11.883 12.793 12.262 12.482 12.528 12.083 C 12.795 11.684 12.937 11.215 12.937 10.735 C 12.937 10.091 12.681 9.474 12.226 9.019 C 11.771 8.564 11.154 8.309 10.511 8.309 Z M 10.511 22 C 7.85 22 5.76 20.563 5.76 18.728 C 5.76 16.892 7.85 15.455 10.511 15.455 C 13.172 15.455 15.261 16.892 15.261 18.728 C 15.261 20.563 13.172 22 10.511 22 Z M 10.511 16.903 C 8.564 16.903 7.208 17.861 7.208 18.728 C 7.208 19.594 8.564 20.552 10.511 20.552 C 12.458 20.552 13.814 19.584 13.814 18.728 C 13.814 17.871 12.458 16.903 10.511 16.903 Z M 15.608 6.912 C 14.926 6.906 14.261 6.698 13.696 6.315 C 13.132 5.931 12.694 5.389 12.437 4.757 C 12.18 4.125 12.116 3.431 12.253 2.763 C 12.39 2.095 12.721 1.482 13.206 1.001 C 13.69 0.521 14.306 0.195 14.976 0.064 C 15.645 -0.067 16.338 0.004 16.968 0.266 C 17.598 0.528 18.136 0.971 18.514 1.539 C 18.893 2.107 19.095 2.774 19.095 3.456 C 19.096 3.911 19.008 4.361 18.835 4.782 C 18.661 5.202 18.407 5.584 18.086 5.906 C 17.765 6.228 17.384 6.484 16.964 6.658 C 16.544 6.832 16.093 6.922 15.639 6.922 L 15.608 6.912 Z M 15.608 1.448 C 15.205 1.448 14.811 1.567 14.475 1.791 C 14.14 2.015 13.879 2.334 13.724 2.706 C 13.57 3.079 13.53 3.489 13.608 3.884 C 13.687 4.28 13.881 4.643 14.166 4.928 C 14.451 5.213 14.815 5.408 15.21 5.486 C 15.606 5.565 16.016 5.525 16.388 5.37 C 16.761 5.216 17.079 4.955 17.303 4.619 C 17.527 4.284 17.647 3.89 17.647 3.486 C 17.647 2.951 17.436 2.437 17.061 2.055 C 16.685 1.674 16.174 1.456 15.639 1.448 L 15.608 1.448 Z M 5.352 6.922 C 4.669 6.922 4.001 6.72 3.433 6.34 C 2.865 5.961 2.422 5.422 2.16 4.791 C 1.898 4.16 1.829 3.466 1.962 2.796 C 2.094 2.125 2.423 1.51 2.905 1.026 C 3.387 0.542 4.002 0.212 4.672 0.078 C 5.341 -0.057 6.036 0.01 6.668 0.27 C 7.299 0.53 7.84 0.972 8.221 1.539 C 8.602 2.106 8.806 2.773 8.808 3.456 C 8.81 3.911 8.721 4.361 8.548 4.782 C 8.375 5.202 8.121 5.584 7.8 5.906 C 7.479 6.228 7.097 6.484 6.677 6.658 C 6.257 6.832 5.807 6.922 5.352 6.922 Z M 5.352 1.458 C 4.949 1.458 4.555 1.577 4.219 1.801 C 3.884 2.025 3.623 2.344 3.468 2.716 C 3.314 3.089 3.274 3.499 3.352 3.894 C 3.431 4.29 3.625 4.653 3.91 4.938 C 4.196 5.224 4.559 5.418 4.954 5.496 C 5.35 5.575 5.76 5.535 6.132 5.38 C 6.505 5.226 6.823 4.965 7.048 4.629 C 7.272 4.294 7.391 3.9 7.391 3.497 C 7.392 3.228 7.341 2.962 7.239 2.713 C 7.137 2.465 6.987 2.239 6.798 2.048 C 6.608 1.858 6.383 1.707 6.135 1.604 C 5.887 1.501 5.621 1.448 5.352 1.448 L 5.352 1.458 Z M 20.644 10.939 C 20.644 9.053 18.371 7.575 15.476 7.575 C 15.373 7.562 15.268 7.572 15.169 7.603 C 15.07 7.634 14.979 7.686 14.902 7.755 C 14.824 7.824 14.762 7.908 14.72 8.003 C 14.677 8.097 14.655 8.2 14.655 8.303 C 14.655 8.407 14.677 8.51 14.72 8.604 C 14.762 8.699 14.824 8.783 14.902 8.852 C 14.979 8.921 15.07 8.973 15.169 9.004 C 15.268 9.035 15.373 9.045 15.476 9.032 C 17.657 9.032 19.186 10.052 19.186 10.939 C 19.186 11.826 17.657 12.855 15.476 12.855 C 15.284 12.855 15.099 12.932 14.964 13.067 C 14.828 13.203 14.752 13.387 14.752 13.579 C 14.752 13.771 14.828 13.955 14.964 14.091 C 15.099 14.227 15.284 14.303 15.476 14.303 C 18.381 14.293 20.654 12.825 20.654 10.929 L 20.644 10.939 Z M 5.903 13.416 C 5.903 13.32 5.884 13.225 5.847 13.137 C 5.81 13.048 5.755 12.968 5.687 12.901 C 5.619 12.833 5.538 12.78 5.449 12.744 C 5.36 12.709 5.265 12.691 5.169 12.692 C 2.987 12.692 1.458 11.673 1.458 10.776 C 1.458 9.879 2.987 8.869 5.169 8.869 C 5.272 8.881 5.376 8.872 5.475 8.841 C 5.574 8.81 5.665 8.758 5.743 8.689 C 5.82 8.62 5.882 8.536 5.925 8.441 C 5.967 8.347 5.989 8.244 5.989 8.14 C 5.989 8.037 5.967 7.934 5.925 7.84 C 5.882 7.745 5.82 7.66 5.743 7.592 C 5.665 7.523 5.574 7.471 5.475 7.44 C 5.376 7.409 5.272 7.399 5.169 7.411 C 2.273 7.411 0 8.89 0 10.776 C 0 12.662 2.273 14.14 5.169 14.14 C 5.265 14.141 5.36 14.124 5.449 14.088 C 5.538 14.052 5.619 13.999 5.687 13.932 C 5.755 13.864 5.81 13.784 5.847 13.695 C 5.884 13.607 5.903 13.512 5.903 13.416 Z" fill="currentColor" fill-rule="nonzero"></path>
</svg>