<svg xmlns="http://www.w3.org/2000/svg" width="21.440" height="21.500" viewBox="0 0 21.440 21.500" fill="none">
  <path d="M 10.686 21.5 C 9.946 21.506 9.212 21.366 8.527 21.088 C 7.841 20.809 7.218 20.399 6.692 19.879 L 1.796 14.94 C 1.205 14.352 0.741 13.65 0.433 12.876 C 0.124 12.103 -0.022 11.274 0.003 10.441 L 0.153 4.987 C 0.185 3.73 0.697 2.533 1.583 1.64 C 2.469 0.748 3.663 0.228 4.92 0.188 L 10.288 0.005 C 11.132 -0.03 11.973 0.111 12.759 0.42 C 13.545 0.729 14.257 1.198 14.851 1.798 L 19.79 6.748 C 20.846 7.807 21.44 9.241 21.44 10.736 C 21.44 12.232 20.846 13.666 19.79 14.725 L 14.669 19.879 C 14.144 20.398 13.522 20.808 12.839 21.086 C 12.155 21.365 11.424 21.505 10.686 21.5 Z M 10.557 1.626 L 10.406 1.626 L 5.038 1.809 C 4.191 1.831 3.384 2.177 2.785 2.776 C 2.185 3.376 1.839 4.183 1.817 5.03 L 1.667 10.495 C 1.64 11.103 1.739 11.711 1.957 12.28 C 2.175 12.849 2.507 13.367 2.934 13.802 L 7.83 18.708 C 8.597 19.443 9.618 19.853 10.68 19.853 C 11.742 19.853 12.763 19.443 13.531 18.708 L 18.652 13.587 C 19.404 12.829 19.826 11.804 19.826 10.736 C 19.826 9.669 19.404 8.644 18.652 7.886 L 13.703 2.936 C 12.867 2.103 11.737 1.633 10.557 1.626 Z M 8.12 11.794 C 7.492 11.796 6.873 11.642 6.319 11.348 C 5.764 11.053 5.291 10.625 4.942 10.104 C 4.592 9.582 4.377 8.982 4.315 8.357 C 4.254 7.732 4.347 7.102 4.588 6.522 C 4.828 5.942 5.209 5.43 5.695 5.033 C 6.181 4.635 6.757 4.364 7.373 4.243 C 7.99 4.121 8.626 4.155 9.226 4.339 C 9.827 4.523 10.372 4.853 10.814 5.298 C 11.349 5.83 11.713 6.508 11.861 7.248 C 12.009 7.987 11.934 8.753 11.645 9.45 C 11.356 10.146 10.867 10.741 10.239 11.158 C 9.611 11.576 8.873 11.797 8.12 11.794 Z M 8.12 5.792 C 7.682 5.782 7.251 5.902 6.882 6.137 C 6.514 6.372 6.223 6.712 6.048 7.113 C 5.873 7.514 5.822 7.958 5.901 8.389 C 5.98 8.819 6.185 9.216 6.49 9.53 C 6.796 9.843 7.188 10.058 7.616 10.147 C 8.045 10.237 8.49 10.196 8.895 10.031 C 9.301 9.866 9.648 9.584 9.892 9.221 C 10.136 8.858 10.267 8.431 10.267 7.993 C 10.27 7.704 10.215 7.417 10.104 7.149 C 9.993 6.881 9.829 6.639 9.623 6.436 C 9.223 6.037 8.685 5.806 8.12 5.792 Z M 11.77 15.885 L 16.011 11.59 C 16.087 11.516 16.147 11.427 16.188 11.33 C 16.23 11.232 16.251 11.127 16.251 11.021 C 16.251 10.915 16.23 10.81 16.188 10.712 C 16.147 10.614 16.087 10.526 16.011 10.452 C 15.86 10.301 15.655 10.216 15.442 10.216 C 15.228 10.216 15.024 10.301 14.873 10.452 L 10.578 14.747 C 10.427 14.898 10.343 15.102 10.343 15.316 C 10.343 15.529 10.427 15.734 10.578 15.885 C 10.731 16.036 10.937 16.121 11.153 16.121 C 11.368 16.121 11.574 16.036 11.727 15.885 L 11.77 15.885 Z" fill="currentColor" fill-rule="nonzero"></path>
</svg>