<svg xmlns="http://www.w3.org/2000/svg" width="20.500" height="19.971" viewBox="0 0 20.500 19.971" fill="none">
  <path d="M 8.342 0 C 7.205 0.005 6.107 0.413 5.243 1.151 C 4.379 1.889 3.804 2.91 3.622 4.032 L 0.801 4.032 C 0.7 4.028 0.599 4.044 0.504 4.079 C 0.409 4.114 0.322 4.167 0.247 4.236 C 0.173 4.304 0.113 4.387 0.07 4.479 C 0.028 4.571 0.004 4.67 0 4.771 C 0 4.976 0.081 5.173 0.225 5.319 C 0.369 5.465 0.565 5.548 0.77 5.551 L 3.54 5.551 L 3.622 5.551 C 3.767 6.452 4.167 7.294 4.775 7.975 C 5.383 8.656 6.174 9.149 7.053 9.396 C 7.933 9.642 8.864 9.631 9.738 9.365 C 10.611 9.098 11.39 8.587 11.982 7.892 C 12.575 7.197 12.955 6.346 13.079 5.442 C 13.204 4.537 13.066 3.616 12.683 2.787 C 12.3 1.958 11.688 1.255 10.919 0.763 C 10.149 0.271 9.255 0.01 8.342 0.01 L 8.342 0 Z M 8.342 8.034 C 7.698 8.034 7.069 7.843 6.534 7.485 C 5.999 7.127 5.582 6.618 5.336 6.023 C 5.09 5.429 5.026 4.774 5.153 4.143 C 5.279 3.512 5.59 2.932 6.046 2.478 C 6.501 2.023 7.082 1.714 7.714 1.59 C 8.345 1.466 8.999 1.532 9.594 1.779 C 10.188 2.027 10.695 2.446 11.051 2.982 C 11.407 3.518 11.596 4.148 11.594 4.791 C 11.592 5.652 11.248 6.477 10.638 7.085 C 10.028 7.692 9.203 8.034 8.342 8.034 Z M 15.021 5.561 C 14.817 5.561 14.621 5.48 14.477 5.336 C 14.333 5.191 14.252 4.996 14.252 4.791 C 14.249 4.691 14.266 4.59 14.304 4.496 C 14.341 4.402 14.396 4.317 14.467 4.245 C 14.538 4.173 14.623 4.116 14.716 4.078 C 14.81 4.04 14.91 4.021 15.011 4.022 L 19.72 4.022 C 19.923 4.022 20.117 4.102 20.261 4.244 C 20.405 4.386 20.487 4.579 20.49 4.781 C 20.49 4.986 20.409 5.183 20.265 5.329 C 20.121 5.475 19.925 5.558 19.72 5.561 L 15.021 5.561 Z M 19.72 14.415 L 16.981 14.415 L 16.909 14.415 C 16.719 13.222 16.087 12.145 15.138 11.397 C 14.189 10.65 12.993 10.288 11.789 10.383 C 10.584 10.478 9.46 11.024 8.64 11.911 C 7.82 12.798 7.365 13.962 7.365 15.17 C 7.365 16.378 7.82 17.541 8.64 18.428 C 9.46 19.316 10.584 19.861 11.789 19.956 C 12.993 20.052 14.189 19.689 15.138 18.942 C 16.087 18.194 16.719 17.117 16.909 15.924 L 16.991 15.924 L 19.73 15.924 C 19.935 15.924 20.13 15.843 20.275 15.698 C 20.419 15.554 20.5 15.358 20.5 15.154 C 20.489 14.955 20.403 14.767 20.258 14.629 C 20.112 14.492 19.92 14.415 19.72 14.415 Z M 12.179 18.458 C 11.534 18.466 10.901 18.282 10.361 17.93 C 9.821 17.577 9.398 17.072 9.145 16.479 C 8.893 15.885 8.822 15.23 8.943 14.596 C 9.064 13.963 9.37 13.38 9.824 12.921 C 10.277 12.462 10.856 12.148 11.488 12.019 C 12.12 11.89 12.776 11.952 13.373 12.197 C 13.97 12.442 14.48 12.859 14.839 13.394 C 15.199 13.93 15.39 14.56 15.39 15.205 C 15.388 16.06 15.05 16.88 14.449 17.488 C 13.849 18.096 13.034 18.445 12.179 18.458 Z M 5.5 15.975 L 0.801 15.975 C 0.695 15.979 0.59 15.962 0.492 15.924 C 0.393 15.886 0.304 15.828 0.229 15.754 C 0.154 15.68 0.095 15.591 0.056 15.493 C 0.016 15.395 -0.003 15.29 0 15.185 C 0.003 14.982 0.085 14.788 0.229 14.644 C 0.372 14.5 0.567 14.418 0.77 14.415 L 5.469 14.415 C 5.57 14.414 5.67 14.433 5.764 14.471 C 5.857 14.51 5.942 14.566 6.013 14.638 C 6.084 14.71 6.139 14.796 6.176 14.89 C 6.213 14.984 6.231 15.084 6.228 15.185 C 6.234 15.386 6.161 15.581 6.025 15.728 C 5.889 15.876 5.7 15.964 5.5 15.975 Z" fill="currentColor" fill-rule="nonzero"></path>
</svg>