<svg xmlns="http://www.w3.org/2000/svg" width="22" height="20.711" viewBox="0 0 22 20.711" fill="none">
  <path d="M 7.66 20.711 C 7.195 20.708 6.738 20.585 6.334 20.354 L 4.671 19.385 C 4.369 19.212 4.104 18.981 3.892 18.704 C 3.68 18.427 3.525 18.111 3.437 17.774 C 3.344 17.433 3.319 17.078 3.365 16.727 C 3.41 16.377 3.525 16.04 3.702 15.734 L 4.151 14.969 C 3.931 14.643 3.733 14.302 3.56 13.949 L 2.642 13.949 C 2.293 13.948 1.949 13.878 1.628 13.743 C 1.306 13.609 1.015 13.413 0.77 13.165 C 0.524 12.918 0.33 12.625 0.198 12.303 C 0.066 11.981 -0.001 11.635 0 11.287 L 0 9.339 C 0.003 8.999 0.073 8.662 0.206 8.349 C 0.339 8.036 0.532 7.752 0.775 7.513 C 1.02 7.269 1.311 7.075 1.632 6.943 C 1.952 6.812 2.295 6.746 2.642 6.749 L 3.539 6.749 C 3.714 6.394 3.915 6.053 4.141 5.729 L 3.692 4.923 C 3.519 4.619 3.408 4.285 3.366 3.938 C 3.324 3.591 3.351 3.24 3.446 2.904 C 3.541 2.568 3.701 2.254 3.919 1.981 C 4.136 1.707 4.406 1.48 4.712 1.312 L 6.385 0.354 C 6.689 0.183 7.023 0.075 7.369 0.034 C 7.715 -0.007 8.066 0.021 8.401 0.115 C 8.737 0.21 9.05 0.37 9.324 0.586 C 9.597 0.802 9.825 1.069 9.995 1.373 L 10.434 2.138 C 10.794 2.118 11.155 2.118 11.515 2.138 L 11.994 1.333 C 12.169 1.031 12.401 0.767 12.677 0.555 C 12.954 0.344 13.269 0.188 13.606 0.099 C 13.946 0.002 14.302 -0.024 14.653 0.022 C 15.004 0.067 15.341 0.184 15.646 0.364 L 17.308 1.322 C 17.917 1.674 18.36 2.253 18.542 2.932 C 18.724 3.611 18.628 4.334 18.277 4.943 L 17.839 5.718 C 18.068 6.042 18.273 6.383 18.451 6.738 L 19.369 6.738 C 20.071 6.746 20.742 7.032 21.235 7.532 C 21.728 8.033 22.003 8.708 22 9.411 L 22 11.379 C 21.992 12.078 21.709 12.746 21.213 13.238 C 20.717 13.73 20.047 14.008 19.348 14.01 L 18.44 14.01 C 18.273 14.341 18.086 14.661 17.879 14.969 L 18.338 15.775 C 18.509 16.079 18.617 16.413 18.658 16.76 C 18.699 17.106 18.671 17.456 18.577 17.792 C 18.482 18.127 18.322 18.44 18.106 18.714 C 17.89 18.987 17.623 19.215 17.318 19.385 L 15.646 20.344 C 15.342 20.516 15.007 20.626 14.661 20.667 C 14.315 20.709 13.964 20.681 13.628 20.587 C 13.292 20.492 12.979 20.331 12.705 20.115 C 12.432 19.898 12.204 19.629 12.035 19.324 L 11.586 18.559 C 11.206 18.59 10.824 18.59 10.444 18.559 L 9.975 19.355 C 9.745 19.766 9.409 20.109 9.002 20.348 C 8.595 20.586 8.131 20.712 7.66 20.711 Z M 2.662 8.319 C 2.366 8.319 2.081 8.432 1.866 8.635 C 1.762 8.74 1.68 8.864 1.624 9.001 C 1.568 9.137 1.54 9.283 1.54 9.431 L 1.54 11.348 C 1.558 11.63 1.681 11.894 1.885 12.089 C 2.09 12.284 2.36 12.394 2.642 12.399 L 4.049 12.399 C 4.2 12.397 4.348 12.44 4.474 12.524 C 4.6 12.608 4.697 12.728 4.753 12.868 C 4.991 13.429 5.299 13.957 5.671 14.439 C 5.762 14.561 5.816 14.706 5.827 14.858 C 5.838 15.01 5.805 15.162 5.732 15.296 L 5.028 16.489 C 4.885 16.75 4.845 17.056 4.916 17.346 C 4.993 17.63 5.18 17.872 5.436 18.019 L 7.099 18.988 C 7.226 19.064 7.368 19.113 7.516 19.132 C 7.663 19.151 7.813 19.14 7.955 19.1 C 8.241 19.02 8.486 18.834 8.639 18.58 L 9.343 17.356 C 9.42 17.226 9.534 17.121 9.669 17.054 C 9.805 16.987 9.957 16.961 10.108 16.978 C 10.697 17.05 11.293 17.05 11.882 16.978 C 12.032 16.954 12.185 16.977 12.322 17.042 C 12.459 17.108 12.572 17.214 12.647 17.346 L 13.341 18.549 C 13.488 18.807 13.732 18.996 14.019 19.075 C 14.306 19.153 14.612 19.115 14.871 18.967 L 16.533 18.009 C 16.662 17.938 16.776 17.842 16.867 17.726 C 16.958 17.611 17.025 17.478 17.064 17.335 C 17.134 17.046 17.094 16.74 16.951 16.479 L 16.248 15.255 C 16.165 15.129 16.122 14.982 16.122 14.831 C 16.122 14.681 16.165 14.534 16.248 14.408 C 16.606 13.945 16.905 13.438 17.135 12.899 C 17.185 12.754 17.281 12.629 17.407 12.543 C 17.534 12.456 17.685 12.413 17.839 12.419 L 19.226 12.419 C 19.519 12.431 19.805 12.329 20.025 12.136 C 20.246 11.942 20.383 11.671 20.409 11.379 L 20.409 9.441 C 20.409 9.294 20.381 9.147 20.325 9.011 C 20.269 8.874 20.187 8.75 20.083 8.646 C 19.981 8.54 19.859 8.455 19.724 8.397 C 19.589 8.339 19.444 8.309 19.297 8.309 L 17.9 8.309 C 17.749 8.307 17.601 8.26 17.476 8.175 C 17.351 8.089 17.254 7.97 17.196 7.83 C 16.958 7.273 16.646 6.752 16.268 6.279 C 16.176 6.157 16.122 6.011 16.113 5.859 C 16.104 5.706 16.14 5.555 16.217 5.423 L 16.911 4.219 C 17.058 3.961 17.097 3.654 17.018 3.368 C 16.94 3.081 16.751 2.837 16.492 2.689 L 14.83 1.69 C 14.589 1.55 14.304 1.51 14.034 1.577 C 13.748 1.655 13.502 1.842 13.351 2.098 L 12.647 3.322 C 12.572 3.453 12.458 3.56 12.322 3.627 C 12.186 3.694 12.033 3.719 11.882 3.699 C 11.31 3.628 10.731 3.628 10.159 3.699 C 10.009 3.718 9.858 3.693 9.724 3.626 C 9.589 3.558 9.478 3.452 9.404 3.322 L 8.669 2.108 C 8.52 1.852 8.276 1.664 7.99 1.586 C 7.704 1.508 7.399 1.545 7.14 1.69 L 5.467 2.628 C 5.209 2.776 5.019 3.019 4.939 3.305 C 4.859 3.591 4.895 3.898 5.038 4.158 L 5.732 5.392 C 5.817 5.527 5.857 5.686 5.846 5.846 C 5.835 6.005 5.774 6.157 5.671 6.279 C 5.302 6.749 4.994 7.263 4.753 7.809 C 4.696 7.949 4.598 8.068 4.473 8.152 C 4.347 8.235 4.2 8.279 4.049 8.278 L 2.662 8.278 L 2.662 8.319 Z M 10.975 14.439 C 10.168 14.439 9.379 14.2 8.708 13.751 C 8.037 13.303 7.514 12.666 7.205 11.92 C 6.897 11.175 6.816 10.355 6.973 9.563 C 7.131 8.772 7.519 8.045 8.09 7.474 C 8.66 6.904 9.387 6.515 10.179 6.358 C 10.97 6.2 11.79 6.281 12.536 6.59 C 13.281 6.899 13.918 7.422 14.367 8.092 C 14.815 8.763 15.054 9.552 15.054 10.359 C 15.054 11.441 14.624 12.479 13.859 13.244 C 13.094 14.009 12.057 14.439 10.975 14.439 Z M 10.975 7.809 C 10.47 7.809 9.977 7.959 9.558 8.239 C 9.139 8.519 8.812 8.917 8.619 9.383 C 8.426 9.849 8.375 10.362 8.474 10.857 C 8.572 11.351 8.815 11.805 9.171 12.162 C 9.528 12.519 9.982 12.762 10.477 12.86 C 10.972 12.958 11.484 12.908 11.95 12.715 C 12.416 12.522 12.814 12.195 13.095 11.776 C 13.375 11.356 13.524 10.863 13.524 10.359 C 13.524 9.683 13.256 9.034 12.778 8.556 C 12.299 8.078 11.651 7.809 10.975 7.809 Z" fill="currentColor" fill-rule="nonzero"></path>
</svg>