<svg xmlns="http://www.w3.org/2000/svg" width="21.450" height="21.500" viewBox="0 0 21.450 21.500" fill="none">
  <path d="M 14.75 21.5 L 6.7 21.5 C 4.924 21.497 3.221 20.791 1.965 19.535 C 0.71 18.279 0.003 16.576 0 14.8 L 0 6.75 C -0.005 5.866 0.164 4.99 0.498 4.172 C 0.833 3.354 1.325 2.61 1.948 1.983 C 2.57 1.356 3.311 0.858 4.126 0.517 C 4.942 0.177 5.816 0.001 6.7 0 L 14.8 0 C 16.576 0.016 18.274 0.735 19.52 2.001 C 20.767 3.266 21.461 4.974 21.45 6.75 L 21.45 14.85 C 21.434 16.617 20.722 18.307 19.467 19.552 C 18.213 20.798 16.518 21.497 14.75 21.5 Z" fill="currentColor" fill-rule="nonzero"></path>
</svg>