<svg xmlns="http://www.w3.org/2000/svg" width="21.300" height="21.300" viewBox="0 0 21.300 21.300" fill="none">
  <path d="M 5.959 21.3 C 5.312 21.299 4.683 21.087 4.167 20.697 C 3.733 20.363 3.391 19.925 3.173 19.423 C 2.955 18.922 2.868 18.373 2.92 17.828 L 3.277 14.079 C 3.281 14.031 3.275 13.982 3.26 13.936 C 3.244 13.89 3.22 13.848 3.188 13.812 L 0.753 11.003 C 0.401 10.582 0.162 10.079 0.059 9.541 C -0.045 9.003 -0.011 8.447 0.159 7.926 C 0.318 7.407 0.609 6.938 1.005 6.567 C 1.401 6.196 1.887 5.934 2.416 5.809 L 5.959 5.008 C 6.049 4.979 6.126 4.92 6.177 4.84 L 8.017 1.595 C 8.268 1.114 8.647 0.711 9.111 0.43 C 9.575 0.149 10.107 0 10.65 0 C 11.193 0 11.725 0.149 12.189 0.43 C 12.653 0.711 13.032 1.114 13.283 1.595 L 15.123 4.84 C 15.174 4.92 15.251 4.979 15.341 5.008 L 18.884 5.809 C 19.413 5.934 19.899 6.196 20.295 6.567 C 20.691 6.938 20.982 7.407 21.141 7.926 C 21.311 8.447 21.345 9.003 21.241 9.541 C 21.138 10.079 20.899 10.582 20.547 11.003 L 18.142 13.812 C 18.11 13.848 18.085 13.89 18.07 13.936 C 18.055 13.982 18.049 14.031 18.053 14.079 L 18.409 17.828 C 18.462 18.373 18.375 18.922 18.157 19.423 C 17.939 19.925 17.596 20.363 17.162 20.697 C 16.736 21.019 16.23 21.221 15.699 21.28 C 15.168 21.339 14.63 21.254 14.144 21.033 L 10.789 19.569 C 10.745 19.549 10.698 19.539 10.65 19.539 C 10.602 19.539 10.555 19.549 10.511 19.569 L 7.186 21.033 C 6.801 21.208 6.382 21.299 5.959 21.3 Z" fill="currentColor" fill-rule="nonzero"></path>
</svg>