<svg xmlns="http://www.w3.org/2000/svg" width="21.500" height="21.500" viewBox="0 0 21.500 21.500" fill="none">
  <path d="M 10.75 0 C 8.624 0 6.545 0.63 4.778 1.812 C 3.01 2.993 1.632 4.672 0.818 6.636 C 0.005 8.6 -0.208 10.762 0.207 12.847 C 0.621 14.933 1.645 16.848 3.149 18.351 C 4.652 19.855 6.567 20.879 8.653 21.293 C 10.738 21.708 12.9 21.495 14.864 20.682 C 16.828 19.868 18.507 18.49 19.688 16.722 C 20.87 14.955 21.5 12.876 21.5 10.75 C 21.5 7.899 20.367 5.165 18.351 3.149 C 16.335 1.133 13.601 0 10.75 0 L 10.75 0 Z M 10.75 20 C 8.916 20 7.123 19.456 5.598 18.436 C 4.073 17.417 2.885 15.968 2.184 14.273 C 1.483 12.578 1.3 10.713 1.66 8.914 C 2.019 7.115 2.904 5.464 4.202 4.168 C 5.501 2.872 7.154 1.991 8.954 1.636 C 10.753 1.28 12.618 1.467 14.311 2.171 C 16.005 2.876 17.451 4.067 18.467 5.594 C 19.484 7.121 20.024 8.916 20.02 10.75 C 20.017 13.208 19.04 15.564 17.302 17.302 C 15.564 19.04 13.208 20.017 10.75 20.02 L 10.75 20 Z M 15.75 10.75 C 15.75 10.946 15.672 11.134 15.533 11.273 C 15.394 11.412 15.206 11.49 15.01 11.49 L 10.75 11.49 C 10.554 11.49 10.366 11.412 10.227 11.273 C 10.088 11.134 10.01 10.946 10.01 10.75 L 10.01 4.67 C 10.01 4.474 10.088 4.286 10.227 4.147 C 10.366 4.008 10.554 3.93 10.75 3.93 C 10.946 3.93 11.134 4.008 11.273 4.147 C 11.412 4.286 11.49 4.474 11.49 4.67 L 11.49 10.01 L 15.04 10.01 C 15.231 10.018 15.412 10.099 15.544 10.237 C 15.676 10.375 15.75 10.559 15.75 10.75 L 15.75 10.75 Z" fill="currentColor" fill-rule="nonzero"></path>
</svg>