<svg xmlns="http://www.w3.org/2000/svg" width="19.278" height="21.450" viewBox="0 0 19.278 21.450" fill="none">
  <path d="M 9.639 11.393 C 8.511 11.393 7.408 11.058 6.47 10.43 C 5.533 9.803 4.802 8.911 4.372 7.867 C 3.942 6.824 3.832 5.677 4.055 4.571 C 4.278 3.464 4.825 2.449 5.625 1.654 C 6.426 0.859 7.445 0.32 8.553 0.105 C 9.66 -0.111 10.807 0.008 11.847 0.445 C 12.887 0.882 13.774 1.619 14.395 2.561 C 15.016 3.503 15.344 4.608 15.336 5.737 C 15.325 7.241 14.721 8.679 13.653 9.739 C 12.586 10.799 11.143 11.393 9.639 11.393 Z M 17.321 21.45 L 1.957 21.45 C 1.666 21.453 1.377 21.392 1.112 21.271 C 0.846 21.15 0.61 20.973 0.421 20.752 C 0.256 20.56 0.135 20.335 0.066 20.092 C -0.003 19.849 -0.018 19.594 0.022 19.345 C 0.72 15.204 4.86 12.082 9.639 12.082 C 14.418 12.082 18.558 15.204 19.257 19.345 C 19.297 19.594 19.282 19.849 19.213 20.092 C 19.144 20.335 19.023 20.56 18.858 20.752 C 18.668 20.973 18.432 21.15 18.167 21.271 C 17.902 21.392 17.613 21.453 17.321 21.45 Z" fill="currentColor" fill-rule="nonzero"></path>
</svg>