<svg xmlns="http://www.w3.org/2000/svg" width="20" height="20.028" viewBox="0 0 20 20.028" fill="none">
  <path d="M 9.502 11.247 C 10.615 11.247 11.703 10.917 12.628 10.299 C 13.553 9.681 14.274 8.802 14.699 7.773 C 15.124 6.745 15.235 5.614 15.017 4.523 C 14.8 3.432 14.263 2.43 13.476 1.644 C 12.688 0.858 11.685 0.323 10.594 0.107 C 9.502 -0.109 8.371 0.004 7.344 0.431 C 6.316 0.858 5.438 1.58 4.822 2.507 C 4.205 3.433 3.877 4.521 3.879 5.634 C 3.879 6.372 4.024 7.102 4.307 7.784 C 4.59 8.466 5.004 9.085 5.527 9.607 C 6.049 10.128 6.669 10.541 7.351 10.823 C 8.033 11.104 8.764 11.249 9.502 11.247 Z M 9.502 1.49 C 10.322 1.49 11.123 1.733 11.805 2.188 C 12.486 2.643 13.017 3.291 13.331 4.048 C 13.644 4.805 13.726 5.638 13.567 6.442 C 13.407 7.246 13.012 7.984 12.433 8.564 C 11.853 9.143 11.115 9.538 10.311 9.698 C 9.507 9.858 8.674 9.776 7.917 9.462 C 7.16 9.148 6.512 8.617 6.057 7.936 C 5.602 7.254 5.359 6.453 5.359 5.634 C 5.359 4.535 5.795 3.481 6.572 2.703 C 7.349 1.926 8.403 1.49 9.502 1.49 Z M 15.363 10.744 C 14.727 10.743 14.098 10.874 13.515 11.129 C 12.933 11.383 12.41 11.756 11.979 12.224 C 11.164 12.032 10.33 11.932 9.493 11.928 C 4.777 11.928 0.702 14.996 0.011 19.081 C -0.006 19.176 -0.003 19.274 0.018 19.369 C 0.039 19.463 0.079 19.552 0.135 19.631 C 0.191 19.71 0.262 19.777 0.344 19.828 C 0.426 19.88 0.518 19.914 0.613 19.93 L 0.741 19.93 C 0.915 19.928 1.083 19.866 1.216 19.754 C 1.349 19.643 1.439 19.489 1.471 19.318 C 2.034 15.944 5.487 13.398 9.493 13.398 C 10.029 13.403 10.563 13.453 11.091 13.546 C 10.837 14.125 10.706 14.75 10.706 15.381 C 10.706 16.3 10.979 17.199 11.489 17.963 C 12 18.727 12.726 19.323 13.575 19.674 C 14.424 20.026 15.358 20.118 16.26 19.939 C 17.161 19.76 17.989 19.317 18.639 18.667 C 19.289 18.017 19.731 17.189 19.911 16.288 C 20.09 15.386 19.998 14.452 19.646 13.603 C 19.295 12.754 18.699 12.028 17.935 11.517 C 17.171 11.007 16.272 10.734 15.353 10.734 L 15.363 10.744 Z M 15.363 18.558 C 14.736 18.56 14.123 18.376 13.601 18.029 C 13.079 17.682 12.671 17.188 12.43 16.61 C 12.189 16.031 12.125 15.394 12.246 14.779 C 12.367 14.164 12.668 13.599 13.11 13.155 C 13.553 12.711 14.117 12.409 14.732 12.286 C 15.346 12.163 15.983 12.225 16.563 12.464 C 17.142 12.704 17.637 13.11 17.986 13.631 C 18.334 14.152 18.52 14.764 18.52 15.391 C 18.52 16.229 18.188 17.033 17.596 17.627 C 17.004 18.221 16.201 18.556 15.363 18.558 Z M 17.336 13.862 C 17.479 13.98 17.571 14.148 17.593 14.331 C 17.615 14.515 17.565 14.7 17.455 14.848 L 15.797 16.97 C 15.727 17.057 15.639 17.129 15.538 17.178 C 15.437 17.227 15.327 17.254 15.215 17.256 C 15.104 17.255 14.995 17.229 14.895 17.18 C 14.796 17.13 14.71 17.058 14.643 16.97 L 13.439 15.44 C 13.332 15.29 13.285 15.105 13.309 14.922 C 13.333 14.739 13.425 14.572 13.567 14.454 C 13.715 14.343 13.901 14.294 14.084 14.316 C 14.268 14.338 14.436 14.43 14.554 14.572 L 15.175 15.371 L 16.3 13.97 C 16.422 13.82 16.598 13.724 16.791 13.704 C 16.983 13.683 17.176 13.74 17.326 13.862 L 17.336 13.862 Z" fill="currentColor" fill-rule="nonzero"></path>
</svg>