<svg xmlns="http://www.w3.org/2000/svg" width="21.294" height="21.300" viewBox="0 0 21.294 21.300" fill="none">
  <path d="M 10.647 21.3 C 9.903 21.299 9.19 21.004 8.665 20.477 L 7.268 19.08 C 7.241 19.055 7.21 19.034 7.176 19.021 C 7.142 19.007 7.106 19 7.069 19.001 L 5.087 19.001 C 4.345 18.998 3.635 18.702 3.111 18.176 C 2.587 17.65 2.293 16.938 2.293 16.196 L 2.293 14.214 C 2.293 14.178 2.287 14.141 2.273 14.107 C 2.259 14.073 2.239 14.042 2.214 14.016 L 0.816 12.629 C 0.293 12.102 0 11.389 0 10.647 C 0 9.904 0.293 9.192 0.816 8.665 L 2.214 7.268 C 2.239 7.241 2.259 7.21 2.273 7.176 C 2.287 7.142 2.293 7.106 2.293 7.069 L 2.293 5.087 C 2.295 4.345 2.592 3.635 3.118 3.111 C 3.643 2.587 4.355 2.293 5.097 2.293 L 7.079 2.293 C 7.116 2.293 7.152 2.287 7.186 2.273 C 7.22 2.259 7.251 2.239 7.277 2.214 L 8.665 0.816 C 9.192 0.293 9.904 0 10.647 0 C 11.389 0 12.102 0.293 12.629 0.816 L 14.026 2.214 C 14.052 2.239 14.083 2.259 14.117 2.273 C 14.151 2.287 14.188 2.293 14.224 2.293 L 16.206 2.293 C 16.948 2.295 17.659 2.592 18.183 3.118 C 18.707 3.643 19.001 4.355 19.001 5.097 L 19.001 7.079 C 19 7.116 19.007 7.152 19.021 7.186 C 19.034 7.22 19.055 7.251 19.08 7.277 L 20.477 8.665 C 21 9.192 21.294 9.904 21.294 10.647 C 21.294 11.389 21 12.102 20.477 12.629 L 19.08 14.026 C 19.055 14.052 19.034 14.083 19.021 14.117 C 19.007 14.151 19 14.188 19.001 14.224 L 19.001 16.206 C 19.001 16.575 18.928 16.939 18.787 17.28 C 18.646 17.62 18.44 17.929 18.179 18.189 C 17.919 18.45 17.61 18.656 17.27 18.797 C 16.929 18.938 16.565 19.011 16.196 19.011 L 14.214 19.011 C 14.178 19.01 14.141 19.017 14.107 19.031 C 14.073 19.044 14.042 19.064 14.016 19.09 L 12.629 20.477 C 12.103 21.004 11.39 21.299 10.647 21.3 Z" fill="currentColor" fill-rule="nonzero"></path>
</svg>