<svg xmlns="http://www.w3.org/2000/svg" viewBox="222.03 275.16 1547.99 1562.46"><g transform="matrix(1,0,0,-1,0,2000)"><path d="M945.28 950.61C962.03 943.88 979.89 921.79 988.19 905.51C991.56 899.02 993.44 891.42 996.49 884.92C1003.39 899.4 1003.47 907.31 1016.37 923.75C1024.99 934.56 1034.07 943.72 1047.86 950.77C1042.53 963.06 1009.48 991.16 996.73 999.62C991.32 997.36 973.94 982 968.93 977.69C966.42 975.59 965.48 974.1 963.14 971.6C960.71 968.93 959.45 968.15 956.4 965.24C953.65 962.74 947.16 954.84 945.28 950.61" fill="#fda331" fill-rule="evenodd"></path><path d="M976.29 1684.84C957.58 1678.88 962.67 1654.93 962.67 1634.48L962.67 1506.07C962.67 1496.51 961.09 1484.77 965.8 1477.25C969.33 1471.62 977.55 1465.98 987.87 1469.19C1006.05 1474.91 1001.34 1498.8 1001.34 1519.14L1001.34 1647.55C1001.34 1656.79 1002.91 1669.02 998.59 1676.62C994.85 1683.27 986.07 1687.96 976.29 1684.84" fill="#ffcb43" fill-rule="evenodd"></path><path d="M1092.1 1668.32C1081.84 1665.81 1072.98 1656.57 1077.93 1642.7C1080.74 1634.64 1129.61 1588.2 1137.43 1580.38C1151.3 1566.51 1164.37 1553.44 1178.22 1539.59C1185.19 1532.61 1191.39 1526.42 1198.34 1519.46C1203.59 1514.21 1212.05 1502.87 1225.68 1506.78C1234.76 1509.36 1243.3 1519.46 1238.43 1532.29C1236.17 1538.33 1184.49 1588.44 1178.62 1594.23C1164.53 1608.1 1151.6 1621.17 1137.67 1635.02C1130.69 1642.08 1124.52 1648.19 1117.54 1655.15C1112.21 1660.48 1104.93 1671.36 1092.1 1668.32" fill="#ffcb43" fill-rule="evenodd"></path><path d="M864.47 1668.46C853.51 1665.87 830.18 1639.11 821.42 1630.25C807.55 1616.4 794.48 1603.31 780.61 1589.46C766.76 1575.61 753.69 1562.44 739.82 1548.67C734.26 1543.1 723.62 1535.98 724.48 1523.45C725.26 1512.25 736.07 1503.65 748.19 1506.46C756.41 1508.34 765.65 1519.55 770.52 1524.4L872.31 1626.18C877.62 1631.6 888.51 1639.17 887.19 1651.86C886.08 1662.2 875.98 1671.13 864.47 1668.46" fill="#ffcb43" fill-rule="evenodd"></path><path d="M414.87 598.96C415.11 593.33 425.37 570.08 427.72 562.32L640.37 562C640.29 554.1 638.51 546.35 634.74 540.31C629.97 532.56 627.71 531.31 615.96 531.39L445.72 531.39C447.68 525.6 462.88 500.92 466.94 494.11C501.24 493.65 535.86 494.11 570.22 494.11C598.34 494.11 631.53 499.12 628.63 448.87L528.18 448.79C526.76 428.74 550.81 399.92 558.79 391.08C626.28 316.69 824.22 249.12 922.97 221C944.33 214.9 970.97 206.2 992.96 202.38L982.32 632.16C974.64 635.85 958.99 640.3 950.15 643.12C939.26 646.65 928.92 650.26 918.28 653.77C851.25 675.62 793.78 695.9 727.93 720.26C644.92 750.94 561.62 782.73 478.77 813.82L291.23 884.2C277.84 889.29 267.98 890.24 262.03 878.27C256.39 867.06 265.96 856.34 270.65 848.42C292.25 812.48 313.32 776.94 334.61 741.46L382.78 661.2C387.47 653.39 394.12 640.86 398.67 634.74C422.25 633.18 450.35 634.5 474.46 634.5C502.02 634.5 607.34 635.93 625.66 634.04C647.67 631.78 664.97 621.59 665.83 599.04L414.87 599.04Z" fill="#8bb4de" fill-rule="evenodd"></path><path d="M1594.15 634.5C1605.03 651.34 1615.84 670.44 1626.34 688.06L1722.58 848.66C1727.35 856.72 1737.69 868.71 1730.01 880.13C1722.42 891.42 1711.53 888.13 1699.79 883.42C1679.28 875.36 1658.05 867.93 1637.22 860.01C1595.73 844.19 1554.78 828.62 1513.05 813.34C1429.72 782.82 1347.04 751.03 1263.81 719.77C1242.82 711.96 1222.16 704.44 1201.33 696.28L1139.55 673.19C1129.21 669.66 1015.91 634.66 1010.28 631.7L1000.1 202.38C1011.12 203.86 1056.87 217.17 1070.42 221.08C1093.11 227.65 1117 234.47 1138.61 242.07C1161.24 250.06 1182.37 256.94 1204.86 265.18C1265.05 287.17 1335.15 317.86 1385.8 351.77C1412.96 370.01 1465.66 412.37 1464.96 448.79L1364.35 449.01C1361.85 498.82 1393.7 494.11 1423.31 494.11C1440.3 494.11 1515.93 493.25 1526.28 494.35L1547.26 530.53C1539.97 532.8 1404.2 531.55 1377.58 531.39C1366.46 531.31 1363.25 532.5 1358.4 540.01C1354.79 545.57 1352.45 554.65 1352.75 562.32L1563.62 562.32C1566.99 563.34 1578.11 597.4 1578.25 599.04L1327.23 599.04C1328.25 622.06 1345.95 632.48 1368.96 634.2C1391.98 636.01 1420.34 634.58 1443.97 634.58L1594.15 634.58Z" fill="#8bb4de" fill-rule="evenodd"></path><path d="M763.47 1366.92C766.52 1364.66 769.34 1364.2 772.95 1362.77C842.63 1335.13 871.21 1321.98 931.34 1271.95C936.28 1267.88 939.8 1263.11 944.33 1258.8C956.48 1247.44 969.95 1230.46 979.11 1215.26C991.72 1194.44 988.35 1196.86 995.25 1182.37L996.95 1179.4C1021.95 1251.04 1093.03 1303.5 1155.61 1335.13C1167.03 1340.95 1179.32 1346.66 1191.39 1351.67C1197.48 1354.1 1203.83 1356.68 1210.09 1359.11C1213.3 1360.35 1216.28 1361.37 1219.57 1362.63C1223.02 1363.88 1227.17 1364.82 1229.75 1366.86C1211.19 1367.48 1160.22 1361.37 1135.4 1359.81C1123.03 1358.95 1079.26 1393.48 997.81 1393.32C914.83 1393.24 869.49 1360.59 860.79 1359.73C854.07 1359.11 835.89 1361.53 828.07 1362.15C807.79 1363.72 783.43 1366.86 763.47 1366.92" fill="#8bb4de" fill-rule="evenodd"></path><path d="M274.41 905.27C278.24 902.46 435.55 848.74 454.04 842.47C573.74 801.76 693.93 758.14 813.12 718.37C843.03 708.43 873.48 698.17 903 687.52C916.71 682.59 985.45 656.91 993.12 657.54C994.77 678.36 976.91 682.59 961.09 689L823.84 744.29C763.15 768.72 702.87 792.92 641.4 817.65L366.96 927.28C345.27 935.82 336.89 936.9 315.59 927.04C311.84 925.31 277.22 908.96 274.41 905.27" fill="#8bb4de" fill-rule="evenodd"></path><path d="M1001.1 657.37C1007.05 657.45 1162.56 711.88 1181.28 718.53L1450.41 811.78C1480.15 821.88 1510.46 832.15 1540.21 842.79C1559.15 849.52 1714.82 901.28 1718.73 905.59C1715.76 909.98 1704.17 914.13 1698.22 916.94C1672.38 929.3 1660.64 941.21 1625.48 927.28C1595.41 915.37 1565.72 902.84 1534.96 890.4C1474.2 865.74 1413.68 841.85 1352.53 817.19C1291.21 792.52 1231.08 768.4 1170.08 743.89C1139.15 731.44 1109 719.69 1078.39 707.25C1062.74 700.83 1047.93 694.96 1032.59 688.76C1018.88 683.21 997.19 677.5 1001.1 657.37" fill="#8bb4de" fill-rule="evenodd"></path><path d="M932.99 803.4C887.97 800.36 886.87 803.1 863.15 835.43C863.37 809.43 885.7 790.17 911.22 793.92C915.69 794.56 919.14 795.64 923.13 797.23L930.48 800.74C932.83 802.62 931.51 801.3 932.99 803.4" fill="#8bb4de" fill-rule="evenodd"></path><path d="M1061.56 803.4C1062.96 801.52 1061.64 802.86 1063.44 801.3C1064.54 800.36 1065 800.03 1066.19 799.41C1067.75 798.55 1069.93 797.77 1071.42 797.23C1104.47 784.54 1131.47 807.47 1131.39 835.43C1107.6 802.38 1105.25 800.52 1061.56 803.4" fill="#8bb4de" fill-rule="evenodd"></path><path d="M1013.49 843.89C1034.62 814.53 1082 822.59 1090.06 857.36C1082.86 852.89 1075.73 840.83 1058.11 836.46C1039.09 831.67 1028.04 840.12 1013.49 843.89" fill="#8bb4de" fill-rule="evenodd"></path><path d="M980.59 762.93C965.8 759.7 956.4 751.18 937.3 755.55C920.14 759.56 913.64 770.21 904.56 776.7C909.11 755.33 935.41 736.85 962.67 748.9C969.95 752.19 978.09 757.92 980.59 762.93" fill="#8bb4de" fill-rule="evenodd"></path><path d="M1014.03 762.93C1019.28 752.51 1040.97 742.16 1058.27 745.85C1072.98 748.98 1087.15 762.69 1090.06 776.7C1081.22 770.37 1074.95 760.02 1058.11 755.8C1038.85 750.86 1029.14 759.48 1014.03 762.93" fill="#8bb4de" fill-rule="evenodd"></path><path d="M980.43 843.49C962.98 839.18 944.65 826.03 918.98 844.89C913.26 849.12 909.11 854.54 904.56 857.36C907.93 843.19 921 830.1 935.49 826.73C953.57 822.42 975.42 833.39 980.43 843.49" fill="#8bb4de" fill-rule="evenodd"></path><path d="M959.23 798.63C963.46 788.13 981.54 775.38 998.92 776C1016.62 776.54 1031.81 789.85 1035.88 802.08C1017.64 790.95 1005.65 778.97 978.01 789.71C971.35 792.28 965.1 796.83 959.23 798.63" fill="#8bb4de" fill-rule="evenodd"></path><path d="M635.92 1070.72C626.98 1158.74 692.85 1228.25 770.36 1236.01C858.52 1244.87 927.82 1178.86 935.49 1101.19C944.19 1013.17 878.41 944.04 800.43 936.28C712.73 927.66 643.74 993.67 635.92 1070.72M696.14 1266.64L671.94 1251.99C663.71 1246.59 657.05 1240.56 649.85 1234.85C646.17 1232.02 643.12 1228.41 639.91 1225.21C637.09 1222.46 632.72 1218.55 630.13 1215.34C596.53 1173.85 577.43 1132.42 581.82 1069.16C584.09 1036.5 593.01 1006.2 610.39 980.36C634.5 944.42 671.3 921.41 710.15 903.79C715.54 901.36 720.87 899.64 724.16 896.35C699.02 897.37 664.51 907.15 643.28 919.68C630.35 927.28 628.87 931.27 623.56 934.64C616.34 924.07 611.57 872 612.73 856.5C649.23 844.11 685.87 828.78 722.06 815.55C740.52 808.81 758.46 801.92 776.62 795.02C788.99 790.33 822.28 777.32 833.79 775.22C836.45 829.32 846.47 837.16 874.34 880.78C894.38 912.17 925.63 963.68 945.92 992.03C950.99 999.08 956.48 1006.76 960.95 1014.03C991.94 1064.53 988.57 1142.6 964.54 1192.01C934.31 1254.33 860.57 1291.84 798.31 1318.53C744.69 1341.57 687.2 1365.06 642.8 1400.22C629.27 1410.86 624.96 1421.04 616.96 1430.2C611.03 1420.4 609.3 1387.53 610.23 1374.3C616.1 1288.55 690.41 1272.19 696.14 1266.64" fill="#142a3d" fill-rule="evenodd"></path><path d="M1057.03 1078.32C1052.32 1163.75 1119.02 1232.18 1199.12 1236.57C1285.58 1241.34 1353.69 1173.93 1357.76 1093.43C1362.15 1008.4 1295.28 939.89 1215.5 935.82C1129.45 931.43 1061.4 997.52 1057.03 1078.32M1159.27 775.84C1164.83 775.84 1321.82 835.89 1352.69 847.56C1361.53 850.93 1371.71 854 1380.17 858.06C1382.98 884.76 1374.84 911.14 1370.23 935.04C1364.98 932.75 1368.02 932.75 1360.34 926.88C1356.52 923.99 1354.09 922.43 1350.02 919.84C1343.53 915.69 1333.97 911.46 1326.29 908.72C1313.22 904.11 1298.57 900.34 1284.64 898.15L1273.13 896.65C1272.19 896.73 1275.31 893.76 1269.14 897.99C1293.41 904.17 1346.57 938.08 1364.89 958.29C1389.55 985.45 1407.49 1017.78 1411.18 1068.7C1415.39 1128.19 1396.53 1177.22 1362.39 1215.5C1354.95 1223.8 1350.56 1227.55 1342.73 1235.07C1324.4 1252.39 1313.06 1255.51 1296.46 1267.02C1314.16 1275.86 1317.99 1274.08 1337.79 1289.03C1380.31 1321.2 1393.16 1378.21 1376.32 1430.83C1370.85 1425.58 1369.75 1415.09 1341.4 1393.16C1327.93 1382.74 1313.46 1374.22 1296.38 1365.28C1210.09 1319.88 1074.87 1284.88 1028.98 1193.03C1011.6 1158.34 1005.11 1112.85 1012.79 1069.4C1019.66 1030.39 1028.2 1019.91 1046.44 993.13C1077.61 947.32 1116.3 885.47 1146.05 837C1155.05 822.28 1158.17 795.64 1159.27 775.84" fill="#142a3d" fill-rule="evenodd"></path><path d="M1168.84 1050.29C1144.4 1084.57 1193.19 1106.58 1207.2 1077.78C1213.08 1065.63 1207.5 1057.49 1202.57 1050.35C1226.14 1053.58 1250.88 1083.87 1246.59 1117.14C1237.73 1185.28 1137.27 1188.4 1125.38 1119.51C1119.51 1085.59 1143.3 1055.53 1168.84 1050.29" fill="#142a3d" fill-rule="evenodd"></path><path d="M822.66 1050.35C848.58 1055.07 871.29 1086.38 866.52 1117.71C855.86 1187.78 754.31 1186.76 744.99 1116.76C740.76 1085.05 763.31 1055.31 788.93 1050.3C784.84 1057.87 778.1 1064.39 784.38 1077.46C793.46 1096.26 819.7 1095.24 827.59 1076.83C833.47 1063.36 825.87 1055.77 822.66 1050.35" fill="#142a3d" fill-rule="evenodd"></path><path d="M822.66 1050.35C825.87 1055.77 833.47 1063.36 827.59 1076.83C819.7 1095.24 793.46 1096.26 784.38 1077.46C778.1 1064.39 784.84 1057.87 788.93 1050.3C763.31 1055.31 740.76 1085.05 744.99 1116.76C754.31 1186.76 855.86 1187.78 866.52 1117.71C871.29 1086.38 848.58 1055.07 822.66 1050.35M635.92 1070.72C643.74 993.67 712.74 927.66 800.43 936.28C878.41 944.04 944.19 1013.17 935.49 1101.19C927.82 1178.86 858.52 1244.87 770.36 1236.01C692.85 1228.25 626.98 1158.74 635.92 1070.72" fill="#ffffff" fill-rule="evenodd"></path><path d="M1168.84 1050.29C1143.3 1055.53 1119.51 1085.59 1125.38 1119.51C1137.27 1188.4 1237.73 1185.28 1246.59 1117.14C1250.88 1083.87 1226.14 1053.58 1202.57 1050.35C1207.5 1057.49 1213.08 1065.63 1207.2 1077.78C1193.19 1106.58 1144.4 1084.57 1168.84 1050.29M1057.03 1078.32C1061.4 997.52 1129.45 931.43 1215.5 935.82C1295.28 939.89 1362.15 1008.4 1357.76 1093.43C1353.69 1173.93 1285.58 1241.34 1199.12 1236.57C1119.02 1232.18 1052.31 1163.75 1057.03 1078.32" fill="#ffffff" fill-rule="evenodd"></path></g></svg>