<svg xmlns="http://www.w3.org/2000/svg" viewBox="0 0 2000 2000"><g transform="matrix(1,0,0,-1,0,2000)"><path d="M945.28 950.61C962.03 943.88 979.89 921.79 988.19 905.51C991.56 899.02 993.44 891.42 996.49 884.92C1003.39 899.4 1003.47 907.31 1016.37 923.75C1024.99 934.56 1034.07 943.72 1047.86 950.77C1042.53 963.06 1009.48 991.16 996.73 999.62C991.32 997.36 973.94 982 968.93 977.69C966.42 975.59 965.48 974.1 963.14 971.6C960.71 968.93 959.45 968.15 956.4 965.24C953.65 962.74 947.16 954.84 945.28 950.61" fill="#fda331" fill-rule="evenodd"></path><path d="M976.29 1684.84C957.58 1678.88 962.67 1654.93 962.67 1634.48L962.67 1506.07C962.67 1496.51 961.09 1484.77 965.8 1477.25C969.33 1471.62 977.55 1465.98 987.87 1469.19C1006.05 1474.91 1001.34 1498.8 1001.34 1519.14L1001.34 1647.55C1001.34 1656.79 1002.91 1669.02 998.59 1676.62C994.85 1683.27 986.07 1687.96 976.29 1684.84" fill="#ffcb43" fill-rule="evenodd"></path><path d="M1092.1 1668.32C1081.84 1665.81 1072.98 1656.57 1077.93 1642.7C1080.74 1634.64 1129.61 1588.2 1137.43 1580.38C1151.3 1566.51 1164.37 1553.44 1178.22 1539.59C1185.19 1532.61 1191.39 1526.42 1198.34 1519.46C1203.59 1514.21 1212.05 1502.87 1225.68 1506.78C1234.76 1509.36 1243.3 1519.46 1238.43 1532.29C1236.17 1538.33 1184.49 1588.44 1178.62 1594.23C1164.53 1608.1 1151.6 1621.17 1137.67 1635.02C1130.69 1642.08 1124.52 1648.19 1117.54 1655.15C1112.21 1660.48 1104.93 1671.36 1092.1 1668.32" fill="#ffcb43" fill-rule="evenodd"></path><path d="M864.47 1668.46C853.51 1665.87 830.18 1639.11 821.42 1630.25C807.55 1616.4 794.48 1603.31 780.61 1589.46C766.76 1575.61 753.69 1562.44 739.82 1548.67C734.26 1543.1 723.62 1535.98 724.48 1523.45C725.26 1512.25 736.07 1503.65 748.19 1506.46C756.41 1508.34 765.65 1519.55 770.52 1524.4L872.31 1626.18C877.62 1631.6 888.51 1639.17 887.19 1651.86C886.08 1662.2 875.98 1671.13 864.47 1668.46" fill="#ffcb43" fill-rule="evenodd"></path><path d="M414.87 598.96C415.11 593.33 425.37 570.08 427.72 562.32L640.37 562C640.29 554.1 638.51 546.35 634.74 540.31C629.97 532.56 627.71 531.31 615.96 531.39L445.72 531.39C447.68 525.6 462.88 500.92 466.94 494.11C501.24 493.65 535.86 494.11 570.22 494.11C598.34 494.11 631.53 499.12 628.63 448.87L528.18 448.79C526.76 428.74 550.81 399.92 558.79 391.08C626.28 316.69 824.22 249.12 922.97 221C944.33 214.9 970.97 206.2 992.96 202.38L982.32 632.16C974.64 635.85 958.99 640.3 950.15 643.12C939.26 646.65 928.92 650.26 918.28 653.77C851.25 675.62 793.78 695.9 727.93 720.26C644.92 750.94 561.62 782.73 478.77 813.82L291.23 884.2C277.84 889.29 267.98 890.24 262.03 878.27C256.39 867.06 265.96 856.34 270.65 848.42C292.25 812.48 313.32 776.94 334.61 741.46L382.78 661.2C387.47 653.39 394.12 640.86 398.67 634.74C422.25 633.18 450.35 634.5 474.46 634.5C502.02 634.5 607.34 635.93 625.66 634.04C647.67 631.78 664.97 621.59 665.83 599.04L414.87 599.04Z" fill="#8bb4de" fill-rule="evenodd"></path><path d="M1594.15 634.5C1605.03 651.34 1615.84 670.44 1626.34 688.06L1722.58 848.66C1727.35 856.72 1737.69 868.71 1730.01 880.13C1722.42 891.42 1711.53 888.13 1699.79 883.42C1679.28 875.36 1658.05 867.93 1637.22 860.01C1595.73 844.19 1554.78 828.62 1513.05 813.34C1429.72 782.82 1347.04 751.03 1263.81 719.77C1242.82 711.96 1222.16 704.44 1201.33 696.28L1139.55 673.19C1129.21 669.66 1015.91 634.66 1010.28 631.7L1000.1 202.38C1011.12 203.86 1056.87 217.17 1070.42 221.08C1093.11 227.65 1117 234.47 1138.61 242.07C1161.24 250.06 1182.37 256.94 1204.86 265.18C1265.05 287.17 1335.15 317.86 1385.8 351.77C1412.96 370.01 1465.66 412.37 1464.96 448.79L1364.35 449.01C1361.85 498.82 1393.7 494.11 1423.31 494.11C1440.3 494.11 1515.93 493.25 1526.28 494.35L1547.26 530.53C1539.97 532.8 1404.2 531.55 1377.58 531.39C1366.46 531.31 1363.25 532.5 1358.4 540.01C1354.79 545.57 1352.45 554.65 1352.75 562.32L1563.62 562.32C1566.99 563.34 1578.11 597.4 1578.25 599.04L1327.23 599.04C1328.25 622.06 1345.95 632.48 1368.96 634.2C1391.98 636.01 1420.34 634.58 1443.97 634.58L1594.15 634.58Z" fill="#8bb4de" fill-rule="evenodd"></path><path d="M763.47 1366.92C766.52 1364.66 769.34 1364.2 772.95 1362.77C842.63 1335.13 871.21 1321.98 931.34 1271.95C936.28 1267.88 939.8 1263.11 944.33 1258.8C956.48 1247.44 969.95 1230.46 979.11 1215.26C991.72 1194.44 988.35 1196.86 995.25 1182.37L996.95 1179.4C1021.95 1251.04 1093.03 1303.5 1155.61 1335.13C1167.03 1340.95 1179.32 1346.66 1191.39 1351.67C1197.48 1354.1 1203.83 1356.68 1210.09 1359.11C1213.3 1360.35 1216.28 1361.37 1219.57 1362.63C1223.02 1363.88 1227.17 1364.82 1229.75 1366.86C1211.19 1367.48 1160.22 1361.37 1135.4 1359.81C1123.03 1358.95 1079.26 1393.48 997.81 1393.32C914.83 1393.24 869.49 1360.59 860.79 1359.73C854.07 1359.11 835.89 1361.53 828.07 1362.15C807.79 1363.72 783.43 1366.86 763.47 1366.92" fill="#8bb4de" fill-rule="evenodd"></path><path d="M274.41 905.27C278.24 902.46 435.55 848.74 454.04 842.47C573.74 801.76 693.93 758.14 813.12 718.37C843.03 708.43 873.48 698.17 903 687.52C916.71 682.59 985.45 656.91 993.12 657.54C994.77 678.36 976.91 682.59 961.09 689L823.84 744.29C763.15 768.72 702.87 792.92 641.4 817.65L366.96 927.28C345.27 935.82 336.89 936.9 315.59 927.04C311.84 925.31 277.22 908.96 274.41 905.27" fill="#8bb4de" fill-rule="evenodd"></path><path d="M1001.1 657.37C1007.05 657.45 1162.56 711.88 1181.28 718.53L1450.41 811.78C1480.15 821.88 1510.46 832.15 1540.21 842.79C1559.15 849.52 1714.82 901.28 1718.73 905.59C1715.76 909.98 1704.17 914.13 1698.22 916.94C1672.38 929.3 1660.64 941.21 1625.48 927.28C1595.41 915.37 1565.72 902.84 1534.96 890.4C1474.2 865.74 1413.68 841.85 1352.53 817.19C1291.21 792.52 1231.08 768.4 1170.08 743.89C1139.15 731.44 1109 719.69 1078.39 707.25C1062.74 700.83 1047.93 694.96 1032.59 688.76C1018.88 683.21 997.19 677.5 1001.1 657.37" fill="#8bb4de" fill-rule="evenodd"></path><path d="M932.99 803.4C887.97 800.36 886.87 803.1 863.15 835.43C863.37 809.43 885.7 790.17 911.22 793.92C915.69 794.56 919.14 795.64 923.13 797.23L930.48 800.74C932.83 802.62 931.51 801.3 932.99 803.4" fill="#8bb4de" fill-rule="evenodd"></path><path d="M1061.56 803.4C1062.96 801.52 1061.64 802.86 1063.44 801.3C1064.54 800.36 1065 800.03 1066.19 799.41C1067.75 798.55 1069.93 797.77 1071.42 797.23C1104.47 784.54 1131.47 807.47 1131.39 835.43C1107.6 802.38 1105.25 800.52 1061.56 803.4" fill="#8bb4de" fill-rule="evenodd"></path><path d="M1013.49 843.89C1034.62 814.53 1082 822.59 1090.06 857.36C1082.86 852.89 1075.73 840.83 1058.11 836.46C1039.09 831.67 1028.04 840.12 1013.49 843.89" fill="#8bb4de" fill-rule="evenodd"></path><path d="M980.59 762.93C965.8 759.7 956.4 751.18 937.3 755.55C920.14 759.56 913.64 770.21 904.56 776.7C909.11 755.33 935.41 736.85 962.67 748.9C969.95 752.19 978.09 757.92 980.59 762.93" fill="#8bb4de" fill-rule="evenodd"></path><path d="M1014.03 762.93C1019.28 752.51 1040.97 742.16 1058.27 745.85C1072.98 748.98 1087.15 762.69 1090.06 776.7C1081.22 770.37 1074.95 760.02 1058.11 755.8C1038.85 750.86 1029.14 759.48 1014.03 762.93" fill="#8bb4de" fill-rule="evenodd"></path><path d="M980.43 843.49C962.98 839.18 944.65 826.03 918.98 844.89C913.26 849.12 909.11 854.54 904.56 857.36C907.93 843.19 921 830.1 935.49 826.73C953.57 822.42 975.42 833.39 980.43 843.49" fill="#8bb4de" fill-rule="evenodd"></path><path d="M959.23 798.63C963.46 788.13 981.54 775.38 998.92 776C1016.62 776.54 1031.81 789.85 1035.88 802.08C1017.64 790.95 1005.65 778.97 978.01 789.71C971.35 792.28 965.1 796.83 959.23 798.63" fill="#8bb4de" fill-rule="evenodd"></path><path d="M1193.25 1926.46C1265.77 1927.26 1338.74 1926.54 1411.32 1926.54C1485.48 1926.54 1538.88 1924.11 1604.33 1901.64C1660.16 1882.46 1707.22 1854.73 1745.35 1824.91C1756.31 1816.29 1765.09 1808.23 1774.71 1799.85C1787.08 1789.13 1817.31 1755.37 1826.63 1742.92C1868.52 1687.18 1896.46 1634.24 1914.4 1558.53C1930.06 1492.68 1926.39 1422.45 1926.39 1352.61L1926.39 589.72C1926.39 553.7 1926.93 520.11 1922.24 484.73C1911.12 401.4 1874.94 315.99 1825.14 255.21C1802.05 227.11 1784.89 208.47 1757.87 185.46C1676.99 116.48 1571.6 76.23 1461.35 73.73C1389.55 72.08 1315.81 73.57 1243.76 73.57L589.8 73.57C517.14 73.57 460.99 75.67 396.63 98.3C345.89 116.16 295.46 142 255.45 174.73C215.52 207.47 215.52 209.49 186.16 241.52C140.19 291.72 102.45 371.57 85.85 440.57C69.96 506.58 73.64 576.49 73.64 646.33L73.64 1409.22C73.64 1445.24 73.1 1478.89 77.63 1514.29C89.22 1603.71 123.84 1678.48 174.81 1744.89C221.15 1805.27 289.21 1856.86 358.82 1887.23C411.66 1910.26 472.5 1925.21 537.56 1926.4C610.08 1927.8 684.31 1926.86 756.97 1926.54L752.26 1920.28C750.32 1918.02 750 1917.86 747.49 1915.35C743.88 1911.82 741.86 1908.38 738.25 1904.93L680.38 1843.15C674.75 1836.89 667.01 1829.46 661.2 1823.1C650.48 1811.28 607.88 1769.16 604.05 1760L1358.86 1759.92C1357.3 1762.67 1342.18 1776.52 1338.44 1780.35C1337.49 1781.29 1337.25 1781.53 1336.31 1782.47L1328.09 1790.61C1324.32 1794.38 1321.44 1797.27 1317.75 1800.95C1279.08 1839.62 1237.49 1882.46 1198.66 1920.2L1194.83 1924.11C1193.03 1926.46 1195.29 1922.55 1193.25 1926.46M534.84 1978.15C462.17 1975.48 394.12 1959.97 335.47 1933.43C293.12 1914.33 256.23 1892.1 221.56 1864.54C112.25 1777.46 40.45 1652.42 24.94 1509.36C19.7 1460.89 21.89 1325.51 21.89 1268.82L21.89 657.13C21.89 616.5 20.87 574.61 22.05 534.14C29.87 264.4 236.51 52.2 490.9 24.94C539.15 19.77 674.67 21.89 731.22 21.89L1220.89 21.89C1302.01 21.89 1384.86 20.25 1465.74 22.05C1597.38 24.94 1718.57 77.8 1811.83 164.09C1828.89 179.91 1855.29 209.89 1869.62 228.21C1925.75 300.09 1964.6 393.74 1975 490.68C1980.25 539.53 1978.15 674.21 1978.15 731.14L1978.15 1342.81C1978.15 1470.29 1984.96 1544.44 1933.35 1664.71C1916.29 1704.4 1890.29 1746.13 1864.37 1778.56C1858.74 1785.6 1841.2 1806.99 1835.63 1811.84C1820.29 1825.61 1810.81 1838.38 1788.66 1856.24C1708.7 1920.74 1619.14 1963.74 1509.36 1975.16C1459.17 1980.42 1326.77 1978.29 1268.74 1978.29L657.21 1978.29C617.04 1978.29 574.61 1979.55 534.84 1978.07Z" fill="#142a3d" fill-rule="evenodd"></path><path d="M635.92 1070.72C626.98 1158.74 692.85 1228.25 770.36 1236.01C858.52 1244.87 927.82 1178.86 935.49 1101.19C944.19 1013.17 878.41 944.04 800.43 936.28C712.73 927.66 643.74 993.67 635.92 1070.72M696.14 1266.64L671.94 1251.99C663.71 1246.59 657.05 1240.56 649.85 1234.85C646.17 1232.02 643.12 1228.41 639.91 1225.21C637.09 1222.46 632.72 1218.55 630.13 1215.34C596.53 1173.85 577.43 1132.42 581.82 1069.16C584.09 1036.5 593.01 1006.2 610.39 980.36C634.5 944.42 671.3 921.41 710.15 903.79C715.54 901.36 720.87 899.64 724.16 896.35C699.02 897.37 664.51 907.15 643.28 919.68C630.35 927.28 628.87 931.27 623.56 934.64C616.34 924.07 611.57 872 612.73 856.5C649.23 844.11 685.87 828.78 722.06 815.55C740.52 808.81 758.46 801.92 776.62 795.02C788.99 790.33 822.28 777.32 833.79 775.22C836.45 829.32 846.47 837.16 874.34 880.78C894.38 912.17 925.63 963.68 945.92 992.03C950.99 999.08 956.48 1006.76 960.95 1014.03C991.94 1064.53 988.57 1142.6 964.54 1192.01C934.31 1254.33 860.57 1291.84 798.31 1318.53C744.69 1341.57 687.2 1365.06 642.8 1400.22C629.27 1410.86 624.96 1421.04 616.96 1430.2C611.03 1420.4 609.3 1387.53 610.23 1374.3C616.1 1288.55 690.41 1272.19 696.14 1266.64" fill="#142a3d" fill-rule="evenodd"></path><path d="M1057.03 1078.32C1052.32 1163.75 1119.02 1232.18 1199.12 1236.57C1285.58 1241.34 1353.69 1173.93 1357.76 1093.43C1362.15 1008.4 1295.28 939.89 1215.5 935.82C1129.45 931.43 1061.4 997.52 1057.03 1078.32M1159.27 775.84C1164.83 775.84 1321.82 835.89 1352.69 847.56C1361.53 850.93 1371.71 854 1380.17 858.06C1382.98 884.76 1374.84 911.14 1370.23 935.04C1364.98 932.75 1368.02 932.75 1360.34 926.88C1356.52 923.99 1354.09 922.43 1350.02 919.84C1343.53 915.69 1333.97 911.46 1326.29 908.72C1313.22 904.11 1298.57 900.34 1284.64 898.15L1273.13 896.65C1272.19 896.73 1275.31 893.76 1269.14 897.99C1293.41 904.17 1346.57 938.08 1364.89 958.29C1389.55 985.45 1407.49 1017.78 1411.18 1068.7C1415.39 1128.19 1396.53 1177.22 1362.39 1215.5C1354.95 1223.8 1350.56 1227.55 1342.73 1235.07C1324.4 1252.39 1313.06 1255.51 1296.46 1267.02C1314.16 1275.86 1317.99 1274.08 1337.79 1289.03C1380.31 1321.2 1393.16 1378.21 1376.32 1430.83C1370.85 1425.58 1369.75 1415.09 1341.4 1393.16C1327.93 1382.74 1313.46 1374.22 1296.38 1365.28C1210.09 1319.88 1074.87 1284.88 1028.98 1193.03C1011.6 1158.34 1005.11 1112.85 1012.79 1069.4C1019.66 1030.39 1028.2 1019.91 1046.44 993.13C1077.61 947.32 1116.3 885.47 1146.05 837C1155.05 822.28 1158.17 795.64 1159.27 775.84" fill="#142a3d" fill-rule="evenodd"></path><path d="M1168.84 1050.29C1144.4 1084.57 1193.19 1106.58 1207.2 1077.78C1213.08 1065.63 1207.5 1057.49 1202.57 1050.35C1226.14 1053.58 1250.88 1083.87 1246.59 1117.14C1237.73 1185.28 1137.27 1188.4 1125.38 1119.51C1119.51 1085.59 1143.3 1055.53 1168.84 1050.29" fill="#142a3d" fill-rule="evenodd"></path><path d="M822.66 1050.35C848.58 1055.07 871.29 1086.38 866.52 1117.71C855.86 1187.78 754.31 1186.76 744.99 1116.76C740.76 1085.05 763.31 1055.31 788.93 1050.3C784.84 1057.87 778.1 1064.39 784.38 1077.46C793.46 1096.26 819.7 1095.24 827.59 1076.83C833.47 1063.36 825.87 1055.77 822.66 1050.35" fill="#142a3d" fill-rule="evenodd"></path><path d="M1014.03 762.93C1029.14 759.48 1038.85 750.86 1058.11 755.8C1074.95 760.02 1081.22 770.37 1090.06 776.7C1087.15 762.69 1072.98 748.98 1058.27 745.85C1040.97 742.16 1019.28 752.51 1014.03 762.93M980.59 762.93C978.09 757.92 969.95 752.19 962.67 748.9C935.41 736.85 909.11 755.33 904.56 776.7C913.64 770.21 920.14 759.56 937.3 755.55C956.4 751.18 965.8 759.7 980.59 762.93M959.23 798.63C965.1 796.83 971.35 792.28 978.01 789.71C1005.65 778.97 1017.64 790.95 1035.88 802.08C1031.81 789.85 1016.62 776.54 998.92 776C981.54 775.38 963.46 788.13 959.23 798.63M911.22 793.92C885.7 790.17 863.37 809.44 863.15 835.43C886.86 803.1 887.97 800.36 932.99 803.4C931.51 801.3 932.83 802.62 930.48 800.74L923.13 797.23C919.14 795.64 915.69 794.56 911.22 793.92M1061.56 803.4C1105.25 800.52 1107.6 802.38 1131.39 835.43C1131.39 807.47 1104.47 784.54 1071.42 797.23C1069.93 797.77 1067.75 798.55 1066.19 799.41C1065 800.03 1064.54 800.36 1063.44 801.3C1061.64 802.86 1062.96 801.52 1061.56 803.4M1013.49 843.89C1028.04 840.12 1039.09 831.67 1058.11 836.46C1075.73 840.83 1082.86 852.89 1090.06 857.36C1082 822.58 1034.62 814.53 1013.49 843.89M980.43 843.49C975.42 833.39 953.57 822.42 935.49 826.73C921 830.1 907.93 843.19 904.56 857.36C909.11 854.54 913.26 849.12 918.98 844.89C944.65 826.03 962.98 839.18 980.43 843.49M1594.15 634.5L1443.97 634.5C1420.34 634.5 1391.98 636.01 1368.96 634.2C1345.95 632.48 1328.25 622.06 1327.23 599.04L1578.25 599.04C1578.11 597.4 1566.99 563.34 1563.62 562.32L1352.75 562.32C1352.45 554.64 1354.79 545.57 1358.4 540.01C1363.25 532.5 1366.46 531.31 1377.58 531.39C1404.2 531.55 1539.97 532.8 1547.26 530.53L1526.28 494.35C1515.93 493.25 1440.3 494.11 1423.31 494.11C1393.7 494.11 1361.85 498.82 1364.35 449.01L1464.96 448.79C1465.66 412.37 1412.96 370.01 1385.8 351.77C1335.15 317.86 1265.05 287.17 1204.86 265.18C1182.37 256.94 1161.24 250.06 1138.61 242.07C1117 234.47 1093.11 227.65 1070.42 221.08C1056.87 217.17 1011.12 203.78 1000.1 202.38L1010.28 631.7C1015.91 634.66 1129.21 669.66 1139.55 673.19L1201.33 696.28C1222.16 704.44 1242.82 711.96 1263.81 719.77C1347.03 751.02 1429.72 782.82 1513.05 813.34C1554.78 828.62 1595.73 844.11 1637.22 860.01C1658.05 867.93 1679.28 875.36 1699.79 883.42C1711.53 888.05 1722.42 891.42 1730.01 880.13C1737.69 868.71 1727.35 856.72 1722.58 848.66L1626.34 688.06C1615.84 670.36 1605.03 651.34 1594.15 634.5M982.32 632.16L992.96 202.38C970.97 206.2 944.33 214.9 922.97 221C824.22 249.12 626.28 316.69 558.79 391.08C550.81 399.92 526.76 428.74 528.18 448.79L628.63 448.87C631.53 499.12 598.34 494.11 570.22 494.11C535.86 494.11 501.24 493.65 466.94 494.11C462.88 500.93 447.68 525.6 445.72 531.39L615.96 531.39C627.71 531.31 629.97 532.56 634.74 540.31C638.51 546.35 640.29 554.1 640.37 562L427.72 562.32C425.37 570.14 415.11 593.33 414.87 599.04L665.83 599.04C664.97 621.59 647.67 631.78 625.66 634.04C607.34 635.93 502.02 634.5 474.46 634.5C450.35 634.5 422.25 633.18 398.67 634.66C394.12 640.86 387.47 653.39 382.78 661.2L334.61 741.46C313.32 776.94 292.25 812.48 270.65 848.42C265.96 856.34 256.39 866.98 262.03 878.27C267.98 890.24 277.84 889.29 291.23 884.2L478.77 813.82C561.62 782.74 644.92 750.94 727.93 720.26C793.78 695.9 851.25 675.62 918.27 653.77C928.92 650.26 939.26 646.65 950.15 643.12C958.99 640.3 974.64 635.85 982.32 632.16M274.41 905.27C277.22 908.96 311.84 925.31 315.59 927.04C336.89 936.9 345.27 935.82 366.96 927.28L641.4 817.65C702.87 792.92 763.15 768.72 823.84 744.29L961.09 689.01C976.91 682.59 994.77 678.36 993.12 657.54C985.45 656.91 916.71 682.59 903 687.52C873.47 698.17 843.03 708.43 813.12 718.37C693.93 758.14 573.74 801.76 454.04 842.47C435.55 848.74 278.24 902.46 274.41 905.27M1001.1 657.37C997.19 677.5 1018.88 683.21 1032.59 688.77C1047.93 694.96 1062.74 700.83 1078.39 707.25C1109 719.69 1139.15 731.44 1170.08 743.89C1231.08 768.4 1291.21 792.52 1352.53 817.19C1413.68 841.85 1474.2 865.74 1534.96 890.4C1565.72 902.84 1595.41 915.37 1625.48 927.28C1660.64 941.21 1672.38 929.3 1698.22 916.94C1704.17 914.13 1715.76 909.98 1718.73 905.59C1714.82 901.28 1559.15 849.52 1540.21 842.79C1510.46 832.15 1480.15 821.88 1450.41 811.78L1181.28 718.53C1162.56 711.88 1007.05 657.45 1001.1 657.37M945.28 950.61C947.16 954.84 953.65 962.74 956.4 965.24C959.45 968.15 960.71 968.93 963.14 971.6C965.48 974.1 966.42 975.59 968.93 977.69C973.94 982 991.32 997.36 996.73 999.62C1009.48 991.16 1042.53 963.06 1047.86 950.77C1034.07 943.72 1024.99 934.55 1016.37 923.75C1003.47 907.31 1003.39 899.4 996.49 884.92C993.44 891.42 991.56 899.02 988.19 905.51C979.89 921.79 962.03 943.88 945.28 950.61M763.47 1366.92C783.43 1366.86 807.79 1363.72 828.07 1362.15C835.89 1361.53 854.07 1359.11 860.79 1359.73C869.49 1360.59 914.83 1393.24 997.81 1393.32C1079.26 1393.48 1123.03 1358.95 1135.4 1359.81C1160.22 1361.37 1211.19 1367.48 1229.75 1366.86C1227.17 1364.82 1223.02 1363.88 1219.57 1362.63C1216.28 1361.37 1213.3 1360.35 1210.09 1359.11C1203.83 1356.68 1197.48 1354.09 1191.39 1351.67C1179.32 1346.66 1167.03 1340.95 1155.61 1335.13C1093.03 1303.5 1021.95 1251.04 996.95 1179.4L995.25 1182.37C988.35 1196.86 991.72 1194.44 979.11 1215.26C969.95 1230.46 956.48 1247.44 944.33 1258.8C939.8 1263.11 936.28 1267.88 931.34 1271.95C871.21 1321.98 842.63 1335.13 772.95 1362.77C769.34 1364.2 766.52 1364.66 763.47 1366.92M1159.27 775.84C1158.17 795.64 1155.05 822.28 1146.05 837C1116.3 885.47 1077.61 947.32 1046.44 993.13C1028.2 1019.91 1019.66 1030.39 1012.79 1069.4C1005.11 1112.85 1011.6 1158.34 1028.98 1193.03C1074.87 1284.88 1210.09 1319.88 1296.38 1365.28C1313.46 1374.22 1327.93 1382.74 1341.4 1393.16C1369.75 1415.09 1370.85 1425.57 1376.32 1430.83C1393.16 1378.21 1380.31 1321.2 1337.79 1289.03C1317.99 1274.08 1314.16 1275.86 1296.46 1267.02C1313.06 1255.51 1324.4 1252.39 1342.73 1235.07C1350.56 1227.55 1354.95 1223.8 1362.39 1215.5C1396.53 1177.22 1415.39 1128.19 1411.18 1068.7C1407.49 1017.78 1389.55 985.45 1364.89 958.29C1346.57 938.08 1293.41 904.17 1269.14 897.99C1275.31 893.76 1272.19 896.73 1273.13 896.65L1284.64 898.15C1298.57 900.34 1313.22 904.11 1326.29 908.72C1333.97 911.46 1343.53 915.69 1350.02 919.84C1354.09 922.43 1356.52 923.99 1360.34 926.88C1368.02 932.75 1364.98 932.75 1370.23 935.04C1374.84 911.14 1382.98 884.76 1380.17 858.06C1371.71 853.99 1361.53 850.93 1352.69 847.56C1321.82 835.89 1164.83 775.84 1159.27 775.84M964.54 1192.01C988.57 1142.6 991.94 1064.53 960.95 1014.03C956.48 1006.76 950.99 999.08 945.92 992.02C925.63 963.68 894.38 912.17 874.34 880.78C846.47 837.16 836.45 829.32 833.79 775.22C822.28 777.32 788.99 790.33 776.62 795.02C758.46 801.92 740.52 808.81 722.06 815.55C685.87 828.78 649.23 844.11 612.73 856.5C611.57 872 616.34 924.07 623.56 934.64C628.87 931.27 630.35 927.28 643.28 919.68C664.51 907.15 699.02 897.37 724.16 896.35C720.87 899.64 715.54 901.36 710.15 903.79C671.3 921.41 634.5 944.42 610.39 980.36C593.01 1006.2 584.09 1036.5 581.82 1069.16C577.43 1132.42 596.53 1173.85 630.13 1215.34C632.72 1218.55 637.09 1222.46 639.91 1225.21C643.12 1228.41 646.17 1232.02 649.85 1234.85C657.05 1240.56 663.71 1246.59 671.94 1251.99L696.14 1266.64C690.41 1272.19 616.1 1288.55 610.23 1374.3C609.3 1387.53 611.03 1420.4 616.96 1430.2C624.96 1421.04 629.27 1410.86 642.8 1400.22C687.2 1365.06 744.69 1341.57 798.31 1318.53C860.57 1291.84 934.31 1254.33 964.54 1192.01M976.29 1684.84C986.07 1687.96 994.85 1683.27 998.6 1676.62C1002.9 1669.02 1001.34 1656.79 1001.34 1647.55L1001.34 1519.14C1001.34 1498.8 1006.05 1474.9 987.87 1469.19C977.55 1465.98 969.33 1471.62 965.8 1477.25C961.09 1484.77 962.67 1496.51 962.67 1506.07L962.67 1634.48C962.67 1654.93 957.58 1678.88 976.29 1684.84M1092.1 1668.32C1104.93 1671.36 1112.21 1660.48 1117.54 1655.15C1124.52 1648.19 1130.69 1642.08 1137.67 1635.02C1151.6 1621.17 1164.53 1608.1 1178.62 1594.23C1184.49 1588.44 1236.17 1538.33 1238.43 1532.29C1243.3 1519.47 1234.76 1509.36 1225.68 1506.78C1212.05 1502.87 1203.59 1514.21 1198.34 1519.47C1191.39 1526.42 1185.19 1532.61 1178.22 1539.59C1164.37 1553.44 1151.3 1566.51 1137.43 1580.38C1129.61 1588.2 1080.74 1634.64 1077.93 1642.7C1072.98 1656.57 1081.84 1665.81 1092.1 1668.32M864.47 1668.46C875.98 1671.12 886.08 1662.2 887.19 1651.86C888.51 1639.17 877.62 1631.6 872.31 1626.18L770.52 1524.48C765.65 1519.55 756.41 1508.42 748.19 1506.45C736.07 1503.65 725.26 1512.25 724.48 1523.45C723.62 1535.98 734.26 1543.1 739.82 1548.67C753.69 1562.44 766.76 1575.61 780.61 1589.46C794.48 1603.31 807.55 1616.4 821.42 1630.25C830.18 1639.11 853.51 1665.87 864.47 1668.46M1193.25 1926.54C1195.3 1922.55 1193.03 1926.46 1194.83 1924.11L1198.66 1920.2C1237.49 1882.46 1279.08 1839.62 1317.75 1800.95C1321.44 1797.27 1324.32 1794.38 1328.09 1790.61L1336.31 1782.47C1337.25 1781.53 1337.49 1781.29 1338.44 1780.35C1342.18 1776.52 1357.3 1762.67 1358.86 1759.92L604.05 1760C607.88 1769.16 650.48 1811.28 661.2 1823.1C667.01 1829.46 674.75 1836.89 680.38 1843.15L738.25 1904.93C741.86 1908.38 743.88 1911.82 747.49 1915.35C750 1917.86 750.32 1918.02 752.26 1920.28L756.97 1926.54C684.31 1926.86 610.09 1927.8 537.56 1926.4C472.5 1925.21 411.66 1910.26 358.82 1887.23C289.21 1856.86 221.15 1805.27 174.81 1744.89C123.84 1678.48 89.22 1603.71 77.63 1514.29C73.1 1478.89 73.65 1445.24 73.65 1409.22L73.65 646.33C73.65 576.49 69.96 506.58 85.85 440.57C102.45 371.58 140.19 291.72 186.16 241.52C215.52 209.49 215.52 207.47 255.45 174.73C295.46 142 345.89 116.16 396.63 98.3C460.99 75.67 517.14 73.57 589.8 73.57L1243.76 73.57C1315.81 73.57 1389.55 72.08 1461.35 73.73C1571.6 76.23 1676.99 116.48 1757.87 185.46C1784.89 208.47 1802.05 227.11 1825.15 255.21C1874.94 315.99 1911.12 401.4 1922.24 484.73C1926.93 520.11 1926.39 553.7 1926.39 589.72L1926.39 1352.61C1926.39 1422.45 1930.06 1492.69 1914.4 1558.53C1896.46 1634.24 1868.52 1687.18 1826.63 1742.92C1817.31 1755.37 1787.08 1789.21 1774.71 1799.85C1765.09 1808.23 1756.31 1816.29 1745.35 1824.91C1707.22 1854.74 1660.16 1882.46 1604.33 1901.64C1538.88 1924.11 1485.48 1926.54 1411.32 1926.54C1338.74 1926.54 1265.77 1927.26 1193.25 1926.54" fill="#ffffff" fill-rule="evenodd"></path><path d="M822.66 1050.35C825.87 1055.77 833.47 1063.36 827.59 1076.83C819.7 1095.24 793.46 1096.26 784.38 1077.46C778.1 1064.39 784.84 1057.87 788.93 1050.3C763.31 1055.31 740.76 1085.05 744.99 1116.76C754.31 1186.76 855.86 1187.78 866.52 1117.71C871.29 1086.38 848.58 1055.07 822.66 1050.35M635.92 1070.72C643.74 993.67 712.74 927.66 800.43 936.28C878.41 944.04 944.19 1013.17 935.49 1101.19C927.82 1178.86 858.52 1244.87 770.36 1236.01C692.85 1228.25 626.98 1158.74 635.92 1070.72" fill="#ffffff" fill-rule="evenodd"></path><path d="M1168.84 1050.29C1143.3 1055.53 1119.51 1085.59 1125.38 1119.51C1137.27 1188.4 1237.73 1185.28 1246.59 1117.14C1250.88 1083.87 1226.14 1053.58 1202.57 1050.35C1207.5 1057.49 1213.08 1065.63 1207.2 1077.78C1193.19 1106.58 1144.4 1084.57 1168.84 1050.29M1057.03 1078.32C1061.4 997.52 1129.45 931.43 1215.5 935.82C1295.28 939.89 1362.15 1008.4 1357.76 1093.43C1353.69 1173.93 1285.58 1241.34 1199.12 1236.57C1119.02 1232.18 1052.31 1163.75 1057.03 1078.32" fill="#ffffff" fill-rule="evenodd"></path></g></svg>