<svg xmlns="http://www.w3.org/2000/svg" width="21.858" height="23" viewBox="0 0 21.858 23" fill="none">
  <path d="M 18.546 19.057 L 17.783 19.057 L 17.783 19.819 C 17.785 19.919 17.766 20.019 17.729 20.112 C 17.692 20.205 17.637 20.29 17.567 20.361 C 17.498 20.433 17.414 20.49 17.322 20.53 C 17.23 20.569 17.131 20.59 17.031 20.592 L 17.031 20.592 C 16.93 20.592 16.83 20.572 16.737 20.533 C 16.644 20.494 16.56 20.437 16.489 20.365 C 16.418 20.293 16.362 20.208 16.324 20.114 C 16.287 20.02 16.268 19.92 16.269 19.819 L 16.269 19.047 L 15.507 19.047 C 15.304 19.042 15.111 18.957 14.971 18.81 C 14.83 18.664 14.752 18.468 14.755 18.265 C 14.763 18.063 14.847 17.872 14.99 17.731 C 15.134 17.589 15.326 17.507 15.527 17.502 L 16.269 17.502 L 16.269 16.74 C 16.269 16.537 16.349 16.342 16.492 16.198 C 16.634 16.053 16.828 15.971 17.031 15.968 L 17.031 15.968 C 17.131 15.969 17.23 15.99 17.322 16.03 C 17.414 16.069 17.498 16.127 17.567 16.198 C 17.637 16.27 17.692 16.355 17.729 16.448 C 17.766 16.541 17.785 16.64 17.783 16.74 L 17.783 17.513 L 18.556 17.513 C 18.656 17.515 18.754 17.538 18.846 17.578 C 18.937 17.619 19.02 17.677 19.089 17.75 C 19.158 17.823 19.212 17.908 19.247 18.002 C 19.283 18.095 19.3 18.195 19.297 18.295 C 19.299 18.395 19.28 18.494 19.243 18.586 C 19.206 18.678 19.151 18.762 19.081 18.833 C 19.011 18.904 18.928 18.961 18.836 18.999 C 18.744 19.037 18.645 19.057 18.546 19.057 L 18.546 19.057 Z M 7.743 12.879 C 7.749 13.057 7.702 13.233 7.607 13.385 C 7.512 13.536 7.374 13.655 7.211 13.727 C 7.047 13.799 6.866 13.821 6.69 13.789 C 6.515 13.757 6.352 13.674 6.225 13.549 C 6.097 13.424 6.01 13.264 5.974 13.089 C 5.938 12.914 5.955 12.732 6.023 12.567 C 6.092 12.402 6.208 12.261 6.357 12.163 C 6.506 12.065 6.681 12.013 6.859 12.015 C 6.974 12.014 7.088 12.035 7.195 12.078 C 7.301 12.12 7.398 12.184 7.48 12.264 C 7.562 12.344 7.628 12.44 7.673 12.545 C 7.718 12.651 7.742 12.764 7.743 12.879 L 7.743 12.879 Z M 11.046 12.879 C 11.05 13.054 11.002 13.227 10.907 13.375 C 10.812 13.523 10.676 13.64 10.515 13.71 C 10.353 13.78 10.175 13.8 10.002 13.769 C 9.829 13.737 9.67 13.654 9.544 13.531 C 9.419 13.409 9.332 13.251 9.297 13.079 C 9.261 12.907 9.277 12.728 9.343 12.566 C 9.41 12.403 9.523 12.264 9.669 12.165 C 9.814 12.067 9.986 12.015 10.162 12.015 C 10.277 12.014 10.391 12.035 10.497 12.078 C 10.604 12.12 10.701 12.184 10.783 12.264 C 10.865 12.344 10.93 12.44 10.976 12.545 C 11.021 12.651 11.045 12.764 11.046 12.879 L 11.046 12.879 Z M 7.733 16.161 C 7.71 16.38 7.606 16.583 7.442 16.731 C 7.278 16.878 7.065 16.96 6.844 16.96 C 6.623 16.96 6.41 16.878 6.246 16.731 C 6.082 16.583 5.978 16.38 5.955 16.161 C 5.978 15.942 6.082 15.739 6.246 15.591 C 6.41 15.444 6.623 15.362 6.844 15.362 C 7.065 15.362 7.278 15.444 7.442 15.591 C 7.606 15.739 7.71 15.942 7.733 16.161 L 7.733 16.161 Z M 17.031 23 C 16.077 23 15.143 22.717 14.35 22.187 C 13.556 21.656 12.937 20.902 12.572 20.02 C 12.207 19.138 12.111 18.168 12.297 17.231 C 12.483 16.295 12.943 15.435 13.618 14.76 C 14.293 14.085 15.153 13.625 16.09 13.439 C 17.026 13.253 17.997 13.348 18.879 13.714 C 19.761 14.079 20.514 14.698 21.045 15.491 C 21.575 16.285 21.858 17.218 21.858 18.173 C 21.856 19.452 21.346 20.679 20.442 21.583 C 19.537 22.488 18.311 22.997 17.031 23 L 17.031 23 Z M 17.031 14.87 C 16.378 14.87 15.74 15.064 15.197 15.427 C 14.653 15.79 14.23 16.306 13.98 16.909 C 13.73 17.513 13.665 18.177 13.792 18.817 C 13.92 19.458 14.234 20.047 14.696 20.508 C 15.158 20.97 15.746 21.285 16.387 21.412 C 17.028 21.54 17.692 21.474 18.295 21.224 C 18.899 20.974 19.415 20.551 19.777 20.008 C 20.14 19.465 20.334 18.826 20.334 18.173 C 20.334 17.739 20.249 17.31 20.083 16.909 C 19.917 16.509 19.673 16.144 19.367 15.838 C 19.06 15.531 18.696 15.288 18.295 15.122 C 17.895 14.956 17.465 14.87 17.031 14.87 L 17.031 14.87 Z M 15.822 2.31 L 15.822 0.796 C 15.822 0.608 15.747 0.427 15.614 0.293 C 15.48 0.16 15.299 0.085 15.111 0.085 C 14.922 0.085 14.741 0.16 14.608 0.293 C 14.474 0.427 14.399 0.608 14.399 0.796 L 14.399 2.077 L 14.084 2.077 L 11.036 2.077 L 11.036 0.796 C 11.048 0.696 11.039 0.595 11.009 0.499 C 10.979 0.403 10.928 0.315 10.862 0.239 C 10.795 0.164 10.713 0.104 10.621 0.063 C 10.53 0.021 10.43 0 10.33 0 C 10.229 0 10.13 0.021 10.038 0.063 C 9.946 0.104 9.864 0.164 9.797 0.239 C 9.731 0.315 9.681 0.403 9.651 0.499 C 9.621 0.595 9.611 0.696 9.623 0.796 L 9.623 2.016 L 6.3 2.016 L 5.975 2.016 L 5.975 0.796 C 5.975 0.608 5.9 0.427 5.767 0.293 C 5.633 0.16 5.453 0.085 5.264 0.085 C 5.075 0.085 4.894 0.16 4.761 0.293 C 4.627 0.427 4.553 0.608 4.553 0.796 L 4.553 2.31 C 3.245 2.683 2.094 3.47 1.273 4.553 C 0.452 5.636 0.005 6.957 0 8.316 L 0 15.683 C 0.008 17.347 0.676 18.94 1.857 20.112 C 3.039 21.283 4.637 21.938 6.3 21.933 L 11.198 21.933 C 11.291 21.933 11.382 21.915 11.467 21.88 C 11.552 21.844 11.629 21.793 11.694 21.728 C 11.759 21.663 11.811 21.585 11.846 21.5 C 11.881 21.415 11.9 21.324 11.9 21.232 C 11.9 21.046 11.826 20.868 11.694 20.736 C 11.563 20.605 11.384 20.531 11.198 20.531 L 6.3 20.531 C 5.66 20.535 5.026 20.412 4.433 20.171 C 3.84 19.929 3.301 19.573 2.846 19.123 C 2.391 18.673 2.029 18.137 1.782 17.547 C 1.534 16.957 1.405 16.323 1.402 15.683 L 1.402 9.017 L 18.952 9.017 L 18.952 12.178 C 18.955 12.364 19.031 12.543 19.164 12.674 C 19.297 12.805 19.476 12.879 19.663 12.879 L 19.663 12.879 C 19.756 12.88 19.849 12.863 19.935 12.828 C 20.021 12.794 20.1 12.742 20.166 12.677 C 20.232 12.612 20.284 12.534 20.32 12.448 C 20.356 12.363 20.375 12.27 20.375 12.178 L 20.375 8.316 C 20.369 6.957 19.922 5.636 19.101 4.553 C 18.28 3.47 17.129 2.683 15.822 2.31 L 15.822 2.31 Z M 1.494 7.615 C 1.619 6.766 1.967 5.966 2.502 5.297 C 3.038 4.627 3.742 4.112 4.542 3.804 L 4.542 4.617 C 4.542 4.806 4.617 4.987 4.751 5.12 C 4.884 5.253 5.065 5.328 5.254 5.328 C 5.442 5.328 5.623 5.253 5.757 5.12 C 5.89 4.987 5.965 4.806 5.965 4.617 L 5.965 3.499 C 6.077 3.499 6.178 3.499 6.29 3.499 L 9.664 3.499 L 9.664 4.617 C 9.652 4.717 9.661 4.818 9.691 4.914 C 9.721 5.01 9.771 5.099 9.838 5.174 C 9.905 5.249 9.987 5.309 10.078 5.351 C 10.17 5.392 10.27 5.413 10.37 5.413 C 10.471 5.413 10.57 5.392 10.662 5.351 C 10.754 5.309 10.836 5.249 10.902 5.174 C 10.969 5.099 11.019 5.01 11.049 4.914 C 11.079 4.818 11.088 4.717 11.076 4.617 L 11.076 3.469 L 14.125 3.469 L 14.44 3.469 L 14.44 4.587 C 14.44 4.775 14.515 4.956 14.648 5.09 C 14.782 5.223 14.963 5.298 15.151 5.298 C 15.34 5.298 15.521 5.223 15.654 5.09 C 15.788 4.956 15.863 4.775 15.863 4.587 L 15.863 3.774 C 16.663 4.082 17.367 4.597 17.903 5.266 C 18.439 5.936 18.787 6.736 18.911 7.584 L 1.494 7.615 Z" fill="currentColor" fill-rule="nonzero"></path>
</svg>