<svg xmlns="http://www.w3.org/2000/svg" width="20" height="20.056" viewBox="0 0 20 20.056" fill="none">
  <path d="M 6.028 9.358 L 3.33 9.358 C 2.448 9.356 1.602 9.004 0.978 8.38 C 0.354 7.756 0.002 6.91 0 6.028 L 0 3.321 C 0.002 2.439 0.354 1.595 0.979 0.972 C 1.603 0.35 2.449 0 3.33 0 L 6.028 0 C 6.91 0 7.755 0.35 8.379 0.972 C 9.004 1.595 9.356 2.439 9.358 3.321 L 9.358 6.028 C 9.356 6.91 9.004 7.756 8.38 8.38 C 7.756 9.004 6.91 9.356 6.028 9.358 Z M 3.33 1.395 C 2.819 1.395 2.328 1.598 1.965 1.959 C 1.603 2.32 1.398 2.809 1.395 3.321 L 1.395 6.028 C 1.395 6.541 1.599 7.033 1.962 7.396 C 2.325 7.759 2.817 7.963 3.33 7.963 L 6.028 7.963 C 6.541 7.963 7.033 7.759 7.396 7.396 C 7.759 7.033 7.963 6.541 7.963 6.028 L 7.963 3.321 C 7.96 2.809 7.755 2.32 7.393 1.959 C 7.03 1.598 6.539 1.395 6.028 1.395 L 3.33 1.395 Z M 16.67 9.386 L 13.972 9.386 C 13.089 9.386 12.242 9.035 11.617 8.411 C 10.993 7.786 10.642 6.939 10.642 6.056 L 10.642 3.358 C 10.644 2.476 10.996 1.63 11.62 1.006 C 12.244 0.382 13.09 0.03 13.972 0.028 L 16.67 0.028 C 17.552 0.03 18.398 0.382 19.022 1.006 C 19.646 1.63 19.998 2.476 20 3.358 L 20 6.056 C 20 6.939 19.649 7.786 19.025 8.411 C 18.4 9.035 17.553 9.386 16.67 9.386 Z M 13.972 1.423 C 13.459 1.423 12.967 1.627 12.604 1.99 C 12.241 2.353 12.037 2.845 12.037 3.358 L 12.037 6.056 C 12.037 6.569 12.241 7.061 12.604 7.424 C 12.967 7.787 13.459 7.991 13.972 7.991 L 16.67 7.991 C 17.183 7.991 17.675 7.787 18.038 7.424 C 18.401 7.061 18.605 6.569 18.605 6.056 L 18.605 3.358 C 18.605 2.845 18.401 2.353 18.038 1.99 C 17.675 1.627 17.183 1.423 16.67 1.423 L 13.972 1.423 Z M 6.028 20.028 L 3.33 20.028 C 2.448 20.025 1.602 19.674 0.978 19.05 C 0.354 18.426 0.002 17.58 0 16.698 L 0 14 C 0 13.117 0.351 12.27 0.975 11.645 C 1.6 11.021 2.447 10.67 3.33 10.67 L 6.028 10.67 C 6.911 10.67 7.758 11.021 8.383 11.645 C 9.007 12.27 9.358 13.117 9.358 14 L 9.358 16.698 C 9.351 17.577 8.997 18.418 8.374 19.038 C 7.75 19.658 6.907 20.007 6.028 20.009 L 6.028 20.028 Z M 3.33 12.065 C 2.817 12.065 2.325 12.269 1.962 12.632 C 1.599 12.995 1.395 13.487 1.395 14 L 1.395 16.698 C 1.395 17.211 1.599 17.703 1.962 18.066 C 2.325 18.429 2.817 18.633 3.33 18.633 L 6.028 18.633 C 6.541 18.633 7.033 18.429 7.396 18.066 C 7.759 17.703 7.963 17.211 7.963 16.698 L 7.963 14 C 7.963 13.487 7.759 12.995 7.396 12.632 C 7.033 12.269 6.541 12.065 6.028 12.065 L 3.33 12.065 Z M 16.67 20.056 L 13.972 20.056 C 13.09 20.056 12.245 19.706 11.621 19.084 C 10.996 18.461 10.644 17.617 10.642 16.735 L 10.642 14.009 C 10.644 13.127 10.996 12.281 11.62 11.657 C 12.244 11.033 13.09 10.682 13.972 10.679 L 16.67 10.679 C 17.552 10.682 18.398 11.033 19.022 11.657 C 19.646 12.281 19.998 13.127 20 14.009 L 20 16.716 C 19.998 17.598 19.646 18.443 19.021 19.065 C 18.397 19.688 17.551 20.037 16.67 20.037 L 16.67 20.056 Z M 13.972 12.093 C 13.459 12.093 12.967 12.297 12.604 12.66 C 12.241 13.023 12.037 13.515 12.037 14.028 L 12.037 16.716 C 12.04 17.228 12.245 17.718 12.607 18.078 C 12.97 18.439 13.461 18.642 13.972 18.642 L 16.67 18.642 C 17.181 18.642 17.672 18.439 18.035 18.078 C 18.397 17.718 18.602 17.228 18.605 16.716 L 18.605 14.009 C 18.605 13.496 18.401 13.004 18.038 12.641 C 17.675 12.278 17.183 12.074 16.67 12.074 L 13.972 12.093 Z" fill="currentColor" fill-rule="nonzero"></path>
</svg>