<svg xmlns="http://www.w3.org/2000/svg" width="21.451" height="21.500" viewBox="0 0 21.451 21.500" fill="none">
  <path d="M 9.745 21.5 C 7.336 21.488 5.017 20.589 3.229 18.975 C 1.442 17.36 0.312 15.144 0.056 12.749 C -0.201 10.354 0.434 7.949 1.84 5.993 C 3.245 4.037 5.322 2.667 7.673 2.146 C 7.869 2.103 8.073 2.14 8.241 2.248 C 8.41 2.356 8.529 2.526 8.572 2.722 C 8.602 2.825 8.61 2.933 8.594 3.04 C 8.579 3.146 8.54 3.248 8.482 3.338 C 8.423 3.428 8.346 3.505 8.255 3.562 C 8.164 3.62 8.062 3.657 7.956 3.672 C 6.502 3.993 5.162 4.701 4.076 5.72 C 2.991 6.74 2.201 8.033 1.789 9.464 C 1.377 10.895 1.359 12.411 1.736 13.851 C 2.113 15.292 2.872 16.604 3.933 17.649 C 4.993 18.694 6.316 19.434 7.762 19.791 C 9.207 20.147 10.722 20.107 12.147 19.674 C 13.572 19.242 14.854 18.433 15.858 17.333 C 16.861 16.233 17.55 14.883 17.85 13.425 C 17.891 13.228 18.007 13.055 18.175 12.944 C 18.343 12.833 18.548 12.793 18.745 12.833 C 18.942 12.874 19.115 12.991 19.226 13.158 C 19.337 13.326 19.376 13.531 19.336 13.728 C 18.865 15.924 17.657 17.893 15.912 19.306 C 14.167 20.72 11.991 21.495 9.745 21.5 Z M 19.094 10.443 L 14.556 10.443 C 13.615 10.443 12.712 10.069 12.047 9.404 C 11.382 8.739 11.008 7.837 11.008 6.896 L 11.008 2.358 C 11.007 2.005 11.086 1.656 11.238 1.338 C 11.391 1.02 11.612 0.74 11.887 0.518 C 12.155 0.299 12.468 0.143 12.804 0.063 C 13.14 -0.018 13.49 -0.021 13.828 0.054 C 15.689 0.443 17.396 1.367 18.74 2.711 C 20.085 4.056 21.008 5.763 21.398 7.623 C 21.472 7.961 21.469 8.311 21.388 8.647 C 21.308 8.983 21.152 9.297 20.933 9.564 C 20.712 9.839 20.432 10.061 20.113 10.213 C 19.795 10.365 19.446 10.444 19.094 10.443 Z M 13.343 1.509 C 13.159 1.513 12.981 1.576 12.837 1.691 C 12.741 1.773 12.662 1.875 12.608 1.99 C 12.554 2.105 12.526 2.231 12.524 2.358 L 12.524 6.896 C 12.524 7.432 12.737 7.946 13.116 8.325 C 13.495 8.704 14.009 8.917 14.545 8.917 L 19.094 8.917 C 19.227 8.923 19.359 8.898 19.482 8.846 C 19.604 8.794 19.713 8.714 19.801 8.614 C 19.877 8.521 19.932 8.411 19.96 8.294 C 19.988 8.177 19.989 8.055 19.963 7.937 C 19.62 6.367 18.834 4.929 17.699 3.793 C 16.563 2.657 15.124 1.872 13.555 1.529 L 13.343 1.509 Z" fill="currentColor" fill-rule="nonzero"></path>
</svg>