<svg xmlns="http://www.w3.org/2000/svg" width="20.434" height="20.500" viewBox="0 0 20.434 20.500" fill="none">
  <path d="M 20.433 19.721 C 20.433 19.927 20.351 20.126 20.205 20.272 C 20.059 20.418 19.861 20.5 19.654 20.5 L 6.073 20.5 C 4.463 20.497 2.92 19.857 1.782 18.718 C 0.643 17.58 0.003 16.037 0 14.427 L 0 0.779 C 0 0.573 0.082 0.374 0.228 0.228 C 0.374 0.082 0.573 0 0.779 0 C 0.984 0.003 1.18 0.086 1.324 0.232 C 1.468 0.377 1.549 0.574 1.549 0.779 L 1.549 14.408 C 1.552 15.606 2.029 16.754 2.878 17.601 C 3.726 18.447 4.875 18.922 6.073 18.922 L 19.654 18.922 C 19.758 18.922 19.861 18.943 19.957 18.983 C 20.053 19.024 20.139 19.083 20.212 19.157 C 20.285 19.232 20.342 19.32 20.38 19.417 C 20.418 19.513 20.436 19.617 20.433 19.721 L 20.433 19.721 Z M 4.98 14.798 C 5.094 14.796 5.206 14.771 5.309 14.724 C 5.412 14.676 5.504 14.607 5.579 14.522 L 9.266 10.16 C 9.371 10.035 9.5 9.932 9.645 9.857 C 9.79 9.783 9.948 9.737 10.111 9.724 C 10.274 9.711 10.437 9.73 10.592 9.78 C 10.748 9.831 10.891 9.911 11.015 10.017 L 12.07 10.911 C 12.623 11.376 13.334 11.61 14.056 11.562 C 14.777 11.514 15.452 11.189 15.938 10.654 L 20.205 5.959 C 20.326 5.804 20.384 5.609 20.367 5.413 C 20.35 5.218 20.26 5.036 20.115 4.903 C 19.969 4.771 19.78 4.699 19.583 4.701 C 19.387 4.703 19.198 4.779 19.055 4.914 L 14.788 9.608 C 14.572 9.846 14.272 9.99 13.951 10.011 C 13.63 10.033 13.314 9.929 13.068 9.723 L 12.013 8.829 C 11.449 8.354 10.719 8.121 9.984 8.182 C 9.248 8.242 8.567 8.591 8.088 9.152 L 4.391 13.515 C 4.263 13.676 4.204 13.882 4.227 14.087 C 4.25 14.291 4.353 14.479 4.514 14.608 C 4.645 14.719 4.809 14.785 4.98 14.798 L 4.98 14.798 Z" fill="currentColor" fill-rule="nonzero"></path>
</svg>