<svg xmlns="http://www.w3.org/2000/svg" width="22" height="22" viewBox="0 0 22 22" fill="none">
  <path d="M 11 1.433 C 12.892 1.433 14.742 1.994 16.315 3.045 C 17.889 4.096 19.115 5.59 19.839 7.339 C 20.563 9.087 20.753 11.011 20.384 12.867 C 20.014 14.722 19.103 16.427 17.765 17.765 C 16.427 19.103 14.722 20.014 12.867 20.384 C 11.011 20.753 9.087 20.563 7.339 19.839 C 5.59 19.115 4.096 17.889 3.045 16.315 C 1.994 14.742 1.433 12.892 1.433 11 C 1.433 8.463 2.441 6.029 4.235 4.235 C 6.029 2.441 8.463 1.433 11 1.433 Z M 10.048 12.514 L 6.907 9.363 C 6.723 9.191 6.483 9.092 6.232 9.087 C 6.043 9.088 5.859 9.146 5.702 9.252 C 5.546 9.357 5.424 9.507 5.352 9.682 C 5.28 9.856 5.261 10.048 5.297 10.233 C 5.334 10.419 5.424 10.589 5.556 10.724 L 9.373 14.551 C 9.56 14.718 9.803 14.81 10.053 14.81 C 10.304 14.81 10.547 14.718 10.734 14.551 L 16.464 8.81 C 16.597 8.676 16.687 8.505 16.723 8.32 C 16.76 8.135 16.741 7.943 16.669 7.768 C 16.597 7.593 16.475 7.444 16.318 7.338 C 16.162 7.232 15.978 7.175 15.789 7.173 C 15.537 7.179 15.297 7.277 15.113 7.449 L 10.059 12.566 M 11 0 C 8.824 0 6.698 0.645 4.889 1.854 C 3.08 3.063 1.67 4.78 0.837 6.79 C 0.005 8.8 -0.213 11.012 0.211 13.146 C 0.636 15.28 1.683 17.24 3.222 18.778 C 4.76 20.317 6.72 21.364 8.854 21.789 C 10.988 22.213 13.2 21.995 15.21 21.163 C 17.22 20.33 18.937 18.92 20.146 17.111 C 21.355 15.302 22 13.176 22 11 C 21.997 8.083 20.837 5.287 18.775 3.225 C 16.713 1.163 13.917 0.003 11 0 Z" fill="currentColor" fill-rule="nonzero"></path>
</svg>