<svg xmlns="http://www.w3.org/2000/svg" width="21.500" height="21.500" viewBox="0 0 21.500 21.500" fill="none">
  <path d="M 15 21.5 L 6.5 21.5 C 4.777 21.497 3.125 20.812 1.907 19.593 C 0.688 18.375 0.003 16.723 0 15 L 0 6.5 C 0.003 4.777 0.688 3.125 1.907 1.907 C 3.125 0.688 4.777 0.003 6.5 0 L 15 0 C 16.723 0.003 18.375 0.688 19.593 1.907 C 20.812 3.125 21.497 4.777 21.5 6.5 L 21.5 15 C 21.497 16.723 20.812 18.375 19.593 19.593 C 18.375 20.812 16.723 21.497 15 21.5 L 15 21.5 Z M 6.5 1.5 C 5.174 1.5 3.902 2.027 2.964 2.964 C 2.027 3.902 1.5 5.174 1.5 6.5 L 1.5 15 C 1.5 16.326 2.027 17.598 2.964 18.536 C 3.902 19.473 5.174 20 6.5 20 L 15 20 C 16.326 20 17.598 19.473 18.536 18.536 C 19.473 17.598 20 16.326 20 15 L 20 6.5 C 20 5.174 19.473 3.902 18.536 2.964 C 17.598 2.027 16.326 1.5 15 1.5 L 6.5 1.5 Z M 9.75 10.63 C 9.75 10.895 9.829 11.154 9.976 11.374 C 10.123 11.595 10.332 11.767 10.577 11.868 C 10.822 11.969 11.091 11.996 11.351 11.944 C 11.611 11.893 11.85 11.765 12.038 11.578 C 12.225 11.39 12.353 11.151 12.404 10.891 C 12.456 10.631 12.429 10.362 12.328 10.117 C 12.227 9.872 12.055 9.663 11.834 9.516 C 11.614 9.369 11.355 9.29 11.09 9.29 C 10.735 9.29 10.394 9.431 10.142 9.682 C 9.891 9.934 9.75 10.275 9.75 10.63 L 9.75 10.63 Z M 4.75 10.63 C 4.75 10.895 4.829 11.154 4.976 11.374 C 5.123 11.595 5.332 11.767 5.577 11.868 C 5.822 11.969 6.091 11.996 6.351 11.944 C 6.611 11.893 6.85 11.765 7.038 11.578 C 7.225 11.39 7.353 11.151 7.404 10.891 C 7.456 10.631 7.429 10.362 7.328 10.117 C 7.227 9.872 7.055 9.663 6.834 9.516 C 6.614 9.369 6.355 9.29 6.09 9.29 C 5.735 9.29 5.394 9.431 5.142 9.682 C 4.891 9.934 4.75 10.275 4.75 10.63 L 4.75 10.63 Z M 14.75 10.63 C 14.75 10.895 14.829 11.154 14.976 11.374 C 15.123 11.595 15.332 11.767 15.577 11.868 C 15.822 11.969 16.091 11.996 16.351 11.944 C 16.611 11.893 16.85 11.765 17.038 11.578 C 17.225 11.39 17.353 11.151 17.404 10.891 C 17.456 10.631 17.429 10.362 17.328 10.117 C 17.227 9.872 17.055 9.663 16.834 9.516 C 16.614 9.369 16.355 9.29 16.09 9.29 C 15.735 9.29 15.394 9.431 15.142 9.682 C 14.891 9.934 14.75 10.275 14.75 10.63 L 14.75 10.63 Z" fill="currentColor" fill-rule="nonzero"></path>
</svg>