<svg xmlns="http://www.w3.org/2000/svg" width="20.355" height="21.504" viewBox="0 0 20.355 21.504" fill="none">
  <path d="M 9.39 21.502 L 4.95 21.502 C 3.679 21.54 2.445 21.073 1.518 20.204 C 0.59 19.334 0.044 18.133 0 16.862 L 0 4.642 C 0.044 3.372 0.59 2.17 1.518 1.301 C 2.445 0.431 3.679 -0.036 4.95 0.002 L 9.39 0.002 C 10.66 -0.036 11.893 0.432 12.819 1.301 C 13.745 2.171 14.288 3.372 14.33 4.642 C 14.33 4.844 14.25 5.037 14.107 5.18 C 13.965 5.322 13.772 5.402 13.57 5.402 C 13.368 5.402 13.175 5.322 13.033 5.18 C 12.89 5.037 12.81 4.844 12.81 4.642 C 12.766 3.776 12.382 2.963 11.742 2.379 C 11.101 1.795 10.256 1.487 9.39 1.522 L 4.95 1.522 C 4.083 1.484 3.237 1.791 2.596 2.376 C 1.955 2.961 1.571 3.775 1.53 4.642 L 1.53 16.862 C 1.571 17.729 1.955 18.544 2.596 19.128 C 3.237 19.713 4.083 20.02 4.95 19.982 L 9.39 19.982 C 10.256 20.017 11.101 19.71 11.742 19.125 C 12.382 18.541 12.766 17.728 12.81 16.862 C 12.81 16.661 12.89 16.467 13.033 16.325 C 13.175 16.182 13.368 16.102 13.57 16.102 C 13.772 16.102 13.965 16.182 14.107 16.325 C 14.25 16.467 14.33 16.661 14.33 16.862 C 14.288 18.132 13.745 19.333 12.819 20.203 C 11.893 21.073 10.66 21.54 9.39 21.502 Z M 6.94 10.752 C 6.94 10.852 6.96 10.951 6.998 11.043 C 7.036 11.135 7.092 11.219 7.163 11.29 C 7.233 11.36 7.317 11.416 7.409 11.454 C 7.501 11.492 7.6 11.512 7.7 11.512 L 17.77 11.512 L 16.06 13.182 C 15.989 13.253 15.932 13.337 15.893 13.43 C 15.855 13.522 15.835 13.622 15.835 13.722 C 15.835 13.823 15.855 13.922 15.893 14.015 C 15.932 14.107 15.989 14.191 16.06 14.262 C 16.131 14.333 16.215 14.389 16.308 14.427 C 16.4 14.465 16.5 14.483 16.6 14.482 C 16.699 14.483 16.796 14.464 16.888 14.426 C 16.979 14.389 17.061 14.333 17.13 14.262 L 20.13 11.262 C 20.201 11.191 20.258 11.107 20.297 11.015 C 20.335 10.922 20.355 10.823 20.355 10.722 C 20.355 10.622 20.335 10.522 20.297 10.43 C 20.258 10.337 20.201 10.253 20.13 10.182 L 17.13 7.182 C 17.06 7.111 16.977 7.055 16.885 7.016 C 16.793 6.978 16.695 6.958 16.595 6.958 C 16.495 6.958 16.397 6.978 16.305 7.016 C 16.213 7.055 16.13 7.111 16.06 7.182 C 15.989 7.253 15.932 7.337 15.893 7.43 C 15.855 7.522 15.835 7.622 15.835 7.722 C 15.835 7.823 15.855 7.922 15.893 8.015 C 15.932 8.107 15.989 8.191 16.06 8.262 L 17.73 9.932 L 7.7 9.932 C 7.595 9.932 7.491 9.953 7.395 9.995 C 7.298 10.037 7.212 10.098 7.14 10.176 C 7.069 10.253 7.014 10.344 6.98 10.443 C 6.945 10.542 6.932 10.647 6.94 10.752 Z" fill="currentColor" fill-rule="nonzero"></path>
</svg>