<svg xmlns="http://www.w3.org/2000/svg" width="22.072" height="22" viewBox="0 0 22.072 22" fill="none">
  <path d="M 19.629 17.329 C 19.523 17.33 19.418 17.308 19.322 17.263 C 19.226 17.219 19.142 17.154 19.074 17.072 C 18.948 16.927 18.885 16.737 18.898 16.544 C 18.912 16.352 19.001 16.173 19.146 16.046 C 19.608 15.634 19.978 15.13 20.231 14.565 C 20.484 14.001 20.614 13.389 20.614 12.771 L 20.614 5.852 C 20.62 4.699 20.168 3.591 19.357 2.771 C 18.547 1.951 17.445 1.486 16.292 1.478 L 9.424 1.478 C 8.335 1.466 7.284 1.874 6.488 2.618 C 6.421 2.686 6.341 2.74 6.253 2.777 C 6.165 2.814 6.07 2.834 5.975 2.834 C 5.879 2.834 5.785 2.814 5.697 2.777 C 5.608 2.74 5.528 2.686 5.462 2.618 C 5.331 2.479 5.258 2.295 5.258 2.105 C 5.258 1.914 5.331 1.73 5.462 1.591 C 6.521 0.571 7.933 0.001 9.404 0 L 16.272 0 C 17.816 0.008 19.295 0.629 20.382 1.726 C 21.47 2.823 22.077 4.307 22.072 5.852 L 22.072 12.812 C 22.065 13.631 21.887 14.439 21.55 15.185 C 21.212 15.932 20.722 16.599 20.111 17.144 C 19.977 17.261 19.806 17.327 19.629 17.329 L 19.629 17.329 Z M 18.222 16.508 C 18.23 17.954 17.664 19.345 16.648 20.375 C 15.632 21.405 14.248 21.989 12.802 22 L 5.421 22 C 3.974 21.989 2.591 21.405 1.574 20.375 C 0.558 19.345 -0.008 17.954 0 16.508 L 0 9.383 C -0.008 7.936 0.558 6.546 1.574 5.516 C 2.591 4.486 3.974 3.902 5.421 3.891 L 10.82 3.891 C 10.882 3.881 10.944 3.881 11.005 3.891 L 11.077 3.891 C 11.152 3.929 11.221 3.978 11.282 4.035 L 17.966 10.8 C 18.049 10.889 18.11 10.997 18.142 11.116 C 18.174 11.234 18.177 11.358 18.15 11.477 C 18.155 11.518 18.155 11.56 18.15 11.601 L 18.222 16.508 Z M 11.498 8.623 C 11.498 9.168 11.714 9.69 12.099 10.075 C 12.484 10.46 13.007 10.677 13.551 10.677 L 15.728 10.677 L 11.498 6.416 L 11.498 8.623 Z M 16.744 16.508 L 16.744 12.134 L 13.51 12.134 C 13.049 12.136 12.592 12.046 12.166 11.87 C 11.74 11.694 11.354 11.435 11.028 11.108 C 10.703 10.782 10.445 10.394 10.27 9.968 C 10.095 9.541 10.007 9.084 10.009 8.623 L 10.009 5.369 L 5.421 5.369 C 4.363 5.377 3.352 5.804 2.609 6.557 C 1.866 7.309 1.452 8.326 1.458 9.383 L 1.458 16.508 C 1.452 17.565 1.866 18.581 2.609 19.334 C 3.352 20.086 4.363 20.514 5.421 20.522 L 12.781 20.522 C 13.839 20.514 14.85 20.086 15.592 19.334 C 16.335 18.581 16.749 17.565 16.744 16.508 L 16.744 16.508 Z" fill="currentColor" fill-rule="nonzero"></path>
</svg>