<svg xmlns="http://www.w3.org/2000/svg" width="21.000" height="21" viewBox="0 0 21.000 21" fill="none">
  <path d="M 20.375 7.326 C 20.379 7.267 20.379 7.208 20.375 7.15 C 20.321 5.539 19.654 4.009 18.51 2.873 C 17.367 1.736 15.833 1.079 14.221 1.035 L 9.523 1.035 C 9.4 1.038 9.279 1.071 9.172 1.133 C 8.915 0.779 8.577 0.491 8.186 0.294 C 7.795 0.097 7.363 -0.004 6.925 0 L 4.815 0 C 3.538 0 2.313 0.507 1.41 1.41 C 0.507 2.314 0 3.538 0 4.815 L 0 15.452 C 0 16.924 0.585 18.335 1.625 19.375 C 2.665 20.415 4.076 21 5.548 21 L 15.452 21 C 16.923 21 18.335 20.415 19.375 19.375 C 20.415 18.335 21 16.924 21 15.452 L 21 9.865 C 21.002 8.98 20.787 8.109 20.375 7.326 Z" fill="currentColor" fill-rule="nonzero"></path>
</svg>