<svg xmlns="http://www.w3.org/2000/svg" width="21.471" height="21.500" viewBox="0 0 21.471 21.500" fill="none">
  <path d="M 20.716 2.384 C 20.44 2.075 20.102 1.826 19.724 1.654 C 19.347 1.481 18.937 1.389 18.522 1.383 L 6.54 1.383 C 6.249 1.401 5.962 1.462 5.689 1.563 L 4.997 0.421 C 4.927 0.293 4.824 0.187 4.699 0.113 C 4.574 0.039 4.431 0 4.286 0 L 0.759 0 C 0.551 0.023 0.358 0.122 0.218 0.278 C 0.078 0.434 0 0.637 0 0.847 C 0 1.056 0.078 1.259 0.218 1.415 C 0.358 1.571 0.551 1.67 0.759 1.693 L 3.815 1.693 L 4.266 2.495 C 3.851 2.99 3.602 3.603 3.555 4.248 L 2.913 13.154 C 2.881 13.572 2.932 13.992 3.065 14.39 C 3.197 14.787 3.408 15.154 3.685 15.469 C 3.963 15.779 4.302 16.029 4.682 16.201 C 5.061 16.374 5.472 16.466 5.889 16.471 L 17.811 16.471 C 18.581 16.472 19.322 16.177 19.882 15.648 C 20.441 15.118 20.776 14.394 20.817 13.625 L 21.458 4.719 C 21.497 4.3 21.451 3.877 21.324 3.476 C 21.196 3.076 20.99 2.704 20.716 2.384 Z M 18.522 3.106 C 18.71 3.103 18.897 3.14 19.069 3.214 C 19.242 3.288 19.397 3.398 19.524 3.537 C 19.646 3.672 19.74 3.83 19.8 4.002 C 19.861 4.174 19.886 4.357 19.875 4.538 L 19.735 6.542 L 5.047 6.542 L 5.208 4.368 C 5.228 4.028 5.377 3.708 5.624 3.474 C 5.872 3.239 6.199 3.108 6.54 3.106 L 18.522 3.106 Z M 17.831 14.777 L 5.909 14.777 C 5.72 14.779 5.534 14.74 5.361 14.664 C 5.188 14.588 5.034 14.476 4.907 14.337 C 4.663 14.062 4.536 13.702 4.556 13.335 L 4.917 8.325 L 19.544 8.325 L 19.174 13.565 C 19.137 13.897 18.98 14.203 18.733 14.426 C 18.485 14.65 18.164 14.775 17.831 14.777 Z M 9.516 19.787 C 9.51 20.13 9.402 20.464 9.207 20.747 C 9.012 21.03 8.738 21.248 8.419 21.376 C 8.1 21.503 7.75 21.533 7.414 21.463 C 7.078 21.392 6.77 21.224 6.53 20.979 C 6.289 20.734 6.126 20.423 6.061 20.086 C 5.996 19.749 6.032 19.4 6.165 19.083 C 6.298 18.766 6.521 18.496 6.807 18.305 C 7.093 18.115 7.429 18.014 7.772 18.014 C 8.003 18.015 8.232 18.062 8.445 18.152 C 8.658 18.242 8.851 18.373 9.013 18.538 C 9.175 18.702 9.303 18.898 9.389 19.112 C 9.475 19.326 9.518 19.556 9.516 19.787 Z M 17.33 19.787 C 17.322 20.128 17.214 20.459 17.019 20.739 C 16.824 21.018 16.55 21.234 16.233 21.359 C 15.916 21.484 15.568 21.513 15.235 21.442 C 14.901 21.37 14.596 21.202 14.358 20.958 C 14.12 20.714 13.958 20.405 13.895 20.07 C 13.831 19.735 13.868 19.389 14 19.075 C 14.132 18.76 14.354 18.492 14.638 18.303 C 14.922 18.114 15.256 18.014 15.597 18.014 C 15.827 18.016 16.055 18.064 16.266 18.155 C 16.478 18.245 16.67 18.376 16.831 18.541 C 16.992 18.706 17.119 18.901 17.204 19.114 C 17.29 19.328 17.333 19.557 17.33 19.787 Z" fill="currentColor" fill-rule="nonzero"></path>
</svg>