<svg xmlns="http://www.w3.org/2000/svg" width="21.263" height="19.050" viewBox="0 0 21.263 19.050" fill="none">
  <path d="M 10.701 19.05 C 10.319 19.045 9.942 18.963 9.593 18.807 C 7.319 17.767 -0.125 13.832 0.002 6.67 C 0 5.203 0.485 3.777 1.38 2.615 C 2.275 1.453 3.529 0.62 4.948 0.247 C 5.897 -0.007 6.888 -0.06 7.858 0.091 C 8.828 0.241 9.757 0.592 10.584 1.121 C 10.598 1.135 10.618 1.143 10.637 1.143 C 10.657 1.143 10.676 1.135 10.691 1.121 C 11.59 0.542 12.61 0.176 13.673 0.049 C 14.735 -0.077 15.812 0.04 16.823 0.392 C 18.11 0.851 19.225 1.693 20.019 2.805 C 20.813 3.917 21.247 5.245 21.263 6.612 C 21.127 14.629 13.868 18.01 11.653 18.865 C 11.349 18.984 11.027 19.046 10.701 19.05 Z" fill="currentColor" fill-rule="nonzero"></path>
</svg>