<svg xmlns="http://www.w3.org/2000/svg" width="21.496" height="21.134" viewBox="0 0 21.496 21.134" fill="none">
  <path d="M 5.107 21.134 C 4.07 21.133 3.07 20.752 2.295 20.063 C 1.521 19.373 1.027 18.423 0.907 17.394 L 0.027 9.884 C -0.055 9.159 0.05 8.426 0.332 7.754 C 0.614 7.082 1.063 6.493 1.637 6.044 L 8.337 0.874 C 9.102 0.289 10.043 -0.019 11.006 0.001 C 11.969 0.021 12.897 0.367 13.637 0.984 L 19.987 6.334 C 20.551 6.807 20.982 7.419 21.237 8.11 C 21.491 8.802 21.56 9.547 21.437 10.274 L 20.187 17.564 C 20.021 18.547 19.513 19.441 18.751 20.085 C 17.99 20.729 17.024 21.083 16.027 21.084 L 5.107 21.134 Z M 10.917 1.504 C 10.313 1.499 9.726 1.696 9.247 2.064 L 2.557 7.234 C 2.194 7.526 1.911 7.907 1.736 8.339 C 1.561 8.771 1.5 9.241 1.557 9.704 L 2.437 17.224 C 2.515 17.887 2.834 18.499 3.334 18.944 C 3.833 19.388 4.478 19.633 5.147 19.634 L 16.057 19.634 C 16.704 19.635 17.331 19.404 17.824 18.985 C 18.317 18.565 18.645 17.983 18.747 17.344 L 19.997 10.024 C 20.077 9.554 20.033 9.072 19.87 8.625 C 19.707 8.178 19.43 7.781 19.067 7.474 L 12.677 2.134 C 12.182 1.724 11.559 1.502 10.917 1.504 Z M 10.747 14.974 C 10.09 14.974 9.448 14.779 8.901 14.413 C 8.355 14.048 7.93 13.529 7.679 12.922 C 7.428 12.314 7.363 11.646 7.491 11.002 C 7.62 10.358 7.938 9.766 8.403 9.302 C 8.868 8.838 9.461 8.523 10.105 8.396 C 10.75 8.269 11.418 8.336 12.024 8.589 C 12.631 8.842 13.149 9.269 13.512 9.816 C 13.876 10.364 14.069 11.006 14.067 11.664 C 14.064 12.542 13.713 13.384 13.091 14.005 C 12.469 14.625 11.626 14.974 10.747 14.974 Z M 10.747 9.844 C 10.387 9.844 10.035 9.95 9.736 10.15 C 9.436 10.35 9.203 10.634 9.065 10.967 C 8.928 11.3 8.892 11.666 8.962 12.019 C 9.032 12.372 9.205 12.696 9.46 12.95 C 9.714 13.205 10.039 13.378 10.392 13.449 C 10.745 13.519 11.111 13.483 11.443 13.345 C 11.776 13.207 12.06 12.974 12.26 12.675 C 12.46 12.375 12.567 12.023 12.567 11.664 C 12.567 11.425 12.52 11.188 12.428 10.967 C 12.337 10.746 12.203 10.546 12.034 10.377 C 11.865 10.208 11.664 10.074 11.443 9.982 C 11.223 9.891 10.986 9.844 10.747 9.844 Z" fill="currentColor" fill-rule="nonzero"></path>
</svg>