<svg xmlns="http://www.w3.org/2000/svg" width="21.569" height="21.500" viewBox="0 0 21.569 21.500" fill="none">
  <path d="M 13.249 0.04 C 11.056 0.043 8.954 0.915 7.404 2.465 C 5.854 4.016 4.981 6.118 4.979 8.31 C 4.98 9.004 5.068 9.695 5.24 10.368 L 0.603 15.005 C 0.363 15.24 0.186 15.531 0.088 15.852 C -0.01 16.172 -0.027 16.513 0.041 16.842 L 0.533 19.371 C 0.61 19.771 0.805 20.14 1.093 20.43 C 1.381 20.719 1.748 20.917 2.148 20.997 L 4.738 21.488 C 4.871 21.504 5.006 21.504 5.139 21.488 C 5.408 21.49 5.675 21.438 5.923 21.334 C 6.171 21.231 6.396 21.078 6.585 20.886 L 11.212 16.269 C 11.893 16.45 12.595 16.541 13.299 16.54 C 15.493 16.54 17.596 15.669 19.147 14.118 C 20.698 12.567 21.569 10.464 21.569 8.27 C 21.569 6.077 20.698 3.973 19.147 2.422 C 17.596 0.871 15.493 0 13.299 0 L 13.249 0.04 Z M 13.249 15.095 C 12.543 15.092 11.842 14.977 11.171 14.754 C 11.04 14.71 10.899 14.703 10.764 14.735 C 10.629 14.767 10.506 14.836 10.409 14.935 L 8.02 17.313 L 6.394 15.758 C 6.245 15.661 6.066 15.62 5.889 15.642 C 5.713 15.665 5.55 15.749 5.429 15.88 C 5.309 16.011 5.239 16.181 5.232 16.359 C 5.225 16.537 5.281 16.711 5.39 16.852 L 6.986 18.387 L 5.471 19.863 C 5.407 19.926 5.329 19.972 5.243 19.999 C 5.158 20.025 5.067 20.03 4.979 20.013 L 2.44 19.511 C 2.332 19.492 2.233 19.441 2.156 19.364 C 2.078 19.286 2.027 19.187 2.008 19.08 L 1.516 16.56 C 1.502 16.472 1.508 16.382 1.534 16.297 C 1.56 16.212 1.606 16.134 1.667 16.069 L 6.615 11.121 C 6.713 11.023 6.782 10.9 6.816 10.766 C 6.85 10.631 6.846 10.49 6.805 10.358 C 6.374 8.998 6.383 7.536 6.832 6.182 C 7.281 4.828 8.146 3.65 9.305 2.817 C 10.464 1.985 11.856 1.539 13.283 1.546 C 14.709 1.552 16.098 2.009 17.249 2.852 C 18.4 3.695 19.255 4.88 19.692 6.238 C 20.13 7.597 20.126 9.058 19.682 10.414 C 19.238 11.77 18.377 12.951 17.222 13.788 C 16.066 14.626 14.676 15.076 13.249 15.075 L 13.249 15.095 Z M 13.249 5.109 C 12.611 5.107 11.988 5.294 11.456 5.647 C 10.925 6 10.511 6.502 10.265 7.091 C 10.02 7.679 9.955 8.327 10.078 8.953 C 10.201 9.578 10.507 10.153 10.957 10.605 C 11.407 11.057 11.982 11.364 12.607 11.49 C 13.232 11.615 13.88 11.551 14.47 11.308 C 15.059 11.064 15.563 10.651 15.917 10.121 C 16.272 9.591 16.461 8.968 16.461 8.33 C 16.463 7.906 16.382 7.486 16.222 7.094 C 16.062 6.701 15.826 6.344 15.528 6.043 C 15.229 5.742 14.875 5.502 14.484 5.339 C 14.092 5.175 13.673 5.09 13.249 5.089 L 13.249 5.109 Z M 13.249 10.037 C 12.909 10.039 12.576 9.939 12.292 9.752 C 12.008 9.564 11.786 9.296 11.655 8.982 C 11.524 8.668 11.489 8.322 11.555 7.988 C 11.621 7.654 11.785 7.347 12.025 7.107 C 12.266 6.866 12.573 6.703 12.907 6.637 C 13.241 6.571 13.586 6.606 13.9 6.737 C 14.214 6.868 14.482 7.089 14.67 7.373 C 14.858 7.657 14.957 7.99 14.955 8.33 C 14.947 8.779 14.764 9.206 14.446 9.521 C 14.127 9.836 13.697 10.014 13.249 10.017 L 13.249 10.037 Z" fill="currentColor" fill-rule="nonzero"></path>
</svg>