<svg xmlns="http://www.w3.org/2000/svg" width="21" height="20.625" viewBox="0 0 21 20.625" fill="none">
  <path d="M 2.307 19.353 L 4.377 19.353 C 4.747 19.352 5.111 19.261 5.439 19.09 C 5.767 18.918 6.049 18.67 6.26 18.367 L 8.143 19.875 C 8.832 20.365 9.655 20.627 10.5 20.625 L 15.498 20.625 C 16.131 20.625 16.748 20.422 17.257 20.046 C 17.767 19.67 18.142 19.14 18.328 18.535 L 20.891 10.174 C 21.005 9.803 21.03 9.41 20.965 9.027 C 20.9 8.644 20.746 8.282 20.517 7.969 C 20.287 7.656 19.987 7.401 19.641 7.224 C 19.295 7.047 18.913 6.953 18.525 6.95 L 14.512 6.95 C 14.448 6.951 14.385 6.936 14.327 6.909 C 14.269 6.882 14.218 6.842 14.177 6.793 C 14.135 6.743 14.105 6.684 14.088 6.621 C 14.071 6.558 14.068 6.492 14.078 6.428 L 14.601 3.47 C 14.729 2.801 14.617 2.109 14.286 1.514 C 13.954 0.919 13.423 0.46 12.787 0.217 C 12.429 0.075 12.048 0.001 11.663 0 C 11.179 0.006 10.704 0.13 10.28 0.362 C 9.855 0.594 9.494 0.927 9.228 1.331 L 6.477 5.501 C 6.297 5.095 6.002 4.749 5.63 4.506 C 5.257 4.263 4.822 4.132 4.377 4.131 L 2.307 4.131 C 1.694 4.133 1.107 4.379 0.675 4.813 C 0.243 5.247 0 5.835 0 6.448 L 0 17.046 C 0 17.349 0.06 17.649 0.176 17.929 C 0.292 18.209 0.461 18.463 0.676 18.677 C 0.89 18.891 1.144 19.061 1.424 19.177 C 1.704 19.293 2.004 19.353 2.307 19.353 Z" fill="currentColor" fill-rule="nonzero"></path>
</svg>