<svg xmlns="http://www.w3.org/2000/svg" width="20.868" height="21" viewBox="0 0 20.868 21" fill="none">
  <path d="M 20.395 18.283 L 17.04 15.148 C 18.466 13.248 19.125 10.882 18.887 8.518 C 18.649 6.155 17.531 3.967 15.755 2.389 C 13.979 0.812 11.675 -0.041 9.3 0.001 C 6.925 0.043 4.652 0.977 2.933 2.616 C 1.214 4.256 0.174 6.481 0.02 8.852 C -0.134 11.222 0.608 13.564 2.1 15.412 C 3.591 17.261 5.723 18.481 8.073 18.831 C 10.422 19.181 12.818 18.635 14.783 17.301 L 14.783 17.301 L 18.232 20.572 C 18.518 20.833 18.888 20.985 19.276 21 C 19.491 21.002 19.703 20.958 19.9 20.872 C 20.096 20.785 20.272 20.658 20.415 20.498 C 20.561 20.352 20.675 20.179 20.753 19.988 C 20.831 19.797 20.87 19.592 20.868 19.386 C 20.866 19.18 20.823 18.977 20.742 18.787 C 20.661 18.598 20.543 18.427 20.395 18.283 L 20.395 18.283 Z M 9.454 16.11 C 8.132 16.108 6.841 15.714 5.743 14.978 C 4.644 14.243 3.789 13.198 3.284 11.976 C 2.779 10.755 2.647 9.411 2.906 8.115 C 3.164 6.818 3.801 5.628 4.736 4.693 C 5.67 3.759 6.861 3.122 8.157 2.863 C 9.454 2.605 10.797 2.737 12.019 3.241 C 13.24 3.746 14.285 4.602 15.021 5.7 C 15.756 6.798 16.15 8.09 16.152 9.412 C 16.152 10.291 15.979 11.162 15.642 11.975 C 15.306 12.787 14.812 13.526 14.19 14.148 C 13.568 14.77 12.83 15.263 12.017 15.6 C 11.205 15.936 10.334 16.11 9.454 16.11 Z" fill="currentColor" fill-rule="nonzero"></path>
</svg>