<svg xmlns="http://www.w3.org/2000/svg" width="21" height="21" viewBox="0 0 21 21" fill="none">
  <path d="M 14.441 21 L 6.559 21 C 4.821 20.997 3.154 20.307 1.924 19.08 C 0.695 17.854 0.003 16.191 0 14.456 L 0 6.593 C -0.005 5.73 0.161 4.874 0.488 4.075 C 0.815 3.276 1.297 2.549 1.907 1.937 C 2.516 1.324 3.241 0.838 4.04 0.505 C 4.838 0.173 5.694 0.001 6.559 0 L 14.489 0 C 16.228 0.015 17.89 0.718 19.11 1.954 C 20.331 3.19 21.01 4.858 21 6.593 L 21 14.505 C 20.984 16.231 20.287 17.882 19.059 19.098 C 17.83 20.314 16.171 20.997 14.441 21 Z" fill="currentColor" fill-rule="nonzero"></path>
</svg>