<svg xmlns="http://www.w3.org/2000/svg" width="21.500" height="21.500" viewBox="0 0 21.500 21.500" fill="none">
  <path d="M 14.67 1.4 C 15.383 1.4 16.089 1.54 16.748 1.813 C 17.407 2.086 18.005 2.486 18.51 2.99 C 19.014 3.495 19.414 4.093 19.687 4.752 C 19.96 5.411 20.1 6.117 20.1 6.83 L 20.1 14.67 C 20.1 15.383 19.96 16.089 19.687 16.748 C 19.414 17.407 19.014 18.005 18.51 18.51 C 18.005 19.014 17.407 19.414 16.748 19.687 C 16.089 19.96 15.383 20.1 14.67 20.1 L 6.83 20.1 C 5.39 20.1 4.009 19.528 2.99 18.51 C 1.972 17.491 1.4 16.11 1.4 14.67 L 1.4 6.83 C 1.4 5.39 1.972 4.009 2.99 2.99 C 4.009 1.972 5.39 1.4 6.83 1.4 L 14.67 1.4 Z M 6.08 11.68 L 15.42 11.68 C 15.667 11.68 15.903 11.582 16.078 11.408 C 16.252 11.233 16.35 10.997 16.35 10.75 C 16.35 10.503 16.252 10.267 16.078 10.092 C 15.903 9.918 15.667 9.82 15.42 9.82 L 6.08 9.82 C 5.833 9.82 5.597 9.918 5.422 10.092 C 5.248 10.267 5.15 10.503 5.15 10.75 C 5.15 10.997 5.248 11.233 5.422 11.408 C 5.597 11.582 5.833 11.68 6.08 11.68 M 14.67 0 L 6.83 0 C 5.019 0 3.281 0.72 2 2 C 0.72 3.281 0 5.019 0 6.83 L 0 14.67 C 0 16.481 0.72 18.219 2 19.5 C 3.281 20.78 5.019 21.5 6.83 21.5 L 14.67 21.5 C 16.481 21.5 18.219 20.78 19.5 19.5 C 20.78 18.219 21.5 16.481 21.5 14.67 L 21.5 6.83 C 21.5 5.019 20.78 3.281 19.5 2 C 18.219 0.72 16.481 0 14.67 0 L 14.67 0 Z" fill="currentColor" fill-rule="nonzero"></path>
</svg>