<svg xmlns="http://www.w3.org/2000/svg" width="21.300" height="21.300" viewBox="0 0 21.300 21.300" fill="none">
  <path d="M 15.603 21.3 L 5.697 21.3 C 4.948 21.301 4.207 21.155 3.515 20.869 C 2.823 20.583 2.195 20.164 1.666 19.634 C 1.136 19.105 0.717 18.477 0.431 17.785 C 0.145 17.093 -0.001 16.352 0 15.603 L 0 5.697 C -0.001 4.948 0.145 4.207 0.431 3.515 C 0.717 2.823 1.136 2.195 1.666 1.666 C 2.195 1.136 2.823 0.717 3.515 0.431 C 4.207 0.145 4.948 -0.001 5.697 0 L 15.603 0 C 16.352 -0.001 17.093 0.145 17.785 0.431 C 18.477 0.717 19.105 1.136 19.634 1.666 C 20.164 2.195 20.583 2.823 20.869 3.515 C 21.155 4.207 21.301 4.948 21.3 5.697 L 21.3 15.603 C 21.301 16.352 21.155 17.093 20.869 17.785 C 20.583 18.477 20.164 19.105 19.634 19.634 C 19.105 20.164 18.477 20.583 17.785 20.869 C 17.093 21.155 16.352 21.301 15.603 21.3 Z" fill="currentColor" fill-rule="nonzero"></path>
</svg>