<svg xmlns="http://www.w3.org/2000/svg" width="21.700" height="22.182" viewBox="0 0 21.700 22.182" fill="none">
  <path d="M 16.707 9.071 C 16.708 9.18 16.687 9.289 16.646 9.391 C 16.604 9.492 16.542 9.585 16.464 9.663 C 16.386 9.741 16.293 9.803 16.19 9.845 C 16.087 9.887 15.977 9.909 15.865 9.909 L 5.878 9.909 C 5.652 9.909 5.436 9.821 5.276 9.663 C 5.116 9.506 5.026 9.293 5.026 9.071 C 5.026 8.848 5.116 8.635 5.276 8.478 C 5.436 8.321 5.652 8.232 5.878 8.232 L 15.865 8.232 C 15.977 8.232 16.087 8.254 16.19 8.296 C 16.293 8.339 16.386 8.401 16.464 8.479 C 16.542 8.557 16.604 8.649 16.646 8.751 C 16.687 8.852 16.708 8.961 16.707 9.071 Z M 12.336 13.466 L 5.933 13.466 C 5.707 13.466 5.49 13.555 5.33 13.712 C 5.171 13.869 5.081 14.082 5.081 14.305 C 5.081 14.527 5.171 14.74 5.33 14.897 C 5.49 15.054 5.707 15.143 5.933 15.143 L 12.358 15.143 C 12.584 15.143 12.801 15.054 12.96 14.897 C 13.12 14.74 13.21 14.527 13.21 14.305 C 13.21 14.082 13.12 13.869 12.96 13.712 C 12.801 13.555 12.584 13.466 12.358 13.466 L 12.336 13.466 Z M 21.678 7.566 L 21.678 15.519 C 21.675 17.285 20.961 18.978 19.691 20.227 C 18.421 21.476 16.7 22.179 14.904 22.182 L 6.774 22.182 C 4.979 22.179 3.257 21.476 1.987 20.227 C 0.718 18.978 0.003 17.285 0 15.519 L 0 7.566 C 0.003 5.924 0.621 4.34 1.735 3.117 C 2.85 1.894 4.383 1.117 6.042 0.935 L 6.042 0.806 C 6.042 0.592 6.129 0.387 6.282 0.236 C 6.436 0.085 6.644 0 6.862 0 C 7.079 0 7.288 0.085 7.441 0.236 C 7.595 0.387 7.681 0.592 7.681 0.806 L 7.681 0.892 L 14.019 0.892 L 14.019 0.806 C 14.019 0.592 14.105 0.387 14.259 0.236 C 14.412 0.085 14.621 0 14.838 0 C 15.055 0 15.264 0.085 15.418 0.236 C 15.571 0.387 15.658 0.592 15.658 0.806 L 15.658 0.935 C 17.32 1.11 18.857 1.885 19.973 3.11 C 21.089 4.334 21.704 5.922 21.7 7.566 L 21.678 7.566 Z M 20.039 7.566 C 20.049 6.355 19.611 5.182 18.807 4.265 C 18.003 3.347 16.888 2.749 15.669 2.579 L 15.669 2.773 C 15.669 2.987 15.582 3.192 15.429 3.343 C 15.275 3.494 15.066 3.579 14.849 3.579 C 14.632 3.579 14.423 3.494 14.27 3.343 C 14.116 3.192 14.03 2.987 14.03 2.773 L 14.03 2.493 L 7.681 2.493 L 7.681 2.762 C 7.681 2.976 7.595 3.181 7.441 3.332 C 7.288 3.483 7.079 3.568 6.862 3.568 C 6.644 3.568 6.436 3.483 6.282 3.332 C 6.129 3.181 6.042 2.976 6.042 2.762 L 6.042 2.579 C 4.829 2.761 3.722 3.364 2.92 4.278 C 2.119 5.193 1.676 6.359 1.672 7.566 L 1.672 15.519 C 1.675 16.858 2.217 18.141 3.179 19.088 C 4.142 20.034 5.446 20.567 6.807 20.57 L 14.958 20.57 C 16.319 20.567 17.624 20.034 18.586 19.088 C 19.549 18.141 20.091 16.858 20.094 15.519 L 20.039 7.566 Z" fill="currentColor" fill-rule="nonzero"></path>
</svg>