<svg xmlns="http://www.w3.org/2000/svg" width="21.795" height="21.800" viewBox="0 0 21.795 21.800" fill="none">
  <path d="M 15.042 3.603 C 14.478 3.616 13.929 3.796 13.467 4.12 C 13.004 4.445 12.648 4.899 12.443 5.425 C 12.238 5.951 12.193 6.526 12.314 7.078 C 12.436 7.63 12.717 8.133 13.124 8.525 C 13.677 9.021 14.401 9.282 15.143 9.254 C 15.885 9.226 16.587 8.911 17.101 8.374 C 17.615 7.838 17.9 7.123 17.897 6.381 C 17.893 5.638 17.601 4.926 17.082 4.394 C 16.531 3.875 15.799 3.592 15.042 3.603 Z M 16.057 7.388 C 15.94 7.532 15.795 7.65 15.631 7.735 C 15.466 7.82 15.286 7.87 15.101 7.881 C 14.916 7.893 14.731 7.866 14.557 7.803 C 14.383 7.739 14.224 7.64 14.09 7.512 C 13.956 7.384 13.851 7.229 13.779 7.058 C 13.708 6.887 13.674 6.703 13.677 6.518 C 13.681 6.333 13.723 6.15 13.801 5.982 C 13.878 5.814 13.99 5.664 14.129 5.541 C 14.249 5.413 14.393 5.31 14.553 5.238 C 14.714 5.167 14.887 5.128 15.063 5.125 C 15.408 5.125 15.739 5.26 15.986 5.501 C 16.113 5.621 16.215 5.766 16.284 5.926 C 16.354 6.087 16.391 6.259 16.392 6.434 C 16.412 6.783 16.296 7.125 16.067 7.388 L 16.057 7.388 Z M 21.05 0.72 C 20.765 0.439 20.416 0.229 20.032 0.111 C 19.649 -0.007 19.243 -0.031 18.848 0.04 L 15.205 0.68 C 13.26 1.191 11.485 2.206 10.059 3.623 C 9.238 4.517 8.5 5.486 7.857 6.516 C 3.909 6.16 0.255 11.884 0.103 12.179 C 0.036 12.289 0 12.415 0 12.544 C 0 12.673 0.036 12.799 0.103 12.909 C 0.17 13.022 0.265 13.114 0.379 13.178 C 0.493 13.242 0.622 13.276 0.752 13.275 L 4.396 13.275 C 4.377 13.572 4.423 13.87 4.532 14.147 C 4.641 14.424 4.809 14.674 5.025 14.878 L 7.126 16.847 C 7.39 17.103 7.718 17.282 8.075 17.366 C 8.432 17.45 8.806 17.436 9.156 17.324 L 9.531 21.15 C 9.546 21.278 9.594 21.4 9.67 21.503 C 9.747 21.607 9.85 21.688 9.968 21.739 C 10.061 21.778 10.161 21.798 10.262 21.8 C 10.422 21.799 10.578 21.75 10.709 21.658 C 10.952 21.475 16.433 17.345 15.692 13.539 C 16.574 12.937 17.415 12.275 18.209 11.56 C 19.697 10.101 20.709 8.226 21.111 6.181 L 21.761 2.862 C 21.828 2.474 21.798 2.076 21.674 1.702 C 21.55 1.329 21.336 0.992 21.05 0.72 Z M 4.812 11.884 L 2.123 11.884 C 3.249 10.352 5.086 8.403 6.842 7.997 L 6.081 9.489 C 5.624 10.362 5.208 11.164 4.893 11.813 L 4.812 11.884 Z M 10.901 19.618 L 10.638 16.898 L 14.322 14.625 C 14.058 16.401 12.261 18.38 10.901 19.618 Z M 20.35 2.568 L 19.701 5.917 C 19.347 7.652 18.489 9.244 17.234 10.494 C 14.664 12.624 11.858 14.453 8.872 15.944 C 8.755 16.002 8.624 16.024 8.495 16.006 C 8.367 15.988 8.247 15.931 8.151 15.843 L 6.05 13.813 C 5.957 13.725 5.895 13.61 5.871 13.484 C 5.847 13.358 5.864 13.228 5.918 13.112 L 5.989 12.96 C 6.004 12.941 6.018 12.92 6.03 12.899 L 7.441 10.139 C 8.453 8.157 9.704 6.306 11.165 4.628 C 12.382 3.423 13.888 2.553 15.54 2.101 L 19.153 1.461 C 19.311 1.434 19.474 1.444 19.627 1.492 C 19.781 1.54 19.921 1.623 20.036 1.735 C 20.148 1.84 20.232 1.971 20.282 2.116 C 20.331 2.261 20.344 2.416 20.32 2.568 L 20.35 2.568 Z" fill="currentColor" fill-rule="nonzero"></path>
</svg>