<svg xmlns="http://www.w3.org/2000/svg" width="21.500" height="20.926" viewBox="0 0 21.500 20.926" fill="none">
  <path d="M 10.805 20.925 C 9.476 20.928 8.163 20.643 6.955 20.089 C 6.774 20.001 6.635 19.848 6.565 19.66 C 6.496 19.472 6.502 19.264 6.582 19.081 C 6.667 18.899 6.821 18.758 7.009 18.688 C 7.198 18.618 7.406 18.625 7.59 18.708 C 8.572 19.155 9.637 19.392 10.717 19.404 C 11.797 19.417 12.867 19.203 13.859 18.778 C 14.043 18.709 14.246 18.713 14.427 18.789 C 14.608 18.865 14.753 19.007 14.832 19.187 C 14.911 19.367 14.918 19.57 14.851 19.755 C 14.784 19.939 14.65 20.091 14.474 20.18 C 13.315 20.678 12.066 20.932 10.805 20.925 Z M 19.282 11.602 C 19.382 11.592 19.478 11.562 19.566 11.514 C 19.654 11.467 19.732 11.402 19.794 11.324 C 19.857 11.247 19.904 11.157 19.932 11.061 C 19.96 10.965 19.969 10.864 19.957 10.765 C 19.825 9.505 19.434 8.285 18.81 7.182 C 18.186 6.079 17.341 5.117 16.329 4.354 C 16.166 4.253 15.972 4.217 15.784 4.252 C 15.595 4.287 15.427 4.392 15.312 4.545 C 15.197 4.698 15.144 4.888 15.162 5.079 C 15.18 5.269 15.269 5.446 15.412 5.574 C 16.254 6.21 16.957 7.013 17.477 7.932 C 17.997 8.851 18.323 9.866 18.435 10.916 C 18.455 11.103 18.543 11.277 18.683 11.403 C 18.822 11.53 19.003 11.6 19.191 11.602 L 19.282 11.602 Z M 3.155 10.916 C 3.27 9.842 3.611 8.803 4.155 7.869 C 4.698 6.935 5.433 6.125 6.31 5.493 C 6.403 5.44 6.485 5.368 6.549 5.281 C 6.613 5.194 6.658 5.094 6.68 4.988 C 6.703 4.883 6.703 4.774 6.681 4.668 C 6.658 4.563 6.614 4.463 6.55 4.376 C 6.487 4.288 6.405 4.216 6.312 4.162 C 6.218 4.109 6.114 4.075 6.006 4.065 C 5.899 4.054 5.791 4.066 5.688 4.101 C 5.586 4.135 5.492 4.191 5.412 4.264 C 4.372 5.025 3.502 5.996 2.859 7.114 C 2.217 8.232 1.816 9.472 1.683 10.755 C 1.672 10.854 1.68 10.955 1.708 11.051 C 1.736 11.147 1.783 11.236 1.846 11.314 C 1.909 11.392 1.986 11.457 2.074 11.504 C 2.162 11.552 2.259 11.582 2.358 11.592 L 2.439 11.592 C 2.62 11.583 2.793 11.511 2.926 11.387 C 3.059 11.263 3.143 11.097 3.165 10.916 L 3.155 10.916 Z M 14.424 3.699 C 14.426 2.968 14.211 2.253 13.805 1.645 C 13.4 1.036 12.824 0.562 12.149 0.282 C 11.474 0.002 10.73 -0.072 10.014 0.071 C 9.297 0.214 8.638 0.567 8.122 1.084 C 7.606 1.602 7.255 2.261 7.115 2.978 C 6.974 3.695 7.049 4.438 7.331 5.113 C 7.613 5.787 8.089 6.362 8.699 6.766 C 9.308 7.169 10.024 7.382 10.755 7.378 C 11.728 7.373 12.66 6.983 13.347 6.294 C 14.034 5.605 14.421 4.672 14.424 3.699 Z M 12.912 3.699 C 12.912 4.131 12.784 4.552 12.543 4.911 C 12.303 5.269 11.962 5.548 11.563 5.713 C 11.164 5.877 10.725 5.919 10.302 5.833 C 9.879 5.747 9.492 5.538 9.188 5.231 C 8.884 4.925 8.678 4.535 8.597 4.111 C 8.515 3.688 8.561 3.249 8.729 2.852 C 8.897 2.454 9.179 2.116 9.54 1.879 C 9.9 1.642 10.323 1.518 10.755 1.522 C 11.329 1.527 11.877 1.759 12.281 2.167 C 12.685 2.574 12.912 3.125 12.912 3.699 Z M 7.378 15.795 C 7.388 15.063 7.18 14.344 6.78 13.731 C 6.381 13.117 5.807 12.636 5.134 12.35 C 4.46 12.063 3.716 11.983 2.997 12.121 C 2.278 12.258 1.616 12.607 1.095 13.121 C 0.574 13.636 0.219 14.295 0.073 15.012 C -0.072 15.73 0 16.474 0.279 17.151 C 0.558 17.828 1.032 18.407 1.641 18.813 C 2.25 19.22 2.967 19.436 3.699 19.434 C 4.676 19.431 5.611 19.041 6.301 18.35 C 6.991 17.658 7.378 16.721 7.378 15.744 L 7.378 15.795 Z M 5.866 15.795 C 5.856 16.224 5.72 16.64 5.474 16.991 C 5.229 17.343 4.885 17.614 4.485 17.771 C 4.086 17.928 3.65 17.963 3.23 17.873 C 2.811 17.782 2.428 17.57 2.129 17.263 C 1.83 16.955 1.628 16.566 1.549 16.145 C 1.47 15.723 1.518 15.288 1.686 14.893 C 1.853 14.498 2.134 14.162 2.492 13.926 C 2.85 13.69 3.27 13.565 3.699 13.567 C 4.275 13.57 4.826 13.8 5.232 14.208 C 5.638 14.616 5.866 15.169 5.866 15.744 L 5.866 15.795 Z M 21.5 15.795 C 21.51 15.063 21.302 14.345 20.903 13.732 C 20.503 13.118 19.931 12.638 19.258 12.351 C 18.584 12.064 17.841 11.984 17.122 12.12 C 16.403 12.257 15.741 12.604 15.22 13.118 C 14.699 13.632 14.343 14.289 14.196 15.006 C 14.05 15.723 14.12 16.467 14.398 17.144 C 14.675 17.821 15.148 18.401 15.756 18.808 C 16.363 19.216 17.079 19.434 17.81 19.434 C 18.789 19.434 19.727 19.045 20.419 18.353 C 21.111 17.661 21.5 16.723 21.5 15.744 L 21.5 15.795 Z M 19.988 15.795 C 19.978 16.223 19.842 16.639 19.597 16.99 C 19.351 17.342 19.008 17.613 18.609 17.77 C 18.211 17.927 17.775 17.963 17.356 17.873 C 16.937 17.784 16.553 17.573 16.254 17.266 C 15.955 16.96 15.752 16.572 15.672 16.151 C 15.592 15.73 15.638 15.295 15.804 14.9 C 15.97 14.505 16.249 14.168 16.606 13.931 C 16.963 13.694 17.382 13.567 17.81 13.567 C 18.388 13.567 18.942 13.797 19.35 14.205 C 19.758 14.613 19.988 15.167 19.988 15.744 L 19.988 15.795 Z" fill="currentColor" fill-rule="nonzero"></path>
</svg>