<svg xmlns="http://www.w3.org/2000/svg" width="19.277" height="22" viewBox="0 0 19.277 22" fill="none">
  <path d="M 8.723 22 L 8.672 22 C 7.786 21.953 6.939 21.619 6.259 21.049 L 1.554 17.214 C 1.067 16.815 0.674 16.313 0.405 15.743 C 0.136 15.174 -0.002 14.551 0 13.921 L 0 6.405 C 0 5.591 0.233 4.795 0.671 4.109 C 1.11 3.424 1.736 2.879 2.475 2.539 L 7.179 0.392 C 7.733 0.134 8.337 0 8.948 0 C 9.559 0 10.163 0.134 10.717 0.392 L 15.411 2.539 C 16.152 2.878 16.78 3.422 17.221 4.107 C 17.661 4.793 17.896 5.59 17.896 6.405 L 17.896 9.084 C 17.896 9.287 17.815 9.483 17.672 9.626 C 17.528 9.77 17.333 9.851 17.129 9.851 C 16.926 9.851 16.731 9.77 16.587 9.626 C 16.443 9.483 16.362 9.287 16.362 9.084 L 16.362 6.405 C 16.362 5.884 16.212 5.374 15.931 4.936 C 15.65 4.497 15.25 4.148 14.777 3.93 L 10.073 1.793 C 9.718 1.631 9.333 1.547 8.943 1.547 C 8.553 1.547 8.168 1.631 7.813 1.793 L 3.119 3.93 C 2.646 4.148 2.246 4.497 1.965 4.936 C 1.684 5.374 1.535 5.884 1.534 6.405 L 1.534 13.921 C 1.536 14.326 1.629 14.726 1.806 15.091 C 1.983 15.455 2.24 15.775 2.557 16.028 L 7.261 19.863 C 7.7 20.222 8.239 20.436 8.805 20.476 C 8.992 20.503 9.162 20.598 9.283 20.743 C 9.404 20.888 9.468 21.072 9.461 21.261 C 9.455 21.45 9.379 21.629 9.249 21.766 C 9.118 21.902 8.942 21.985 8.754 22 L 8.723 22 Z M 18.53 15.404 C 18.528 14.381 18.223 13.382 17.653 12.532 C 17.083 11.682 16.275 11.021 15.329 10.631 C 14.383 10.24 13.343 10.139 12.34 10.34 C 11.337 10.541 10.416 11.035 9.693 11.759 C 8.971 12.483 8.479 13.405 8.28 14.408 C 8.081 15.412 8.184 16.452 8.576 17.397 C 8.968 18.342 9.631 19.149 10.482 19.717 C 11.333 20.286 12.333 20.589 13.356 20.589 C 14.729 20.586 16.045 20.039 17.015 19.067 C 17.985 18.095 18.53 16.777 18.53 15.404 Z M 16.996 15.404 C 16.996 16.124 16.783 16.828 16.383 17.427 C 15.983 18.025 15.414 18.492 14.749 18.767 C 14.084 19.043 13.352 19.115 12.646 18.975 C 11.939 18.834 11.291 18.487 10.781 17.978 C 10.272 17.469 9.926 16.82 9.785 16.114 C 9.645 15.408 9.717 14.676 9.992 14.011 C 10.268 13.346 10.734 12.777 11.333 12.377 C 11.932 11.977 12.636 11.763 13.356 11.763 C 14.321 11.763 15.247 12.147 15.93 12.83 C 16.613 13.512 16.996 14.438 16.996 15.404 L 16.996 15.404 Z M 18.254 19.321 C 18.052 19.321 17.854 19.381 17.686 19.493 C 17.518 19.605 17.387 19.765 17.309 19.952 C 17.232 20.139 17.212 20.344 17.251 20.543 C 17.291 20.741 17.388 20.923 17.531 21.066 C 17.674 21.209 17.856 21.307 18.055 21.346 C 18.253 21.386 18.459 21.366 18.646 21.288 C 18.832 21.211 18.992 21.08 19.105 20.911 C 19.217 20.743 19.277 20.546 19.277 20.343 C 19.277 20.072 19.169 19.812 18.977 19.62 C 18.786 19.428 18.525 19.321 18.254 19.321 Z" fill="currentColor" fill-rule="nonzero"></path>
</svg>