<svg xmlns="http://www.w3.org/2000/svg" width="18.017" height="21.500" viewBox="0 0 18.017 21.500" fill="none">
  <path d="M 5.29 21.5 C 4.456 21.492 3.656 21.171 3.048 20.6 C 2.441 20.03 2.07 19.251 2.01 18.42 L 1.28 7.98 C 1.273 7.882 1.286 7.783 1.318 7.689 C 1.349 7.596 1.399 7.509 1.464 7.435 C 1.529 7.361 1.608 7.3 1.696 7.256 C 1.785 7.212 1.881 7.187 1.98 7.18 C 2.078 7.173 2.177 7.186 2.27 7.218 C 2.364 7.25 2.45 7.299 2.525 7.364 C 2.599 7.429 2.66 7.508 2.703 7.597 C 2.747 7.685 2.773 7.782 2.78 7.88 L 3.49 18.32 C 3.525 18.78 3.734 19.209 4.073 19.521 C 4.413 19.833 4.859 20.004 5.32 20 L 12.87 19.91 C 13.328 19.906 13.768 19.726 14.099 19.408 C 14.43 19.09 14.627 18.658 14.65 18.2 L 15.24 7.88 C 15.255 7.681 15.347 7.496 15.496 7.363 C 15.645 7.231 15.84 7.162 16.04 7.17 C 16.237 7.183 16.421 7.273 16.552 7.421 C 16.683 7.569 16.751 7.763 16.74 7.96 L 16.15 18.29 C 16.099 19.125 15.736 19.911 15.131 20.489 C 14.527 21.067 13.726 21.396 12.89 21.41 L 5.34 21.5 L 5.29 21.5 Z M 11.99 11.6 C 11.987 11.402 11.907 11.213 11.767 11.073 C 11.627 10.932 11.438 10.853 11.24 10.85 L 6.78 10.85 C 6.581 10.85 6.39 10.929 6.249 11.07 C 6.109 11.21 6.03 11.401 6.03 11.6 C 6.03 11.799 6.109 11.99 6.249 12.13 C 6.39 12.271 6.581 12.35 6.78 12.35 L 11.24 12.35 C 11.34 12.353 11.439 12.335 11.533 12.299 C 11.626 12.262 11.711 12.207 11.783 12.138 C 11.855 12.068 11.912 11.984 11.951 11.892 C 11.99 11.799 12.01 11.7 12.01 11.6 L 11.99 11.6 Z M 11.21 15.3 C 11.21 15.101 11.131 14.91 10.99 14.77 C 10.849 14.629 10.659 14.55 10.46 14.55 L 7.56 14.55 C 7.361 14.55 7.17 14.629 7.029 14.77 C 6.889 14.91 6.81 15.101 6.81 15.3 C 6.81 15.499 6.889 15.69 7.029 15.83 C 7.17 15.971 7.361 16.05 7.56 16.05 L 10.46 16.05 C 10.658 16.047 10.847 15.968 10.987 15.827 C 11.127 15.687 11.207 15.498 11.21 15.3 Z M 18.01 5.27 C 17.985 5.448 17.897 5.612 17.76 5.73 C 17.624 5.848 17.45 5.912 17.27 5.91 L 17.16 5.91 C 11.762 5.168 6.288 5.168 0.89 5.91 C 0.79 5.927 0.689 5.924 0.591 5.902 C 0.492 5.879 0.4 5.838 0.318 5.779 C 0.236 5.72 0.167 5.646 0.114 5.56 C 0.061 5.475 0.025 5.379 0.01 5.28 C -0.022 5.084 0.025 4.883 0.142 4.722 C 0.258 4.56 0.433 4.452 0.63 4.42 C 0.76 4.42 2.14 4.18 4.31 4.01 L 4.67 2.13 C 4.784 1.53 5.104 0.989 5.575 0.6 C 6.046 0.211 6.639 -0.001 7.25 0 L 10.78 0 C 11.395 -0.003 11.992 0.211 12.466 0.604 C 12.939 0.997 13.259 1.545 13.37 2.15 L 13.71 4.01 C 14.9 4.11 16.12 4.23 17.37 4.42 C 17.468 4.434 17.562 4.466 17.647 4.516 C 17.732 4.566 17.807 4.633 17.866 4.712 C 17.926 4.791 17.969 4.881 17.994 4.977 C 18.018 5.072 18.024 5.172 18.01 5.27 Z M 8.57 3.84 L 12.15 3.84 L 11.89 2.42 C 11.843 2.162 11.707 1.929 11.506 1.761 C 11.305 1.593 11.052 1.5 10.79 1.5 L 7.26 1.5 C 6.998 1.5 6.744 1.59 6.542 1.756 C 6.339 1.922 6.201 2.153 6.15 2.41 L 5.88 3.84 L 8.57 3.84 Z" fill="currentColor" fill-rule="nonzero"></path>
</svg>