<svg xmlns="http://www.w3.org/2000/svg" width="20.442" height="21" viewBox="0 0 20.442 21" fill="none">
  <path d="M 10.006 11.843 C 8.834 11.843 7.69 11.496 6.716 10.845 C 5.742 10.194 4.983 9.27 4.535 8.188 C 4.087 7.106 3.969 5.915 4.198 4.766 C 4.426 3.618 4.99 2.562 5.818 1.734 C 6.647 0.906 7.702 0.342 8.85 0.114 C 9.999 -0.115 11.19 0.003 12.272 0.451 C 13.354 0.899 14.278 1.658 14.929 2.632 C 15.58 3.605 15.927 4.75 15.927 5.921 C 15.927 6.699 15.774 7.469 15.476 8.188 C 15.179 8.906 14.743 9.559 14.193 10.109 C 13.643 10.658 12.99 11.095 12.272 11.392 C 11.553 11.69 10.783 11.843 10.006 11.843 Z M 10.006 1.556 C 9.142 1.554 8.297 1.808 7.577 2.286 C 6.858 2.765 6.297 3.446 5.965 4.244 C 5.633 5.041 5.545 5.919 5.712 6.767 C 5.879 7.614 6.294 8.393 6.904 9.005 C 7.515 9.617 8.292 10.033 9.14 10.203 C 9.987 10.372 10.865 10.286 11.664 9.956 C 12.462 9.626 13.144 9.066 13.625 8.348 C 14.105 7.63 14.361 6.785 14.361 5.921 C 14.358 4.766 13.899 3.659 13.083 2.841 C 12.267 2.023 11.161 1.561 10.006 1.556 Z M 1.543 20.367 C 2.145 16.8 5.785 14.145 10.006 14.145 C 10.756 14.144 11.504 14.228 12.235 14.394 C 12.337 14.424 12.444 14.433 12.55 14.42 C 12.656 14.407 12.757 14.373 12.849 14.319 C 12.941 14.265 13.021 14.193 13.083 14.107 C 13.146 14.021 13.191 13.923 13.214 13.82 C 13.238 13.716 13.24 13.608 13.22 13.504 C 13.2 13.399 13.159 13.3 13.099 13.212 C 13.04 13.124 12.963 13.049 12.873 12.992 C 12.783 12.935 12.683 12.897 12.577 12.88 C 11.735 12.68 10.872 12.58 10.006 12.579 C 5.028 12.579 0.745 15.804 0.009 20.108 C -0.022 20.311 0.029 20.518 0.149 20.685 C 0.269 20.851 0.449 20.964 0.651 21 L 0.786 21 C 0.966 20.998 1.14 20.934 1.278 20.819 C 1.416 20.704 1.51 20.544 1.543 20.367 Z M 13.604 20.15 C 13.399 20.15 13.196 20.109 13.007 20.028 C 12.818 19.948 12.647 19.831 12.505 19.683 C 12.343 19.505 12.224 19.291 12.159 19.058 C 12.095 18.826 12.085 18.582 12.131 18.345 L 12.443 16.873 C 12.521 16.501 12.709 16.161 12.982 15.898 L 16.529 12.579 C 16.713 12.411 16.929 12.281 17.164 12.198 C 17.399 12.114 17.648 12.078 17.897 12.092 C 18.4 12.123 18.871 12.346 19.214 12.714 L 19.889 13.44 C 20.243 13.799 20.442 14.283 20.442 14.788 C 20.442 15.293 20.243 15.777 19.889 16.136 L 16.342 19.444 C 16.057 19.712 15.693 19.88 15.305 19.921 L 13.811 20.129 L 13.604 20.15 Z M 17.752 13.658 C 17.68 13.655 17.609 13.682 17.555 13.73 L 14.05 17.039 C 14.009 17.078 13.98 17.128 13.967 17.184 L 13.656 18.667 L 15.087 18.387 C 15.145 18.38 15.2 18.355 15.243 18.314 L 18.779 15.006 C 18.84 14.937 18.874 14.849 18.874 14.757 C 18.874 14.665 18.84 14.577 18.779 14.508 L 18.094 13.782 C 18.06 13.745 18.018 13.714 17.972 13.693 C 17.926 13.671 17.876 13.66 17.825 13.658 L 17.752 13.658 Z" fill="currentColor" fill-rule="nonzero"></path>
</svg>